{
copyright = "Spacing/Kerning by Igino Marini: www.ikern.com";
customParameters = (
{
name = "description";
value = "Spacing/Kerning by Igino Marini: www.ikern.com";
},
{
name = "license";
value = "THE LOST TYPE CO-OP\012www.losttype.com\012\012LICENSING AGREEMENT\012\012YOU MAY:\012\0121) USE THIS FONT IN PERSONAL DESIGN\012\012YOU MAY NOT:\012\0121) USE THIS FONT IN COMMERCIAL DESIGN WITHOUT CONTACTING THE DESIGNER, JOE PRINCE, AT joe@admixdesigns.com\012\0122) RE-DISTRIBUTE THIS FONT BY ANY MEANS, FOR FREE, OR FOR A FEE\012\0123) ALTER THIS FONT FOR RE-DISTRIBUTION\012\012FOR ALL OTHER MATTERS, EMAIL US AT:\012\012losttypecoop@gmail.com";
},
{
name = "licenseURL";
value = "www.losttype.com";
},
{
name = "glyphOrder";
value = (
    ".notdef",
    A,
    B,
    C,
    D,
    E,
    F,
    G,
    H,
    I,
    J,
    K,
    L,
    M,
    N,
    O,
    P,
    Q,
    R,
    S,
    T,
    U,
    V,
    W,
    X,
    Y,
    Z,
    a,
    b,
    c,
    d,
    e,
    f,
    g,
    h,
    i,
    j,
    k,
    l,
    m,
    n,
    o,
    p,
    q,
    r,
    s,
    t,
    u,
    v,
    w,
    x,
    y,
    z,
    zero,
    one,
    two,
    three,
    four,
    five,
    six,
    seven,
    eight,
    nine,
    "zero.lf",
    "one.lf",
    "two.lf",
    "three.lf",
    "four.lf",
    "five.lf",
    "six.lf",
    "seven.lf",
    "eight.lf",
    "nine.lf",
    colon,
    semicolon,
    exclam,
    exclamdown,
    question,
    questiondown,
    parenleft,
    parenright,
    braceleft,
    braceright,
    bracketleft,
    bracketright,
    slash,
    backslash,
    bar,
    brokenbar,
    onesuperior,
    twosuperior,
    threesuperior,
    at,
    numbersign,
    ampersand,
    section,
    paragraph,
    dagger,
    daggerdbl,
    cent,
    sterling,
    yen,
    dollar,
    Euro,
    currency,
    percent,
    perthousand,
    guillemotleft,
    guillemotright,
    guilsinglleft,
    guilsinglright,
    copyright,
    registered,
    trademark,
    asciicircum,

glyphs = (
{
glyphname = ".notdef";
layers = (
{
layerId = "5CB93347-76DB-47FB-8F37-014E89A2A0A0";
name = "Regular";
paths = (
{
closed = 1;
nodes = (
"0 0 LINE",
"425 0 LINE",
"532 609 LINE",
"107 609 LINE"
);
},
{
closed = 1;
nodes = (
"66 42 LINE",
"259 268 LINE",
"372 42 LINE"
);
},
{
closed = 1;
nodes = (
"465 567 LINE",
"272 340 LINE",
"159 567 LINE"
);
},
{
closed = 1;
nodes = (
"475 520 LINE",
"399 88 LINE",
"291 304 LINE"
);
},
{
closed = 1;
nodes = (
"58 88 LINE",
"134 520 LINE",
"242 304 LINE"
);
}
);
width = 425;
}
);
},
{
glyphname = "A";
layers = (
{
layerId = "5CB93347-76DB-47FB-8F37-014E89A2A0A0";
name = "Regular";
paths = (
{
closed = 1;
nodes = (
"-45 0 LINE",
"216 0 LINE",
"229 71 LINE",
"139 71 LINE",
"205 188 LINE",
"465 188 LINE",
"491 71 LINE",
"401 71 LINE",
"389 0 LINE",
"645 0 LINE",
"658 71 LINE",
"579 71 LINE",
"458 609 LINE",
"240 609 LINE",
"228 538 LINE",
"315 538 LINE",
"46 71 LINE",
"-32 71 LINE"
);
},
{
closed = 1;
nodes = (
"245 259 LINE",
"395 524 LINE",
"451 259 LINE"
);
}
);
width = 681;
}
);
leftKerningGroup = "A";
rightKerningGroup = "A";
unicode = 0041;
},
{
glyphname = "B";
layers = (
{
layerId = "5CB93347-76DB-47FB-8F37-014E89A2A0A0";
name = "Regular";
paths = (
{
closed = 1;
nodes = (
"-6 0 LINE",
"303 0 LINE SMOOTH",
"457 0 OFFCURVE",
"556 78 OFFCURVE",
"556 181 CURVE SMOOTH",
"556 247 OFFCURVE",
"514 291 OFFCURVE",
"443 308 CURVE",
"535 332 OFFCURVE",
"583 392 OFFCURVE",
"583 462 CURVE SMOOTH",
"583 553 OFFCURVE",
"506 609 OFFCURVE",
"381 609 CURVE SMOOTH",
"101 609 LINE",
"88 538 LINE",
"178 538 LINE",
"95 71 LINE",
"6 71 LINE"
);
},
{
closed = 1;
nodes = (
"182 70 LINE",
"218 275 LINE",
"337 275 LINE SMOOTH",
"421 275 OFFCURVE",
"469 244 OFFCURVE",
"469 183 CURVE SMOOTH",
"469 112 OFFCURVE",
"404 70 OFFCURVE",
"306 70 CURVE SMOOTH"
);
},
{
closed = 1;
nodes = (
"230 343 LINE",
"264 539 LINE",
"375 539 LINE SMOOTH",
"451 539 OFFCURVE",
"496 512 OFFCURVE",
"496 455 CURVE SMOOTH",
"496 388 OFFCURVE",
"436 343 OFFCURVE",
"334 343 CURVE SMOOTH"
);
}
);
width = 610;
}
);
leftKerningGroup = "B";
rightKerningGroup = "B";
unicode = 0042;
},
{
glyphname = "C";
layers = (
{
layerId = "5CB93347-76DB-47FB-8F37-014E89A2A0A0";
name = "Regular";
paths = (
{
closed = 1;
nodes = (
"420 -12 OFFCURVE",
"497 16 OFFCURVE",
"543 40 CURVE",
"557 126 LINE",
"494 90 OFFCURVE",
"417 63 OFFCURVE",
"341 63 CURVE SMOOTH",
"229 63 OFFCURVE",
"135 123 OFFCURVE",
"135 267 CURVE SMOOTH",
"135 421 OFFCURVE",
"243 549 OFFCURVE",
"409 549 CURVE SMOOTH",
"454 549 OFFCURVE",
"503 539 OFFCURVE",
"537 528 CURVE",
"517 416 LINE",
"599 416 LINE",
"625 573 LINE",
"566 600 OFFCURVE",
"489 621 OFFCURVE",
"408 621 CURVE SMOOTH",
"185 621 OFFCURVE",
"45 456 OFFCURVE",
"45 265 CURVE SMOOTH",
"45 85 OFFCURVE",
"167 -12 OFFCURVE",
"332 -12 CURVE SMOOTH"
);
}
);
width = 611;
}
);
leftKerningGroup = "C";
rightKerningGroup = "C";
unicode = 0043;
},
{
glyphname = "D";
layers = (
{
layerId = "5CB93347-76DB-47FB-8F37-014E89A2A0A0";
name = "Regular";
paths = (
{
closed = 1;
nodes = (
"-6 0 LINE",
"281 0 LINE SMOOTH",
"519 0 OFFCURVE",
"655 151 OFFCURVE",
"655 347 CURVE SMOOTH",
"655 521 OFFCURVE",
"548 609 OFFCURVE",
"375 609 CURVE SMOOTH",
"101 609 LINE",
"88 538 LINE",
"178 538 LINE",
"95 71 LINE",
"6 71 LINE"
);
},
{
closed = 1;
nodes = (
"184 71 LINE",
"266 538 LINE",
"367 538 LINE SMOOTH",
"500 538 OFFCURVE",
"564 470 OFFCURVE",
"564 345 CURVE SMOOTH",
"564 187 OFFCURVE",
"461 71 OFFCURVE",
"285 71 CURVE SMOOTH"
);
}
);
width = 684;
}
);
leftKerningGroup = "B";
rightKerningGroup = "D";
unicode = 0044;
},
{
glyphname = "E";
layers = (
{
layerId = "5CB93347-76DB-47FB-8F37-014E89A2A0A0";
name = "Regular";
paths = (
{
closed = 1;
nodes = (
"-6 0 LINE",
"487 0 LINE",
"517 174 LINE",
"435 174 LINE",
"417 71 LINE",
"184 71 LINE",
"219 271 LINE",
"468 271 LINE",
"480 342 LINE",
"232 342 LINE",
"266 538 LINE",
"497 538 LINE",
"479 438 LINE",
"561 438 LINE",
"591 609 LINE",
"101 609 LINE",
"88 538 LINE",
"178 538 LINE",
"95 71 LINE",
"6 71 LINE"
);
}
);
width = 578;
}
);
leftKerningGroup = "B";
rightKerningGroup = "E";
unicode = 0045;
},
{
glyphname = "F";
layers = (
{
layerId = "5CB93347-76DB-47FB-8F37-014E89A2A0A0";
name = "Regular";
paths = (
{
closed = 1;
nodes = (
"-6 0 LINE",
"271 0 LINE",
"283 71 LINE",
"184 71 LINE",
"217 256 LINE",
"448 256 LINE",
"461 329 LINE",
"229 329 LINE",
"266 537 LINE",
"490 537 LINE",
"471 428 LINE",
"553 428 LINE",
"584 609 LINE",
"101 609 LINE",
"88 538 LINE",
"178 538 LINE",
"95 71 LINE",
"6 71 LINE"
);
}
);
width = 547;
}
);
leftKerningGroup = "B";
rightKerningGroup = "F";
unicode = 0046;
},
{
glyphname = "G";
layers = (
{
layerId = "5CB93347-76DB-47FB-8F37-014E89A2A0A0";
name = "Regular";
paths = (
{
closed = 1;
nodes = (
"443 -12 OFFCURVE",
"529 16 OFFCURVE",
"575 37 CURVE",
"613 254 LINE",
"669 254 LINE",
"681 324 LINE",
"400 324 LINE",
"388 254 LINE",
"530 254 LINE",
"501 90 LINE",
"459 75 OFFCURVE",
"412 63 OFFCURVE",
"355 63 CURVE SMOOTH",
"208 63 OFFCURVE",
"135 144 OFFCURVE",
"135 269 CURVE SMOOTH",
"135 429 OFFCURVE",
"255 547 OFFCURVE",
"424 547 CURVE SMOOTH",
"479 547 OFFCURVE",
"531 534 OFFCURVE",
"566 523 CURVE",
"549 423 LINE",
"632 423 LINE",
"657 570 LINE",
"602 595 OFFCURVE",
"513 621 OFFCURVE",
"421 621 CURVE SMOOTH",
"198 621 OFFCURVE",
"46 466 OFFCURVE",
"46 265 CURVE SMOOTH",
"46 90 OFFCURVE",
"162 -12 OFFCURVE",
"346 -12 CURVE SMOOTH"
);
}
);
width = 692;
}
);
leftKerningGroup = "C";
rightKerningGroup = "G";
unicode = 0047;
},
{
glyphname = "H";
layers = (
{
layerId = "5CB93347-76DB-47FB-8F37-014E89A2A0A0";
name = "Regular";
paths = (
{
closed = 1;
nodes = (
"-6 0 LINE",
"261 0 LINE",
"274 71 LINE",
"184 71 LINE",
"219 269 LINE",
"542 269 LINE",
"507 71 LINE",
"417 71 LINE",
"404 0 LINE",
"672 0 LINE",
"684 71 LINE",
"595 71 LINE",
"677 538 LINE",
"767 538 LINE",
"779 609 LINE",
"511 609 LINE",
"499 538 LINE",
"589 538 LINE",
"555 343 LINE",
"232 343 LINE",
"266 538 LINE",
"356 538 LINE",
"368 609 LINE",
"101 609 LINE",
"88 538 LINE",
"178 538 LINE",
"95 71 LINE",
"6 71 LINE"
);
}
);
width = 755;
}
);
leftKerningGroup = "B";
rightKerningGroup = "H";
unicode = 0048;
},
{
glyphname = "I";
layers = (
{
layerId = "5CB93347-76DB-47FB-8F37-014E89A2A0A0";
name = "Regular";
paths = (
{
closed = 1;
nodes = (
"-6 0 LINE",
"261 0 LINE",
"273 71 LINE",
"184 71 LINE",
"266 538 LINE",
"355 538 LINE",
"368 609 LINE",
"101 609 LINE",
"88 538 LINE",
"178 538 LINE",
"95 71 LINE",
"6 71 LINE"
);
}
);
width = 344;
}
);
leftKerningGroup = "B";
rightKerningGroup = "H";
unicode = 0049;
},
{
glyphname = "J";
layers = (
{
layerId = "5CB93347-76DB-47FB-8F37-014E89A2A0A0";
name = "Regular";
paths = (
{
closed = 1;
nodes = (
"-30 -173 LINE",
"54 -150 OFFCURVE",
"138 -106 OFFCURVE",
"158 3 CURVE SMOOTH",
"253 538 LINE",
"336 538 LINE",
"348 609 LINE",
"94 609 LINE",
"82 538 LINE",
"165 538 LINE",
"71 9 LINE SMOOTH",
"62 -45 OFFCURVE",
"11 -90 OFFCURVE",
"-55 -116 CURVE"
);
}
);
width = 316;
}
);
leftKerningGroup = "J";
rightKerningGroup = "J";
unicode = 004A;
},
{
glyphname = "K";
layers = (
{
layerId = "5CB93347-76DB-47FB-8F37-014E89A2A0A0";
name = "Regular";
paths = (
{
closed = 1;
nodes = (
"469 0 LINE",
"615 0 LINE",
"628 71 LINE",
"524 71 LINE",
"367 299 LINE",
"631 538 LINE",
"701 538 LINE",
"714 609 LINE",
"457 609 LINE",
"446 539 LINE",
"523 539 LINE",
"264 308 LINE",
"263 302 LINE"
);
},
{
closed = 1;
nodes = (
"-6 0 LINE",
"267 0 LINE",
"280 71 LINE",
"184 71 LINE",
"266 538 LINE",
"354 538 LINE",
"366 609 LINE",
"101 609 LINE",
"88 538 LINE",
"178 538 LINE",
"95 71 LINE",
"6 71 LINE"
);
}
);
width = 672;
}
);
leftKerningGroup = "B";
rightKerningGroup = "K";
unicode = 004B;
},
{
glyphname = "L";
layers = (
{
layerId = "5CB93347-76DB-47FB-8F37-014E89A2A0A0";
name = "Regular";
paths = (
{
closed = 1;
nodes = (
"-6 0 LINE",
"486 0 LINE",
"518 180 LINE",
"436 180 LINE",
"416 71 LINE",
"184 71 LINE",
"266 538 LINE",
"368 538 LINE",
"381 609 LINE",
"101 609 LINE",
"88 538 LINE",
"178 538 LINE",
"95 71 LINE",
"6 71 LINE"
);
}
);
width = 546;
}
);
leftKerningGroup = "B";
rightKerningGroup = "L";
unicode = 004C;
},
{
glyphname = "M";
layers = (
{
layerId = "5CB93347-76DB-47FB-8F37-014E89A2A0A0";
name = "Regular";
paths = (
{
closed = 1;
nodes = (
"-12 0 LINE",
"242 0 LINE",
"254 71 LINE",
"169 71 LINE",
"266 527 LINE",
"380 34 LINE",
"451 34 LINE",
"734 527 LINE",
"671 71 LINE",
"586 71 LINE",
"573 0 LINE",
"824 0 LINE",
"837 71 LINE",
"752 71 LINE",
"817 538 LINE",
"902 538 LINE",
"915 609 LINE",
"689 609 LINE",
"432 151 LINE",
"332 609 LINE",
"112 609 LINE",
"100 538 LINE",
"186 538 LINE",
"86 71 LINE",
"1 71 LINE"
);
}
);
width = 903;
}
);
leftKerningGroup = "M";
rightKerningGroup = "M";
unicode = 004D;
},
{
glyphname = "N";
layers = (
{
layerId = "5CB93347-76DB-47FB-8F37-014E89A2A0A0";
name = "Regular";
paths = (
{
closed = 1;
nodes = (
"-6 0 LINE",
"256 0 LINE",
"269 71 LINE",
"179 71 LINE",
"252 481 LINE",
"504 0 LINE",
"583 0 LINE",
"678 538 LINE",
"767 538 LINE",
"779 609 LINE",
"517 609 LINE",
"505 538 LINE",
"594 538 LINE",
"523 136 LINE",
"276 609 LINE",
"101 609 LINE",
"88 538 LINE",
"178 538 LINE",
"95 71 LINE",
"6 71 LINE"
);
}
);
width = 744;
}
);
leftKerningGroup = "B";
rightKerningGroup = "N";
unicode = 004E;
},
{
glyphname = "O";
layers = (
{
layerId = "5CB93347-76DB-47FB-8F37-014E89A2A0A0";
name = "Regular";
paths = (
{
closed = 1;
nodes = (
"536 -12 OFFCURVE",
"680 151 OFFCURVE",
"680 346 CURVE SMOOTH",
"680 513 OFFCURVE",
"573 621 OFFCURVE",
"401 621 CURVE SMOOTH",
"190 621 OFFCURVE",
"46 458 OFFCURVE",
"46 263 CURVE SMOOTH",
"46 96 OFFCURVE",
"151 -12 OFFCURVE",
"323 -12 CURVE SMOOTH"
);
},
{
closed = 1;
nodes = (
"209 62 OFFCURVE",
"136 136 OFFCURVE",
"136 265 CURVE SMOOTH",
"136 426 OFFCURVE",
"252 547 OFFCURVE",
"399 547 CURVE SMOOTH",
"515 547 OFFCURVE",
"589 472 OFFCURVE",
"589 343 CURVE SMOOTH",
"589 181 OFFCURVE",
"472 62 OFFCURVE",
"325 62 CURVE SMOOTH"
);
}
);
width = 708;
}
);
leftKerningGroup = "C";
rightKerningGroup = "O";
unicode = 004F;
},
{
glyphname = "P";
layers = (
{
layerId = "5CB93347-76DB-47FB-8F37-014E89A2A0A0";
name = "Regular";
paths = (
{
closed = 1;
nodes = (
"-6 0 LINE",
"280 0 LINE",
"292 71 LINE",
"184 71 LINE",
"211 223 LINE",
"313 223 LINE SMOOTH",
"488 223 OFFCURVE",
"586 318 OFFCURVE",
"586 435 CURVE SMOOTH",
"586 550 OFFCURVE",
"499 609 OFFCURVE",
"367 609 CURVE SMOOTH",
"101 609 LINE",
"88 538 LINE",
"178 538 LINE",
"95 71 LINE",
"6 71 LINE"
);
},
{
closed = 1;
nodes = (
"223 294 LINE",
"266 538 LINE",
"363 538 LINE SMOOTH",
"456 538 OFFCURVE",
"496 495 OFFCURVE",
"496 434 CURVE SMOOTH",
"496 363 OFFCURVE",
"444 294 OFFCURVE",
"321 294 CURVE SMOOTH"
);
}
);
width = 582;
}
);
leftKerningGroup = "B";
rightKerningGroup = "P";
unicode = 0050;
},
{
glyphname = "Q";
layers = (
{
layerId = "5CB93347-76DB-47FB-8F37-014E89A2A0A0";
name = "Regular";
paths = (
{
closed = 1;
nodes = (
"465 -145 LINE",
"524 -77 LINE",
"410 -1 LINE",
"573 35 OFFCURVE",
"680 179 OFFCURVE",
"680 346 CURVE SMOOTH",
"680 513 OFFCURVE",
"573 621 OFFCURVE",
"401 621 CURVE SMOOTH",
"190 621 OFFCURVE",
"46 458 OFFCURVE",
"46 263 CURVE SMOOTH",
"46 106 OFFCURVE",
"139 0 OFFCURVE",
"295 -11 CURVE"
);
},
{
closed = 1;
nodes = (
"209 62 OFFCURVE",
"136 136 OFFCURVE",
"136 265 CURVE SMOOTH",
"136 426 OFFCURVE",
"252 547 OFFCURVE",
"399 547 CURVE SMOOTH",
"515 547 OFFCURVE",
"589 472 OFFCURVE",
"589 343 CURVE SMOOTH",
"589 181 OFFCURVE",
"472 62 OFFCURVE",
"325 62 CURVE SMOOTH"
);
}
);
width = 708;
}
);
leftKerningGroup = "C";
rightKerningGroup = "O";
unicode = 0051;
},
{
glyphname = "R";
layers = (
{
layerId = "5CB93347-76DB-47FB-8F37-014E89A2A0A0";
name = "Regular";
paths = (
{
closed = 1;
nodes = (
"-6 0 LINE",
"261 0 LINE",
"273 71 LINE",
"184 71 LINE",
"212 233 LINE",
"334 233 LINE",
"430 0 LINE",
"567 0 LINE",
"579 71 LINE",
"493 71 LINE",
"421 247 LINE",
"525 270 OFFCURVE",
"595 339 OFFCURVE",
"595 438 CURVE SMOOTH",
"595 546 OFFCURVE",
"512 609 OFFCURVE",
"378 609 CURVE SMOOTH",
"101 609 LINE",
"88 538 LINE",
"178 538 LINE",
"95 71 LINE",
"6 71 LINE"
);
},
{
closed = 1;
nodes = (
"225 302 LINE",
"266 538 LINE",
"372 538 LINE SMOOTH",
"467 538 OFFCURVE",
"505 498 OFFCURVE",
"505 437 CURVE SMOOTH",
"505 367 OFFCURVE",
"455 302 OFFCURVE",
"330 302 CURVE SMOOTH"
);
}
);
width = 633;
}
);
leftKerningGroup = "B";
rightKerningGroup = "R";
unicode = 0052;
},
{
glyphname = "S";
layers = (
{
layerId = "5CB93347-76DB-47FB-8F37-014E89A2A0A0";
name = "Regular";
paths = (
{
closed = 1;
nodes = (
"382 -12 OFFCURVE",
"464 54 OFFCURVE",
"464 166 CURVE SMOOTH",
"464 376 OFFCURVE",
"172 322 OFFCURVE",
"172 452 CURVE SMOOTH",
"172 500 OFFCURVE",
"210 550 OFFCURVE",
"313 550 CURVE SMOOTH",
"348 550 OFFCURVE",
"387 544 OFFCURVE",
"416 536 CURVE",
"401 449 LINE",
"482 449 LINE",
"506 588 LINE",
"454 605 OFFCURVE",
"380 621 OFFCURVE",
"311 621 CURVE SMOOTH",
"154 621 OFFCURVE",
"84 539 OFFCURVE",
"84 443 CURVE SMOOTH",
"84 248 OFFCURVE",
"377 302 OFFCURVE",
"377 160 CURVE SMOOTH",
"377 100 OFFCURVE",
"326 59 OFFCURVE",
"224 59 CURVE SMOOTH",
"179 59 OFFCURVE",
"135 67 OFFCURVE",
"99 77 CURVE",
"115 164 LINE",
"35 164 LINE",
"10 22 LINE",
"67 3 OFFCURVE",
"150 -12 OFFCURVE",
"226 -12 CURVE SMOOTH"
);
}
);
width = 519;
}
);
leftKerningGroup = "S";
rightKerningGroup = "S";
unicode = 0053;
},
{
glyphname = "T";
layers = (
{
layerId = "5CB93347-76DB-47FB-8F37-014E89A2A0A0";
name = "Regular";
paths = (
{
closed = 1;
nodes = (
"104 0 LINE",
"385 0 LINE",
"398 71 LINE",
"301 71 LINE",
"384 538 LINE",
"529 538 LINE",
"512 437 LINE",
"592 437 LINE",
"622 609 LINE",
"82 609 LINE",
"52 437 LINE",
"132 437 LINE",
"149 538 LINE",
"295 538 LINE",
"213 71 LINE",
"117 71 LINE"
);
}
);
width = 580;
}
);
leftKerningGroup = "T";
rightKerningGroup = "T";
unicode = 0054;
},
{
glyphname = "U";
layers = (
{
layerId = "5CB93347-76DB-47FB-8F37-014E89A2A0A0";
name = "Regular";
paths = (
{
closed = 1;
nodes = (
"448 -12 OFFCURVE",
"546 68 OFFCURVE",
"572 213 CURVE SMOOTH",
"629 538 LINE",
"719 538 LINE",
"731 609 LINE",
"466 609 LINE",
"454 538 LINE",
"546 538 LINE",
"488 215 LINE SMOOTH",
"471 115 OFFCURVE",
"398 66 OFFCURVE",
"310 66 CURVE SMOOTH",
"220 66 OFFCURVE",
"166 117 OFFCURVE",
"184 216 CURVE SMOOTH",
"241 538 LINE",
"331 538 LINE",
"343 609 LINE",
"76 609 LINE",
"64 538 LINE",
"153 538 LINE",
"99 232 LINE SMOOTH",
"72 79 OFFCURVE",
"162 -12 OFFCURVE",
"310 -12 CURVE SMOOTH"
);
}
);
width = 688;
}
);
leftKerningGroup = "U";
rightKerningGroup = "U";
unicode = 0055;
},
{
glyphname = "V";
layers = (
{
layerId = "5CB93347-76DB-47FB-8F37-014E89A2A0A0";
name = "Regular";
paths = (
{
closed = 1;
nodes = (
"235 0 LINE",
"324 0 LINE",
"629 538 LINE",
"708 538 LINE",
"720 609 LINE",
"457 609 LINE",
"445 538 LINE",
"536 538 LINE",
"297 104 LINE",
"207 538 LINE",
"299 538 LINE",
"311 609 LINE",
"54 609 LINE",
"41 538 LINE",
"120 538 LINE"
);
}
);
width = 656;
}
);
leftKerningGroup = "V";
rightKerningGroup = "V";
unicode = 0056;
},
{
glyphname = "W";
layers = (
{
layerId = "5CB93347-76DB-47FB-8F37-014E89A2A0A0";
name = "Regular";
paths = (
{
closed = 1;
nodes = (
"197 0 LINE",
"284 0 LINE",
"486 373 LINE",
"553 0 LINE",
"639 0 LINE",
"902 538 LINE",
"978 538 LINE",
"991 609 LINE",
"736 609 LINE",
"723 538 LINE",
"817 538 LINE",
"610 109 LINE",
"541 538 LINE",
"636 538 LINE",
"648 609 LINE",
"388 609 LINE",
"376 538 LINE",
"457 538 LINE",
"465 490 LINE",
"261 107 LINE",
"201 538 LINE",
"295 538 LINE",
"308 609 LINE",
"56 609 LINE",
"44 538 LINE",
"119 538 LINE"
);
}
);
width = 930;
}
);
leftKerningGroup = "W";
rightKerningGroup = "W";
unicode = 0057;
},
{
glyphname = "X";
layers = (
{
layerId = "5CB93347-76DB-47FB-8F37-014E89A2A0A0";
name = "Regular";
paths = (
{
closed = 1;
nodes = (
"-36 0 LINE",
"231 0 LINE",
"244 69 LINE",
"157 69 LINE",
"325 248 LINE",
"429 69 LINE",
"343 69 LINE",
"330 0 LINE",
"585 0 LINE",
"598 69 LINE",
"523 69 LINE",
"383 306 LINE",
"605 539 LINE",
"680 539 LINE",
"692 609 LINE",
"427 609 LINE",
"416 540 LINE",
"501 540 LINE",
"343 372 LINE",
"248 540 LINE",
"334 540 LINE",
"346 609 LINE",
"89 609 LINE",
"78 539 LINE",
"152 539 LINE",
"285 314 LINE",
"52 70 LINE",
"-23 70 LINE"
);
}
);
width = 648;
}
);
leftKerningGroup = "X";
rightKerningGroup = "X";
unicode = 0058;
},
{
glyphname = "Y";
layers = (
{
layerId = "5CB93347-76DB-47FB-8F37-014E89A2A0A0";
name = "Regular";
paths = (
{
closed = 1;
nodes = (
"131 0 LINE",
"403 0 LINE",
"416 71 LINE",
"324 71 LINE",
"351 222 LINE",
"604 538 LINE",
"680 538 LINE",
"692 609 LINE",
"423 609 LINE",
"411 539 LINE",
"504 539 LINE",
"314 298 LINE",
"209 539 LINE",
"303 539 LINE",
"316 609 LINE",
"54 609 LINE",
"41 538 LINE",
"119 538 LINE",
"262 219 LINE",
"236 71 LINE",
"144 71 LINE"
);
}
);
width = 629;
}
);
leftKerningGroup = "Y";
rightKerningGroup = "Y";
unicode = 0059;
},
{
glyphname = "Z";
layers = (
{
layerId = "5CB93347-76DB-47FB-8F37-014E89A2A0A0";
name = "Regular";
paths = (
{
closed = 1;
nodes = (
"18 0 LINE",
"492 0 LINE",
"524 185 LINE",
"442 185 LINE",
"423 74 LINE",
"137 74 LINE",
"586 570 LINE",
"561 609 LINE",
"106 609 LINE",
"75 430 LINE",
"157 430 LINE",
"175 535 LINE",
"442 535 LINE",
"-3 43 LINE"
);
}
);
width = 575;
}
);
leftKerningGroup = "Z";
rightKerningGroup = "Z";
unicode = 005A;
},
{
glyphname = "a";
layers = (
{
layerId = "5CB93347-76DB-47FB-8F37-014E89A2A0A0";
name = "Regular";
paths = (
{
closed = 1;
nodes = (
"253 -11 OFFCURVE",
"306 20 OFFCURVE",
"343 66 CURVE",
"345 19 OFFCURVE",
"371 -10 OFFCURVE",
"430 -10 CURVE SMOOTH",
"454 -10 OFFCURVE",
"479 -5 OFFCURVE",
"498 1 CURVE",
"510 67 LINE",
"496 62 OFFCURVE",
"476 56 OFFCURVE",
"458 56 CURVE SMOOTH",
"429 56 OFFCURVE",
"419 71 OFFCURVE",
"425 102 CURVE SMOOTH",
"482 428 LINE",
"397 428 LINE",
"384 358 LINE",
"360 406 OFFCURVE",
"315 439 OFFCURVE",
"249 439 CURVE SMOOTH",
"129 439 OFFCURVE",
"25 336 OFFCURVE",
"25 184 CURVE SMOOTH",
"25 57 OFFCURVE",
"97 -11 OFFCURVE",
"190 -11 CURVE SMOOTH"
);
},
{
closed = 1;
nodes = (
"153 55 OFFCURVE",
"113 103 OFFCURVE",
"113 185 CURVE SMOOTH",
"113 290 OFFCURVE",
"178 373 OFFCURVE",
"264 373 CURVE SMOOTH",
"331 373 OFFCURVE",
"368 322 OFFCURVE",
"368 244 CURVE SMOOTH",
"368 143 OFFCURVE",
"304 55 OFFCURVE",
"217 55 CURVE SMOOTH"
);
}
);
width = 542;
}
);
leftKerningGroup = "a";
rightKerningGroup = "a";
unicode = 0061;
},
{
glyphname = "b";
layers = (
{
layerId = "5CB93347-76DB-47FB-8F37-014E89A2A0A0";
name = "Regular";
paths = (
{
closed = 1;
nodes = (
"374 -11 OFFCURVE",
"477 92 OFFCURVE",
"477 244 CURVE SMOOTH",
"477 371 OFFCURVE",
"405 439 OFFCURVE",
"312 439 CURVE SMOOTH",
"255 439 OFFCURVE",
"208 413 OFFCURVE",
"171 374 CURVE",
"231 707 LINE",
"76 707 LINE",
"63 639 LINE",
"133 639 LINE",
"20 0 LINE",
"100 0 LINE",
"114 77 LINE",
"137 25 OFFCURVE",
"183 -11 OFFCURVE",
"254 -11 CURVE SMOOTH"
);
},
{
closed = 1;
nodes = (
"171 55 OFFCURVE",
"134 106 OFFCURVE",
"134 184 CURVE SMOOTH",
"134 285 OFFCURVE",
"196 373 OFFCURVE",
"285 373 CURVE SMOOTH",
"351 373 OFFCURVE",
"390 325 OFFCURVE",
"390 242 CURVE SMOOTH",
"390 138 OFFCURVE",
"327 55 OFFCURVE",
"240 55 CURVE SMOOTH"
);
}
);
width = 517;
}
);
leftKerningGroup = "b";
rightKerningGroup = "b";
unicode = 0062;
},
{
glyphname = "c";
layers = (
{
layerId = "5CB93347-76DB-47FB-8F37-014E89A2A0A0";
name = "Regular";
paths = (
{
closed = 1;
nodes = (
"265 -11 OFFCURVE",
"313 -1 OFFCURVE",
"342 8 CURVE",
"354 77 LINE",
"326 66 OFFCURVE",
"279 55 OFFCURVE",
"240 55 CURVE SMOOTH",
"155 55 OFFCURVE",
"113 106 OFFCURVE",
"113 188 CURVE SMOOTH",
"113 284 OFFCURVE",
"169 373 OFFCURVE",
"280 373 CURVE SMOOTH",
"321 373 OFFCURVE",
"361 361 OFFCURVE",
"388 349 CURVE",
"401 414 LINE",
"370 427 OFFCURVE",
"321 439 OFFCURVE",
"271 439 CURVE SMOOTH",
"110 439 OFFCURVE",
"25 317 OFFCURVE",
"25 183 CURVE SMOOTH",
"25 58 OFFCURVE",
"100 -11 OFFCURVE",
"221 -11 CURVE SMOOTH"
);
}
);
width = 409;
}
);
leftKerningGroup = "c";
rightKerningGroup = "c";
unicode = 0063;
},
{
glyphname = "d";
layers = (
{
layerId = "5CB93347-76DB-47FB-8F37-014E89A2A0A0";
name = "Regular";
paths = (
{
closed = 1;
nodes = (
"253 -11 OFFCURVE",
"306 20 OFFCURVE",
"343 66 CURVE",
"345 20 OFFCURVE",
"368 -10 OFFCURVE",
"429 -10 CURVE SMOOTH",
"454 -10 OFFCURVE",
"479 -5 OFFCURVE",
"498 1 CURVE",
"510 67 LINE",
"496 62 OFFCURVE",
"476 56 OFFCURVE",
"458 56 CURVE SMOOTH",
"430 56 OFFCURVE",
"419 70 OFFCURVE",
"425 102 CURVE SMOOTH",
"531 707 LINE",
"358 707 LINE",
"346 639 LINE",
"434 639 LINE",
"384 359 LINE",
"359 406 OFFCURVE",
"315 439 OFFCURVE",
"249 439 CURVE SMOOTH",
"129 439 OFFCURVE",
"25 336 OFFCURVE",
"25 184 CURVE SMOOTH",
"25 57 OFFCURVE",
"97 -11 OFFCURVE",
"190 -11 CURVE SMOOTH"
);
},
{
closed = 1;
nodes = (
"153 55 OFFCURVE",
"113 103 OFFCURVE",
"113 185 CURVE SMOOTH",
"113 290 OFFCURVE",
"178 373 OFFCURVE",
"264 373 CURVE SMOOTH",
"331 373 OFFCURVE",
"368 322 OFFCURVE",
"368 244 CURVE SMOOTH",
"368 143 OFFCURVE",
"304 55 OFFCURVE",
"217 55 CURVE SMOOTH"
);
}
);
width = 542;
}
);
leftKerningGroup = "d";
rightKerningGroup = "d";
unicode = 0064;
},
{
glyphname = "e";
layers = (
{
layerId = "5CB93347-76DB-47FB-8F37-014E89A2A0A0";
name = "Regular";
paths = (
{
closed = 1;
nodes = (
"271 -11 OFFCURVE",
"319 3 OFFCURVE",
"353 21 CURVE",
"367 92 LINE",
"326 73 OFFCURVE",
"279 56 OFFCURVE",
"229 56 CURVE SMOOTH",
"157 56 OFFCURVE",
"114 90 OFFCURVE",
"109 169 CURVE",
"250 176 OFFCURVE",
"396 214 OFFCURVE",
"396 330 CURVE SMOOTH",
"396 394 OFFCURVE",
"351 439 OFFCURVE",
"265 439 CURVE SMOOTH",
"131 439 OFFCURVE",
"24 330 OFFCURVE",
"24 181 CURVE SMOOTH",
"24 50 OFFCURVE",
"107 -11 OFFCURVE",
"218 -11 CURVE SMOOTH"
);
},
{
closed = 1;
nodes = (
"131 316 OFFCURVE",
"190 375 OFFCURVE",
"261 375 CURVE SMOOTH",
"303 375 OFFCURVE",
"317 353 OFFCURVE",
"317 328 CURVE SMOOTH",
"317 262 OFFCURVE",
"214 237 OFFCURVE",
"113 233 CURVE"
);
}
);
width = 427;
}
);
leftKerningGroup = "c";
rightKerningGroup = "e";
unicode = 0065;
},
{
glyphname = "f";
layers = (
{
layerId = "5CB93347-76DB-47FB-8F37-014E89A2A0A0";
name = "Regular";
paths = (
{
closed = 1;
nodes = (
"43 -210 OFFCURVE",
"100 -171 OFFCURVE",
"119 -68 CURVE SMOOTH",
"194 358 LINE",
"311 358 LINE",
"324 428 LINE",
"206 428 LINE",
"231 566 LINE SMOOTH",
"242 629 OFFCURVE",
"277 650 OFFCURVE",
"333 650 CURVE SMOOTH",
"351 650 OFFCURVE",
"370 647 OFFCURVE",
"385 645 CURVE",
"397 710 LINE",
"374 714 OFFCURVE",
"349 718 OFFCURVE",
"320 718 CURVE SMOOTH",
"224 718 OFFCURVE",
"164 675 OFFCURVE",
"145 568 CURVE SMOOTH",
"120 428 LINE",
"37 428 LINE",
"24 358 LINE",
"108 358 LINE",
"33 -71 LINE SMOOTH",
"22 -131 OFFCURVE",
"-10 -142 OFFCURVE",
"-45 -142 CURVE SMOOTH",
"-62 -142 OFFCURVE",
"-81 -139 OFFCURVE",
"-93 -136 CURVE",
"-105 -203 LINE",
"-88 -207 OFFCURVE",
"-64 -210 OFFCURVE",
"-40 -210 CURVE SMOOTH"
);
}
);
width = 303;
}
);
leftKerningGroup = "f";
rightKerningGroup = "f";
unicode = 0066;
},
{
glyphname = "g";
layers = (
{
layerId = "5CB93347-76DB-47FB-8F37-014E89A2A0A0";
name = "Regular";
paths = (
{
closed = 1;
nodes = (
"310 -210 OFFCURVE",
"351 -138 OFFCURVE",
"351 -87 CURVE SMOOTH",
"351 -27 OFFCURVE",
"298 6 OFFCURVE",
"243 30 CURVE SMOOTH",
"188 55 OFFCURVE",
"134 71 OFFCURVE",
"134 96 CURVE SMOOTH",
"134 103 OFFCURVE",
"139 111 OFFCURVE",
"148 120 CURVE",
"165 115 OFFCURVE",
"183 113 OFFCURVE",
"202 113 CURVE SMOOTH",
"319 113 OFFCURVE",
"397 201 OFFCURVE",
"397 297 CURVE SMOOTH",
"397 323 OFFCURVE",
"390 345 OFFCURVE",
"379 363 CURVE",
"454 360 LINE",
"467 428 LINE",
"304 428 LINE",
"284 435 OFFCURVE",
"261 439 OFFCURVE",
"237 439 CURVE SMOOTH",
"120 439 OFFCURVE",
"42 351 OFFCURVE",
"42 255 CURVE SMOOTH",
"42 204 OFFCURVE",
"63 166 OFFCURVE",
"98 142 CURVE",
"76 124 OFFCURVE",
"59 102 OFFCURVE",
"59 74 CURVE SMOOTH",
"59 62 OFFCURVE",
"62 52 OFFCURVE",
"69 43 CURVE",
"17 20 OFFCURVE",
"-70 -23 OFFCURVE",
"-70 -99 CURVE SMOOTH",
"-70 -151 OFFCURVE",
"-28 -210 OFFCURVE",
"133 -210 CURVE SMOOTH"
);
},
{
closed = 1;
nodes = (
"290 377 OFFCURVE",
"317 344 OFFCURVE",
"317 297 CURVE SMOOTH",
"317 233 OFFCURVE",
"271 175 OFFCURVE",
"201 175 CURVE SMOOTH",
"149 175 OFFCURVE",
"122 207 OFFCURVE",
"122 255 CURVE SMOOTH",
"122 318 OFFCURVE",
"167 377 OFFCURVE",
"238 377 CURVE SMOOTH"
);
},
{
closed = 1;
nodes = (
"44 -145 OFFCURVE",
"13 -117 OFFCURVE",
"13 -87 CURVE SMOOTH",
"13 -45 OFFCURVE",
"70 -14 OFFCURVE",
"112 5 CURVE",
"130 -5 OFFCURVE",
"152 -14 OFFCURVE",
"173 -23 CURVE SMOOTH",
"233 -48 OFFCURVE",
"267 -68 OFFCURVE",
"267 -92 CURVE SMOOTH",
"267 -116 OFFCURVE",
"235 -145 OFFCURVE",
"138 -145 CURVE SMOOTH"
);
}
);
width = 450;
}
);
leftKerningGroup = "g";
rightKerningGroup = "g";
unicode = 0067;
},
{
glyphname = "h";
layers = (
{
layerId = "5CB93347-76DB-47FB-8F37-014E89A2A0A0";
name = "Regular";
paths = (
{
closed = 1;
nodes = (
"20 0 LINE",
"106 0 LINE",
"157 288 LINE",
"199 326 OFFCURVE",
"257 370 OFFCURVE",
"309 370 CURVE SMOOTH",
"356 370 OFFCURVE",
"366 336 OFFCURVE",
"358 289 CURVE SMOOTH",
"326 107 LINE SMOOTH",
"315 45 OFFCURVE",
"332 -10 OFFCURVE",
"414 -10 CURVE SMOOTH",
"440 -10 OFFCURVE",
"464 -5 OFFCURVE",
"483 1 CURVE",
"495 67 LINE",
"481 62 OFFCURVE",
"461 56 OFFCURVE",
"443 56 CURVE SMOOTH",
"415 56 OFFCURVE",
"404 70 OFFCURVE",
"410 102 CURVE SMOOTH",
"443 294 LINE SMOOTH",
"459 385 OFFCURVE",
"412 439 OFFCURVE",
"337 439 CURVE SMOOTH",
"274 439 OFFCURVE",
"214 400 OFFCURVE",
"170 364 CURVE",
"231 707 LINE",
"69 707 LINE",
"57 639 LINE",
"133 639 LINE"
);
}
);
width = 525;
}
);
leftKerningGroup = "h";
rightKerningGroup = "h";
unicode = 0068;
},
{
glyphname = "i";
layers = (
{
layerId = "5CB93347-76DB-47FB-8F37-014E89A2A0A0";
name = "Regular";
paths = (
{
closed = 1;
nodes = (
"172 -10 OFFCURVE",
"197 -5 OFFCURVE",
"216 1 CURVE",
"227 67 LINE",
"213 62 OFFCURVE",
"194 56 OFFCURVE",
"175 56 CURVE SMOOTH",
"148 56 OFFCURVE",
"137 70 OFFCURVE",
"142 102 CURVE SMOOTH",
"200 428 LINE",
"39 428 LINE",
"27 359 LINE",
"102 359 LINE",
"58 107 LINE SMOOTH",
"47 44 OFFCURVE",
"65 -10 OFFCURVE",
"147 -10 CURVE SMOOTH"
);
},
{
closed = 1;
nodes = (
"207 516 OFFCURVE",
"235 543 OFFCURVE",
"235 576 CURVE SMOOTH",
"235 609 OFFCURVE",
"207 636 OFFCURVE",
"174 636 CURVE SMOOTH",
"142 636 OFFCURVE",
"114 609 OFFCURVE",
"114 576 CURVE SMOOTH",
"114 543 OFFCURVE",
"142 516 OFFCURVE",
"174 516 CURVE SMOOTH"
);
}
);
width = 262;
}
);
leftKerningGroup = "i";
rightKerningGroup = "i";
unicode = 0069;
},
{
glyphname = "j";
layers = (
{
layerId = "5CB93347-76DB-47FB-8F37-014E89A2A0A0";
name = "Regular";
paths = (
{
closed = 1;
nodes = (
"212 516 OFFCURVE",
"239 543 OFFCURVE",
"239 576 CURVE SMOOTH",
"239 609 OFFCURVE",
"212 636 OFFCURVE",
"179 636 CURVE SMOOTH",
"146 636 OFFCURVE",
"119 609 OFFCURVE",
"119 576 CURVE SMOOTH",
"119 543 OFFCURVE",
"146 516 OFFCURVE",
"179 516 CURVE SMOOTH"
);
},
{
closed = 1;
nodes = (
"41 -210 OFFCURVE",
"99 -171 OFFCURVE",
"117 -68 CURVE SMOOTH",
"205 428 LINE",
"39 428 LINE",
"26 359 LINE",
"107 359 LINE",
"31 -71 LINE SMOOTH",
"21 -131 OFFCURVE",
"-12 -142 OFFCURVE",
"-43 -142 CURVE SMOOTH",
"-59 -142 OFFCURVE",
"-73 -139 OFFCURVE",
"-87 -134 CURVE",
"-99 -200 LINE",
"-82 -205 OFFCURVE",
"-62 -210 OFFCURVE",
"-36 -210 CURVE SMOOTH"
);
}
);
width = 239;
}
);
leftKerningGroup = "j";
rightKerningGroup = "j";
unicode = 006A;
},
{
glyphname = "k";
layers = (
{
layerId = "5CB93347-76DB-47FB-8F37-014E89A2A0A0";
name = "Regular";
paths = (
{
closed = 1;
nodes = (
"20 0 LINE",
"106 0 LINE",
"159 302 LINE",
"197 334 OFFCURVE",
"251 371 OFFCURVE",
"302 371 CURVE SMOOTH",
"336 371 OFFCURVE",
"355 354 OFFCURVE",
"355 326 CURVE SMOOTH",
"355 262 OFFCURVE",
"261 225 OFFCURVE",
"191 219 CURVE",
"185 186 LINE",
"254 64 LINE SMOOTH",
"282 15 OFFCURVE",
"316 -11 OFFCURVE",
"365 -11 CURVE SMOOTH",
"392 -11 OFFCURVE",
"413 -3 OFFCURVE",
"432 8 CURVE",
"445 77 LINE",
"428 68 OFFCURVE",
"405 56 OFFCURVE",
"383 56 CURVE SMOOTH",
"353 56 OFFCURVE",
"338 80 OFFCURVE",
"326 99 CURVE SMOOTH",
"277 181 LINE",
"358 200 OFFCURVE",
"439 251 OFFCURVE",
"439 334 CURVE SMOOTH",
"439 400 OFFCURVE",
"390 439 OFFCURVE",
"323 439 CURVE SMOOTH",
"266 439 OFFCURVE",
"215 411 OFFCURVE",
"171 374 CURVE",
"231 707 LINE",
"76 707 LINE",
"63 639 LINE",
"133 639 LINE"
);
}
);
width = 491;
}
);
leftKerningGroup = "h";
rightKerningGroup = "k";
unicode = 006B;
},
{
glyphname = "l";
layers = (
{
layerId = "5CB93347-76DB-47FB-8F37-014E89A2A0A0";
name = "Regular";
paths = (
{
closed = 1;
nodes = (
"149 -10 OFFCURVE",
"174 -5 OFFCURVE",
"193 1 CURVE",
"204 67 LINE",
"190 62 OFFCURVE",
"170 56 OFFCURVE",
"152 56 CURVE SMOOTH",
"124 56 OFFCURVE",
"114 70 OFFCURVE",
"119 102 CURVE SMOOTH",
"226 707 LINE",
"65 707 LINE",
"52 639 LINE",
"128 639 LINE",
"34 107 LINE SMOOTH",
"24 44 OFFCURVE",
"42 -10 OFFCURVE",
"124 -10 CURVE SMOOTH"
);
}
);
width = 240;
}
);
leftKerningGroup = "l";
rightKerningGroup = "l";
unicode = 006C;
},
{
glyphname = "m";
layers = (
{
layerId = "5CB93347-76DB-47FB-8F37-014E89A2A0A0";
name = "Regular";
paths = (
{
closed = 1;
nodes = (
"43 0 LINE",
"128 0 LINE",
"181 299 LINE",
"218 333 OFFCURVE",
"265 370 OFFCURVE",
"311 370 CURVE SMOOTH",
"350 370 OFFCURVE",
"364 342 OFFCURVE",
"356 298 CURVE SMOOTH",
"304 0 LINE",
"389 0 LINE",
"441 301 LINE",
"478 335 OFFCURVE",
"525 370 OFFCURVE",
"570 370 CURVE SMOOTH",
"609 370 OFFCURVE",
"623 342 OFFCURVE",
"615 298 CURVE SMOOTH",
"582 107 LINE SMOOTH",
"571 45 OFFCURVE",
"589 -10 OFFCURVE",
"670 -10 CURVE SMOOTH",
"696 -10 OFFCURVE",
"721 -5 OFFCURVE",
"740 1 CURVE",
"751 67 LINE",
"737 62 OFFCURVE",
"717 56 OFFCURVE",
"700 56 CURVE SMOOTH",
"671 56 OFFCURVE",
"661 70 OFFCURVE",
"666 102 CURVE SMOOTH",
"701 301 LINE SMOOTH",
"717 392 OFFCURVE",
"668 439 OFFCURVE",
"599 439 CURVE SMOOTH",
"532 439 OFFCURVE",
"478 396 OFFCURVE",
"441 361 CURVE",
"430 412 OFFCURVE",
"391 439 OFFCURVE",
"338 439 CURVE SMOOTH",
"276 439 OFFCURVE",
"225 402 OFFCURVE",
"189 369 CURVE",
"200 428 LINE",
"45 428 LINE",
"33 359 LINE",
"107 359 LINE"
);
}
);
width = 782;
}
);
leftKerningGroup = "m";
rightKerningGroup = "h";
unicode = 006D;
},
{
glyphname = "n";
layers = (
{
layerId = "5CB93347-76DB-47FB-8F37-014E89A2A0A0";
name = "Regular";
paths = (
{
closed = 1;
nodes = (
"43 0 LINE",
"129 0 LINE",
"180 288 LINE",
"222 326 OFFCURVE",
"279 370 OFFCURVE",
"331 370 CURVE SMOOTH",
"378 370 OFFCURVE",
"389 336 OFFCURVE",
"380 289 CURVE SMOOTH",
"348 107 LINE SMOOTH",
"337 45 OFFCURVE",
"355 -10 OFFCURVE",
"436 -10 CURVE SMOOTH",
"462 -10 OFFCURVE",
"487 -5 OFFCURVE",
"506 1 CURVE",
"517 67 LINE",
"503 62 OFFCURVE",
"483 56 OFFCURVE",
"465 56 CURVE SMOOTH",
"437 56 OFFCURVE",
"426 70 OFFCURVE",
"432 102 CURVE SMOOTH",
"466 294 LINE SMOOTH",
"482 385 OFFCURVE",
"434 439 OFFCURVE",
"359 439 CURVE SMOOTH",
"295 439 OFFCURVE",
"234 399 OFFCURVE",
"190 362 CURVE",
"202 428 LINE",
"45 428 LINE",
"33 359 LINE",
"107 359 LINE"
);
}
);
width = 548;
}
);
leftKerningGroup = "m";
rightKerningGroup = "h";
unicode = 006E;
},
{
glyphname = "o";
layers = (
{
layerId = "5CB93347-76DB-47FB-8F37-014E89A2A0A0";
name = "Regular";
paths = (
{
closed = 1;
nodes = (
"367 -11 OFFCURVE",
"460 107 OFFCURVE",
"460 246 CURVE SMOOTH",
"460 371 OFFCURVE",
"384 439 OFFCURVE",
"269 439 CURVE SMOOTH",
"116 439 OFFCURVE",
"24 320 OFFCURVE",
"24 182 CURVE SMOOTH",
"24 57 OFFCURVE",
"100 -11 OFFCURVE",
"215 -11 CURVE SMOOTH"
);
},
{
closed = 1;
nodes = (
"147 55 OFFCURVE",
"113 106 OFFCURVE",
"113 182 CURVE SMOOTH",
"113 281 OFFCURVE",
"174 372 OFFCURVE",
"267 372 CURVE SMOOTH",
"337 372 OFFCURVE",
"371 321 OFFCURVE",
"371 246 CURVE SMOOTH",
"371 147 OFFCURVE",
"310 55 OFFCURVE",
"217 55 CURVE SMOOTH"
);
}
);
width = 499;
}
);
leftKerningGroup = "c";
rightKerningGroup = "o";
unicode = 006F;
},
{
glyphname = "p";
layers = (
{
layerId = "5CB93347-76DB-47FB-8F37-014E89A2A0A0";
name = "Regular";
paths = (
{
closed = 1;
nodes = (
"398 -11 OFFCURVE",
"500 92 OFFCURVE",
"500 244 CURVE SMOOTH",
"500 371 OFFCURVE",
"428 439 OFFCURVE",
"335 439 CURVE SMOOTH",
"274 439 OFFCURVE",
"224 410 OFFCURVE",
"187 366 CURVE",
"197 428 LINE",
"47 428 LINE",
"35 359 LINE",
"107 359 LINE",
"8 -199 LINE",
"94 -199 LINE",
"141 69 LINE",
"165 21 OFFCURVE",
"210 -11 OFFCURVE",
"277 -11 CURVE SMOOTH"
);
},
{
closed = 1;
nodes = (
"194 55 OFFCURVE",
"157 106 OFFCURVE",
"157 183 CURVE SMOOTH",
"157 285 OFFCURVE",
"221 373 OFFCURVE",
"308 373 CURVE SMOOTH",
"373 373 OFFCURVE",
"413 325 OFFCURVE",
"413 243 CURVE SMOOTH",
"413 138 OFFCURVE",
"348 55 OFFCURVE",
"262 55 CURVE SMOOTH"
);
}
);
width = 541;
}
);
leftKerningGroup = "p";
rightKerningGroup = "b";
unicode = 0070;
},
{
glyphname = "q";
layers = (
{
layerId = "5CB93347-76DB-47FB-8F37-014E89A2A0A0";
name = "Regular";
paths = (
{
closed = 1;
nodes = (
"246 -11 OFFCURVE",
"294 14 OFFCURVE",
"330 53 CURVE",
"286 -199 LINE",
"449 -199 LINE",
"461 -131 LINE",
"385 -131 LINE",
"482 428 LINE",
"403 428 LINE",
"389 350 LINE",
"365 402 OFFCURVE",
"319 439 OFFCURVE",
"248 439 CURVE SMOOTH",
"128 439 OFFCURVE",
"25 336 OFFCURVE",
"25 184 CURVE SMOOTH",
"25 57 OFFCURVE",
"97 -11 OFFCURVE",
"191 -11 CURVE SMOOTH"
);
},
{
closed = 1;
nodes = (
"152 55 OFFCURVE",
"113 103 OFFCURVE",
"113 186 CURVE SMOOTH",
"113 290 OFFCURVE",
"175 373 OFFCURVE",
"263 373 CURVE SMOOTH",
"332 373 OFFCURVE",
"368 322 OFFCURVE",
"368 243 CURVE SMOOTH",
"368 143 OFFCURVE",
"307 55 OFFCURVE",
"218 55 CURVE SMOOTH"
);
}
);
width = 517;
}
);
leftKerningGroup = "d";
rightKerningGroup = "q";
unicode = 0071;
},
{
glyphname = "r";
layers = (
{
layerId = "5CB93347-76DB-47FB-8F37-014E89A2A0A0";
name = "Regular";
paths = (
{
closed = 1;
nodes = (
"43 0 LINE",
"129 0 LINE",
"178 279 LINE",
"204 307 OFFCURVE",
"259 365 OFFCURVE",
"307 365 CURVE SMOOTH",
"326 365 OFFCURVE",
"333 355 OFFCURVE",
"333 339 CURVE SMOOTH",
"333 326 OFFCURVE",
"329 310 OFFCURVE",
"325 298 CURVE",
"402 293 LINE",
"410 314 OFFCURVE",
"416 340 OFFCURVE",
"416 364 CURVE SMOOTH",
"416 418 OFFCURVE",
"383 439 OFFCURVE",
"342 439 CURVE SMOOTH",
"281 439 OFFCURVE",
"227 395 OFFCURVE",
"188 351 CURVE",
"202 428 LINE",
"46 428 LINE",
"33 359 LINE",
"107 359 LINE"
);
}
);
width = 412;
}
);
leftKerningGroup = "m";
rightKerningGroup = "r";
unicode = 0072;
},
{
glyphname = "s";
layers = (
{
layerId = "5CB93347-76DB-47FB-8F37-014E89A2A0A0";
name = "Regular";
paths = (
{
closed = 1;
nodes = (
"284 -11 OFFCURVE",
"323 63 OFFCURVE",
"323 123 CURVE SMOOTH",
"323 261 OFFCURVE",
"128 240 OFFCURVE",
"128 321 CURVE SMOOTH",
"128 346 OFFCURVE",
"146 375 OFFCURVE",
"213 375 CURVE SMOOTH",
"255 375 OFFCURVE",
"296 364 OFFCURVE",
"328 353 CURVE",
"339 415 LINE",
"305 427 OFFCURVE",
"259 439 OFFCURVE",
"209 439 CURVE SMOOTH",
"96 439 OFFCURVE",
"44 378 OFFCURVE",
"44 309 CURVE SMOOTH",
"44 174 OFFCURVE",
"238 194 OFFCURVE",
"238 112 CURVE SMOOTH",
"238 80 OFFCURVE",
"210 54 OFFCURVE",
"145 54 CURVE SMOOTH",
"101 54 OFFCURVE",
"51 66 OFFCURVE",
"12 82 CURVE",
"1 18 LINE",
"41 0 OFFCURVE",
"93 -11 OFFCURVE",
"146 -11 CURVE SMOOTH"
);
}
);
width = 372;
}
);
leftKerningGroup = "s";
rightKerningGroup = "s";
unicode = 0073;
},
{
glyphname = "t";
layers = (
{
layerId = "5CB93347-76DB-47FB-8F37-014E89A2A0A0";
name = "Regular";
paths = (
{
closed = 1;
nodes = (
"207 -11 OFFCURVE",
"244 0 OFFCURVE",
"269 12 CURVE",
"281 77 LINE",
"261 70 OFFCURVE",
"231 56 OFFCURVE",
"194 56 CURVE SMOOTH",
"156 56 OFFCURVE",
"136 72 OFFCURVE",
"143 114 CURVE SMOOTH",
"186 360 LINE",
"309 360 LINE",
"322 428 LINE",
"197 428 LINE",
"217 538 LINE",
"131 538 LINE",
"112 428 LINE",
"39 428 LINE",
"27 360 LINE",
"100 360 LINE",
"58 119 LINE SMOOTH",
"42 32 OFFCURVE",
"91 -11 OFFCURVE",
"166 -11 CURVE SMOOTH"
);
}
);
width = 323;
}
);
leftKerningGroup = "t";
rightKerningGroup = "t";
unicode = 0074;
},
{
glyphname = "u";
layers = (
{
layerId = "5CB93347-76DB-47FB-8F37-014E89A2A0A0";
name = "Regular";
paths = (
{
closed = 1;
nodes = (
"232 -11 OFFCURVE",
"294 29 OFFCURVE",
"338 67 CURVE",
"341 21 OFFCURVE",
"368 -10 OFFCURVE",
"429 -10 CURVE SMOOTH",
"454 -10 OFFCURVE",
"479 -5 OFFCURVE",
"498 1 CURVE",
"509 63 LINE",
"495 58 OFFCURVE",
"475 52 OFFCURVE",
"458 52 CURVE SMOOTH",
"428 52 OFFCURVE",
"418 67 OFFCURVE",
"424 99 CURVE SMOOTH",
"482 428 LINE",
"397 428 LINE",
"345 139 LINE",
"302 101 OFFCURVE",
"246 58 OFFCURVE",
"194 58 CURVE SMOOTH",
"148 58 OFFCURVE",
"137 92 OFFCURVE",
"146 139 CURVE SMOOTH",
"197 428 LINE",
"38 428 LINE",
"26 359 LINE",
"100 359 LINE",
"60 134 LINE SMOOTH",
"44 43 OFFCURVE",
"91 -11 OFFCURVE",
"167 -11 CURVE SMOOTH"
);
}
);
width = 542;
}
);
leftKerningGroup = "u";
rightKerningGroup = "u";
unicode = 0075;
},
{
glyphname = "v";
layers = (
{
layerId = "5CB93347-76DB-47FB-8F37-014E89A2A0A0";
name = "Regular";
paths = (
{
closed = 1;
nodes = (
"155 0 LINE",
"227 0 LINE",
"350 129 OFFCURVE",
"454 267 OFFCURVE",
"454 360 CURVE SMOOTH",
"454 395 OFFCURVE",
"439 438 OFFCURVE",
"376 438 CURVE SMOOTH",
"333 438 OFFCURVE",
"293 418 OFFCURVE",
"264 397 CURVE",
"291 346 LINE",
"311 360 OFFCURVE",
"335 369 OFFCURVE",
"351 369 CURVE SMOOTH",
"367 369 OFFCURVE",
"372 362 OFFCURVE",
"372 348 CURVE SMOOTH",
"372 283 OFFCURVE",
"293 175 OFFCURVE",
"212 83 CURVE",
"150 428 LINE",
"22 428 LINE",
"10 361 LINE",
"80 361 LINE"
);
}
);
width = 469;
}
);
leftKerningGroup = "v";
rightKerningGroup = "v";
unicode = 0076;
},
{
glyphname = "w";
layers = (
{
layerId = "5CB93347-76DB-47FB-8F37-014E89A2A0A0";
name = "Regular";
paths = (
{
closed = 1;
nodes = (
"156 0 LINE",
"228 0 LINE",
"283 68 OFFCURVE",
"332 144 OFFCURVE",
"366 210 CURVE",
"412 0 LINE",
"482 0 LINE",
"596 129 OFFCURVE",
"680 273 OFFCURVE",
"680 356 CURVE SMOOTH",
"680 400 OFFCURVE",
"657 438 OFFCURVE",
"601 438 CURVE SMOOTH",
"559 438 OFFCURVE",
"518 416 OFFCURVE",
"492 396 CURVE",
"515 345 LINE",
"537 359 OFFCURVE",
"558 368 OFFCURVE",
"578 368 CURVE SMOOTH",
"597 368 OFFCURVE",
"603 361 OFFCURVE",
"603 344 CURVE SMOOTH",
"603 291 OFFCURVE",
"547 182 OFFCURVE",
"465 84 CURVE",
"398 428 LINE",
"273 428 LINE",
"261 361 LINE",
"331 361 LINE",
"340 314 LINE",
"318 248 OFFCURVE",
"262 156 OFFCURVE",
"211 88 CURVE",
"146 428 LINE",
"23 428 LINE",
"11 361 LINE",
"79 361 LINE"
);
}
);
width = 696;
}
);
leftKerningGroup = "w";
rightKerningGroup = "w";
unicode = 0077;
},
{
glyphname = "x";
layers = (
{
layerId = "5CB93347-76DB-47FB-8F37-014E89A2A0A0";
name = "Regular";
paths = (
{
closed = 1;
nodes = (
"122 -11 OFFCURVE",
"164 48 OFFCURVE",
"224 142 CURVE",
"283 0 LINE",
"397 0 LINE",
"408 65 LINE",
"341 65 LINE",
"274 208 LINE",
"339 318 OFFCURVE",
"367 366 OFFCURVE",
"396 366 CURVE SMOOTH",
"413 366 OFFCURVE",
"425 350 OFFCURVE",
"436 328 CURVE",
"482 355 LINE",
"465 391 OFFCURVE",
"444 438 OFFCURVE",
"391 438 CURVE SMOOTH",
"336 438 OFFCURVE",
"301 387 OFFCURVE",
"239 284 CURVE",
"180 428 LINE",
"64 428 LINE",
"52 363 LINE",
"121 363 LINE",
"188 216 LINE",
"125 112 OFFCURVE",
"91 62 OFFCURVE",
"61 62 CURVE SMOOTH",
"45 62 OFFCURVE",
"31 77 OFFCURVE",
"22 100 CURVE",
"-25 73 LINE",
"-10 40 OFFCURVE",
"12 -11 OFFCURVE",
"65 -11 CURVE SMOOTH"
);
}
);
width = 474;
}
);
leftKerningGroup = "x";
rightKerningGroup = "x";
unicode = 0078;
},
{
glyphname = "y";
layers = (
{
layerId = "5CB93347-76DB-47FB-8F37-014E89A2A0A0";
name = "Regular";
paths = (
{
closed = 1;
nodes = (
"130 0 LINE",
"204 0 LINE",
"138 -80 OFFCURVE",
"63 -141 OFFCURVE",
"2 -141 CURVE SMOOTH",
"-31 -141 OFFCURVE",
"-59 -124 OFFCURVE",
"-77 -109 CURVE",
"-114 -158 LINE",
"-86 -186 OFFCURVE",
"-46 -210 OFFCURVE",
"5 -210 CURVE SMOOTH",
"216 -210 OFFCURVE",
"460 194 OFFCURVE",
"460 347 CURVE SMOOTH",
"460 401 OFFCURVE",
"434 438 OFFCURVE",
"375 438 CURVE SMOOTH",
"328 438 OFFCURVE",
"288 415 OFFCURVE",
"263 395 CURVE",
"289 344 LINE",
"309 358 OFFCURVE",
"330 367 OFFCURVE",
"349 367 CURVE SMOOTH",
"367 367 OFFCURVE",
"377 358 OFFCURVE",
"377 334 CURVE SMOOTH",
"377 268 OFFCURVE",
"302 120 OFFCURVE",
"210 7 CURVE",
"160 428 LINE",
"26 428 LINE",
"14 361 LINE",
"84 361 LINE"
);
}
);
width = 481;
}
);
leftKerningGroup = "y";
rightKerningGroup = "y";
unicode = 0079;
},
{
glyphname = "z";
layers = (
{
layerId = "5CB93347-76DB-47FB-8F37-014E89A2A0A0";
name = "Regular";
paths = (
{
closed = 1;
nodes = (
"16 -4 LINE",
"46 5 OFFCURVE",
"72 12 OFFCURVE",
"105 12 CURVE SMOOTH",
"164 12 OFFCURVE",
"215 -9 OFFCURVE",
"265 -9 CURVE SMOOTH",
"365 -9 OFFCURVE",
"390 75 OFFCURVE",
"405 127 CURVE",
"343 144 LINE",
"326 96 OFFCURVE",
"310 59 OFFCURVE",
"251 59 CURVE SMOOTH",
"213 59 OFFCURVE",
"166 74 OFFCURVE",
"127 70 CURVE",
"414 391 LINE",
"394 428 LINE",
"69 428 LINE",
"45 286 LINE",
"117 286 LINE",
"130 366 LINE",
"289 366 LINE",
"-6 35 LINE"
);
}
);
width = 439;
}
);
leftKerningGroup = "z";
rightKerningGroup = "z";
unicode = 007A;
},
{
glyphname = "zero";
layers = (
{
layerId = "5CB93347-76DB-47FB-8F37-014E89A2A0A0";
name = "Regular";
paths = (
{
closed = 1;
nodes = (
"411 -11 OFFCURVE",
"491 138 OFFCURVE",
"491 281 CURVE SMOOTH",
"491 399 OFFCURVE",
"435 483 OFFCURVE",
"299 483 CURVE SMOOTH",
"118 483 OFFCURVE",
"38 335 OFFCURVE",
"38 193 CURVE SMOOTH",
"38 73 OFFCURVE",
"94 -11 OFFCURVE",
"231 -11 CURVE SMOOTH"
);
},
{
closed = 1;
nodes = (
"157 56 OFFCURVE",
"125 111 OFFCURVE",
"125 193 CURVE SMOOTH",
"125 299 OFFCURVE",
"176 417 OFFCURVE",
"293 417 CURVE SMOOTH",
"372 417 OFFCURVE",
"403 362 OFFCURVE",
"403 279 CURVE SMOOTH",
"403 174 OFFCURVE",
"353 56 OFFCURVE",
"236 56 CURVE SMOOTH"
);
}
);
width = 535;
}
);
leftKerningGroup = "zero";
rightKerningGroup = "zero";
unicode = 0030;
},
{
glyphname = "one";
layers = (
{
layerId = "5CB93347-76DB-47FB-8F37-014E89A2A0A0";
name = "Regular";
paths = (
{
closed = 1;
nodes = (
"8 0 LINE",
"284 0 LINE",
"295 66 LINE",
"207 66 LINE",
"279 472 LINE",
"204 472 LINE",
"60 422 LINE",
"47 390 OFFCURVE",
"61 364 OFFCURVE",
"96 364 CURVE SMOOTH",
"125 364 OFFCURVE",
"156 383 OFFCURVE",
"181 400 CURVE",
"122 66 LINE",
"20 66 LINE"
);
}
);
width = 354;
}
);
leftKerningGroup = "one";
rightKerningGroup = "one";
unicode = 0031;
},
{
glyphname = "two";
layers = (
{
layerId = "5CB93347-76DB-47FB-8F37-014E89A2A0A0";
name = "Regular";
paths = (
{
closed = 1;
nodes = (
"19 0 LINE",
"373 0 LINE",
"386 70 LINE",
"152 70 LINE",
"281 138 OFFCURVE",
"421 230 OFFCURVE",
"421 353 CURVE SMOOTH",
"421 441 OFFCURVE",
"350 483 OFFCURVE",
"259 483 CURVE SMOOTH",
"170 483 OFFCURVE",
"65 443 OFFCURVE",
"65 377 CURVE SMOOTH",
"65 351 OFFCURVE",
"81 326 OFFCURVE",
"116 326 CURVE SMOOTH",
"151 326 OFFCURVE",
"169 350 OFFCURVE",
"169 379 CURVE SMOOTH",
"169 386 OFFCURVE",
"167 394 OFFCURVE",
"164 400 CURVE",
"182 408 OFFCURVE",
"213 419 OFFCURVE",
"249 419 CURVE SMOOTH",
"311 419 OFFCURVE",
"335 385 OFFCURVE",
"335 347 CURVE SMOOTH",
"335 219 OFFCURVE",
"95 108 OFFCURVE",
"5 49 CURVE"
);
}
);
width = 458;
}
);
leftKerningGroup = "two";
rightKerningGroup = "two";
unicode = 0032;
},
{
glyphname = "three";
layers = (
{
layerId = "5CB93347-76DB-47FB-8F37-014E89A2A0A0";
name = "Regular";
paths = (
{
closed = 1;
nodes = (
"327 -140 OFFCURVE",
"415 -57 OFFCURVE",
"415 46 CURVE SMOOTH",
"415 116 OFFCURVE",
"373 160 OFFCURVE",
"311 182 CURVE",
"385 204 OFFCURVE",
"449 254 OFFCURVE",
"449 342 CURVE SMOOTH",
"449 434 OFFCURVE",
"377 483 OFFCURVE",
"268 483 CURVE SMOOTH",
"172 483 OFFCURVE",
"65 445 OFFCURVE",
"65 377 CURVE SMOOTH",
"65 350 OFFCURVE",
"83 326 OFFCURVE",
"117 326 CURVE SMOOTH",
"152 326 OFFCURVE",
"174 351 OFFCURVE",
"174 379 CURVE SMOOTH",
"174 386 OFFCURVE",
"173 394 OFFCURVE",
"170 400 CURVE",
"191 410 OFFCURVE",
"226 418 OFFCURVE",
"259 418 CURVE SMOOTH",
"322 418 OFFCURVE",
"361 390 OFFCURVE",
"361 333 CURVE SMOOTH",
"361 259 OFFCURVE",
"297 213 OFFCURVE",
"201 213 CURVE SMOOTH",
"162 213 LINE",
"149 149 LINE",
"190 149 LINE SMOOTH",
"268 149 OFFCURVE",
"327 120 OFFCURVE",
"327 50 CURVE SMOOTH",
"327 -22 OFFCURVE",
"267 -74 OFFCURVE",
"173 -74 CURVE SMOOTH",
"134 -74 OFFCURVE",
"105 -65 OFFCURVE",
"86 -56 CURVE",
"92 -46 OFFCURVE",
"94 -36 OFFCURVE",
"94 -27 CURVE SMOOTH",
"94 1 OFFCURVE",
"72 19 OFFCURVE",
"42 19 CURVE SMOOTH",
"7 19 OFFCURVE",
"-17 -6 OFFCURVE",
"-17 -38 CURVE SMOOTH",
"-17 -106 OFFCURVE",
"87 -140 OFFCURVE",
"180 -140 CURVE SMOOTH"
);
}
);
width = 492;
}
);
leftKerningGroup = "three";
rightKerningGroup = "three";
unicode = 0033;
},
{
glyphname = "four";
layers = (
{
layerId = "5CB93347-76DB-47FB-8F37-014E89A2A0A0";
name = "Regular";
paths = (
{
closed = 1;
nodes = (
"143 -129 LINE",
"403 -129 LINE",
"414 -67 LINE",
"335 -67 LINE",
"353 32 LINE",
"434 32 LINE",
"445 96 LINE",
"362 96 LINE",
"395 281 LINE",
"361 281 LINE",
"342 244 OFFCURVE",
"321 205 OFFCURVE",
"296 172 CURVE",
"282 96 LINE",
"84 96 LINE",
"181 184 OFFCURVE",
"297 358 OFFCURVE",
"297 438 CURVE SMOOTH",
"297 480 OFFCURVE",
"267 491 OFFCURVE",
"231 479 CURVE",
"204 358 OFFCURVE",
"99 201 OFFCURVE",
"-17 90 CURVE",
"-1 32 LINE",
"268 32 LINE",
"250 -67 LINE",
"154 -67 LINE"
);
}
);
width = 491;
}
);
leftKerningGroup = "four";
rightKerningGroup = "four";
unicode = 0034;
},
{
glyphname = "five";
layers = (
{
layerId = "5CB93347-76DB-47FB-8F37-014E89A2A0A0";
name = "Regular";
paths = (
{
closed = 1;
nodes = (
"337 -140 OFFCURVE",
"432 -47 OFFCURVE",
"432 79 CURVE SMOOTH",
"432 198 OFFCURVE",
"345 255 OFFCURVE",
"255 255 CURVE SMOOTH",
"207 255 OFFCURVE",
"165 239 OFFCURVE",
"130 216 CURVE",
"155 279 OFFCURVE",
"172 347 OFFCURVE",
"183 402 CURVE",
"235 400 OFFCURVE",
"337 389 OFFCURVE",
"385 389 CURVE SMOOTH",
"451 389 OFFCURVE",
"470 420 OFFCURVE",
"457 472 CURVE",
"124 472 LINE",
"102 352 OFFCURVE",
"74 244 OFFCURVE",
"33 149 CURVE",
"87 121 LINE",
"115 151 OFFCURVE",
"168 188 OFFCURVE",
"233 188 CURVE SMOOTH",
"296 188 OFFCURVE",
"344 152 OFFCURVE",
"344 75 CURVE SMOOTH",
"344 -21 OFFCURVE",
"272 -72 OFFCURVE",
"184 -72 CURVE SMOOTH",
"138 -72 OFFCURVE",
"108 -58 OFFCURVE",
"90 -46 CURVE",
"95 -36 OFFCURVE",
"98 -26 OFFCURVE",
"98 -16 CURVE SMOOTH",
"98 11 OFFCURVE",
"81 33 OFFCURVE",
"48 33 CURVE SMOOTH",
"14 33 OFFCURVE",
"-11 10 OFFCURVE",
"-11 -24 CURVE SMOOTH",
"-11 -90 OFFCURVE",
"86 -140 OFFCURVE",
"191 -140 CURVE SMOOTH"
);
}
);
width = 495;
}
);
leftKerningGroup = "five";
rightKerningGroup = "five";
unicode = 0035;
},
{
glyphname = "six";
layers = (
{
layerId = "5CB93347-76DB-47FB-8F37-014E89A2A0A0";
name = "Regular";
paths = (
{
closed = 1;
nodes = (
"383 -11 OFFCURVE",
"472 90 OFFCURVE",
"472 215 CURVE SMOOTH",
"472 324 OFFCURVE",
"405 385 OFFCURVE",
"303 385 CURVE SMOOTH",
"230 385 OFFCURVE",
"176 354 OFFCURVE",
"141 314 CURVE",
"169 431 OFFCURVE",
"232 548 OFFCURVE",
"339 548 CURVE SMOOTH",
"369 548 OFFCURVE",
"389 539 OFFCURVE",
"402 532 CURVE",
"395 525 OFFCURVE",
"389 513 OFFCURVE",
"389 499 CURVE SMOOTH",
"389 474 OFFCURVE",
"409 451 OFFCURVE",
"443 451 CURVE SMOOTH",
"483 451 OFFCURVE",
"499 482 OFFCURVE",
"499 508 CURVE SMOOTH",
"499 563 OFFCURVE",
"428 612 OFFCURVE",
"338 612 CURVE SMOOTH",
"137 612 OFFCURVE",
"43 369 OFFCURVE",
"43 202 CURVE SMOOTH",
"43 48 OFFCURVE",
"123 -11 OFFCURVE",
"236 -11 CURVE SMOOTH"
);
},
{
closed = 1;
nodes = (
"162 55 OFFCURVE",
"127 104 OFFCURVE",
"127 168 CURVE SMOOTH",
"127 259 OFFCURVE",
"197 323 OFFCURVE",
"281 323 CURVE SMOOTH",
"351 323 OFFCURVE",
"384 277 OFFCURVE",
"384 211 CURVE SMOOTH",
"384 122 OFFCURVE",
"324 55 OFFCURVE",
"237 55 CURVE SMOOTH"
);
}
);
width = 524;
}
);
leftKerningGroup = "six";
rightKerningGroup = "zero";
unicode = 0036;
},
{
glyphname = "seven";
layers = (
{
layerId = "5CB93347-76DB-47FB-8F37-014E89A2A0A0";
name = "Regular";
paths = (
{
closed = 1;
nodes = (
"187 -140 OFFCURVE",
"198 -138 OFFCURVE",
"210 -135 CURVE",
"228 54 OFFCURVE",
"318 197 OFFCURVE",
"464 384 CURVE SMOOTH",
"478 403 OFFCURVE",
"489 418 OFFCURVE",
"489 438 CURVE SMOOTH",
"489 463 OFFCURVE",
"473 483 OFFCURVE",
"441 483 CURVE SMOOTH",
"411 483 OFFCURVE",
"393 465 OFFCURVE",
"386 440 CURVE",
"323 429 OFFCURVE",
"277 478 OFFCURVE",
"209 478 CURVE SMOOTH",
"159 478 OFFCURVE",
"133 452 OFFCURVE",
"116 418 CURVE",
"126 472 LINE",
"60 472 LINE",
"31 312 LINE",
"104 312 LINE",
"114 373 OFFCURVE",
"139 409 OFFCURVE",
"200 409 CURVE SMOOTH",
"265 409 OFFCURVE",
"314 369 OFFCURVE",
"380 388 CURVE",
"269 258 OFFCURVE",
"128 27 OFFCURVE",
"128 -92 CURVE SMOOTH",
"128 -128 OFFCURVE",
"145 -140 OFFCURVE",
"175 -140 CURVE SMOOTH"
);
}
);
width = 472;
}
);
leftKerningGroup = "seven";
rightKerningGroup = "seven";
unicode = 0037;
},
{
glyphname = "eight";
layers = (
{
layerId = "5CB93347-76DB-47FB-8F37-014E89A2A0A0";
name = "Regular";
paths = (
{
closed = 1;
nodes = (
"382 -11 OFFCURVE",
"473 74 OFFCURVE",
"473 180 CURVE SMOOTH",
"473 256 OFFCURVE",
"426 297 OFFCURVE",
"371 316 CURVE",
"450 340 OFFCURVE",
"499 399 OFFCURVE",
"499 472 CURVE SMOOTH",
"499 551 OFFCURVE",
"443 612 OFFCURVE",
"320 612 CURVE SMOOTH",
"178 612 OFFCURVE",
"101 530 OFFCURVE",
"101 440 CURVE SMOOTH",
"101 382 OFFCURVE",
"132 342 OFFCURVE",
"178 321 CURVE",
"103 300 OFFCURVE",
"26 245 OFFCURVE",
"26 146 CURVE SMOOTH",
"26 56 OFFCURVE",
"90 -11 OFFCURVE",
"227 -11 CURVE SMOOTH"
);
},
{
closed = 1;
nodes = (
"152 54 OFFCURVE",
"113 93 OFFCURVE",
"113 152 CURVE SMOOTH",
"113 227 OFFCURVE",
"174 284 OFFCURVE",
"269 284 CURVE SMOOTH",
"346 284 OFFCURVE",
"387 246 OFFCURVE",
"387 185 CURVE SMOOTH",
"387 114 OFFCURVE",
"329 54 OFFCURVE",
"231 54 CURVE SMOOTH"
);
},
{
closed = 1;
nodes = (
"381 549 OFFCURVE",
"416 517 OFFCURVE",
"416 466 CURVE SMOOTH",
"416 403 OFFCURVE",
"360 350 OFFCURVE",
"283 350 CURVE SMOOTH",
"219 350 OFFCURVE",
"184 386 OFFCURVE",
"184 437 CURVE SMOOTH",
"184 500 OFFCURVE",
"236 549 OFFCURVE",
"316 549 CURVE SMOOTH"
);
}
);
width = 531;
}
);
rightKerningGroup = "zero";
unicode = 0038;
},
{
glyphname = "nine";
layers = (
{
layerId = "5CB93347-76DB-47FB-8F37-014E89A2A0A0";
name = "Regular";
paths = (
{
closed = 1;
nodes = (
"411 -140 OFFCURVE",
"469 125 OFFCURVE",
"469 261 CURVE SMOOTH",
"469 412 OFFCURVE",
"397 483 OFFCURVE",
"274 483 CURVE SMOOTH",
"130 483 OFFCURVE",
"40 385 OFFCURVE",
"40 263 CURVE SMOOTH",
"40 154 OFFCURVE",
"112 89 OFFCURVE",
"214 89 CURVE SMOOTH",
"288 89 OFFCURVE",
"341 123 OFFCURVE",
"373 166 CURVE",
"350 28 OFFCURVE",
"296 -75 OFFCURVE",
"187 -75 CURVE SMOOTH",
"156 -75 OFFCURVE",
"127 -66 OFFCURVE",
"112 -58 CURVE",
"117 -50 OFFCURVE",
"120 -41 OFFCURVE",
"120 -32 CURVE SMOOTH",
"120 -3 OFFCURVE",
"100 19 OFFCURVE",
"69 19 CURVE SMOOTH",
"38 19 OFFCURVE",
"12 -3 OFFCURVE",
"12 -38 CURVE SMOOTH",
"12 -104 OFFCURVE",
"107 -140 OFFCURVE",
"189 -140 CURVE SMOOTH"
);
},
{
closed = 1;
nodes = (
"349 417 OFFCURVE",
"385 366 OFFCURVE",
"385 304 CURVE SMOOTH",
"385 218 OFFCURVE",
"317 151 OFFCURVE",
"235 151 CURVE SMOOTH",
"164 151 OFFCURVE",
"128 199 OFFCURVE",
"128 265 CURVE SMOOTH",
"128 349 OFFCURVE",
"186 417 OFFCURVE",
"274 417 CURVE SMOOTH"
);
}
);
width = 516;
}
);
leftKerningGroup = "nine";
rightKerningGroup = "nine";
unicode = 0039;
},
{
glyphname = "zero.lf";
layers = (
{
layerId = "5CB93347-76DB-47FB-8F37-014E89A2A0A0";
name = "Regular";
paths = (
{
closed = 1;
nodes = (
"449 -12 OFFCURVE",
"518 205 OFFCURVE",
"518 379 CURVE SMOOTH",
"518 547 OFFCURVE",
"453 621 OFFCURVE",
"330 621 CURVE SMOOTH",
"111 621 OFFCURVE",
"48 394 OFFCURVE",
"50 223 CURVE SMOOTH",
"52 67 OFFCURVE",
"110 -12 OFFCURVE",
"237 -12 CURVE SMOOTH"
);
},
{
closed = 1;
nodes = (
"174 55 OFFCURVE",
"138 109 OFFCURVE",
"138 227 CURVE SMOOTH",
"138 352 OFFCURVE",
"179 554 OFFCURVE",
"321 554 CURVE SMOOTH",
"392 554 OFFCURVE",
"429 502 OFFCURVE",
"429 380 CURVE SMOOTH",
"429 246 OFFCURVE",
"384 55 OFFCURVE",
"247 55 CURVE SMOOTH"
);
}
);
width = 551;
}
);
leftKerningGroup = "zero.lf";
rightKerningGroup = "zero.lf";
},
{
glyphname = "one.lf";
layers = (
{
layerId = "5CB93347-76DB-47FB-8F37-014E89A2A0A0";
name = "Regular";
paths = (
{
closed = 1;
nodes = (
"7 0 LINE",
"292 0 LINE",
"303 66 LINE",
"211 66 LINE",
"305 609 LINE",
"230 609 LINE",
"80 558 LINE",
"66 523 OFFCURVE",
"81 499 OFFCURVE",
"115 499 CURVE SMOOTH",
"146 499 OFFCURVE",
"184 519 OFFCURVE",
"207 536 CURVE",
"126 66 LINE",
"18 66 LINE"
);
}
);
width = 362;
}
);
leftKerningGroup = "one.lf";
rightKerningGroup = "one.lf";
},
{
glyphname = "two.lf";
layers = (
{
layerId = "5CB93347-76DB-47FB-8F37-014E89A2A0A0";
name = "Regular";
paths = (
{
closed = 1;
nodes = (
"92 -11 OFFCURVE",
"106 17 OFFCURVE",
"107 39 CURVE",
"162 45 OFFCURVE",
"214 -10 OFFCURVE",
"304 -10 CURVE SMOOTH",
"410 -10 OFFCURVE",
"446 69 OFFCURVE",
"462 166 CURVE",
"385 166 LINE",
"376 119 OFFCURVE",
"357 66 OFFCURVE",
"294 66 CURVE SMOOTH",
"241 66 OFFCURVE",
"177 102 OFFCURVE",
"114 93 CURVE",
"206 174 OFFCURVE",
"478 277 OFFCURVE",
"478 466 CURVE SMOOTH",
"478 556 OFFCURVE",
"417 621 OFFCURVE",
"296 621 CURVE SMOOTH",
"194 621 OFFCURVE",
"89 573 OFFCURVE",
"89 506 CURVE SMOOTH",
"89 479 OFFCURVE",
"106 455 OFFCURVE",
"142 455 CURVE SMOOTH",
"180 455 OFFCURVE",
"198 481 OFFCURVE",
"198 509 CURVE SMOOTH",
"198 516 OFFCURVE",
"197 524 OFFCURVE",
"193 531 CURVE",
"214 542 OFFCURVE",
"250 554 OFFCURVE",
"291 554 CURVE SMOOTH",
"352 554 OFFCURVE",
"390 525 OFFCURVE",
"390 465 CURVE SMOOTH",
"390 368 OFFCURVE",
"290 300 OFFCURVE",
"159 210 CURVE SMOOTH",
"70 149 OFFCURVE",
"0 101 OFFCURVE",
"0 44 CURVE SMOOTH",
"0 10 OFFCURVE",
"20 -11 OFFCURVE",
"53 -11 CURVE SMOOTH"
);
}
);
width = 514;
}
);
leftKerningGroup = "two.lf";
rightKerningGroup = "zero";
},
{
glyphname = "three.lf";
layers = (
{
layerId = "5CB93347-76DB-47FB-8F37-014E89A2A0A0";
name = "Regular";
paths = (
{
closed = 1;
nodes = (
"353 -12 OFFCURVE",
"440 71 OFFCURVE",
"440 176 CURVE SMOOTH",
"440 247 OFFCURVE",
"398 292 OFFCURVE",
"336 315 CURVE",
"411 338 OFFCURVE",
"474 388 OFFCURVE",
"474 477 CURVE SMOOTH",
"474 571 OFFCURVE",
"402 621 OFFCURVE",
"294 621 CURVE SMOOTH",
"197 621 OFFCURVE",
"91 581 OFFCURVE",
"91 513 CURVE SMOOTH",
"91 486 OFFCURVE",
"108 462 OFFCURVE",
"142 462 CURVE SMOOTH",
"178 462 OFFCURVE",
"199 487 OFFCURVE",
"199 516 CURVE SMOOTH",
"199 522 OFFCURVE",
"198 530 OFFCURVE",
"195 537 CURVE",
"216 547 OFFCURVE",
"251 555 OFFCURVE",
"284 555 CURVE SMOOTH",
"347 555 OFFCURVE",
"386 526 OFFCURVE",
"386 468 CURVE SMOOTH",
"386 392 OFFCURVE",
"322 346 OFFCURVE",
"226 346 CURVE SMOOTH",
"187 346 LINE",
"174 282 LINE",
"215 282 LINE SMOOTH",
"293 282 OFFCURVE",
"352 252 OFFCURVE",
"352 180 CURVE SMOOTH",
"352 107 OFFCURVE",
"292 53 OFFCURVE",
"198 53 CURVE SMOOTH",
"159 53 OFFCURVE",
"130 64 OFFCURVE",
"111 73 CURVE",
"117 83 OFFCURVE",
"119 92 OFFCURVE",
"119 102 CURVE SMOOTH",
"119 130 OFFCURVE",
"97 148 OFFCURVE",
"67 148 CURVE SMOOTH",
"32 148 OFFCURVE",
"9 122 OFFCURVE",
"9 91 CURVE SMOOTH",
"9 23 OFFCURVE",
"112 -12 OFFCURVE",
"205 -12 CURVE SMOOTH"
);
}
);
width = 500;
}
);
rightKerningGroup = "zero";
},
{
glyphname = "four.lf";
layers = (
{
layerId = "5CB93347-76DB-47FB-8F37-014E89A2A0A0";
name = "Regular";
paths = (
{
closed = 1;
nodes = (
"164 0 LINE",
"424 0 LINE",
"435 62 LINE",
"356 62 LINE",
"374 164 LINE",
"455 164 LINE",
"466 228 LINE",
"383 228 LINE",
"416 415 LINE",
"381 415 LINE",
"362 378 OFFCURVE",
"341 339 OFFCURVE",
"316 306 CURVE",
"302 228 LINE",
"105 228 LINE",
"202 318 OFFCURVE",
"318 496 OFFCURVE",
"318 577 CURVE SMOOTH",
"318 618 OFFCURVE",
"287 629 OFFCURVE",
"251 617 CURVE",
"224 494 OFFCURVE",
"120 335 OFFCURVE",
"3 222 CURVE",
"20 164 LINE",
"288 164 LINE",
"271 62 LINE",
"175 62 LINE"
);
}
);
width = 499;
}
);
leftKerningGroup = "four.lf";
rightKerningGroup = "four.lf";
},
{
glyphname = "five.lf";
layers = (
{
layerId = "5CB93347-76DB-47FB-8F37-014E89A2A0A0";
name = "Regular";
paths = (
{
closed = 1;
nodes = (
"367 -12 OFFCURVE",
"462 82 OFFCURVE",
"462 210 CURVE SMOOTH",
"462 331 OFFCURVE",
"376 388 OFFCURVE",
"285 388 CURVE SMOOTH",
"237 388 OFFCURVE",
"196 372 OFFCURVE",
"160 348 CURVE",
"186 412 OFFCURVE",
"202 482 OFFCURVE",
"213 539 CURVE",
"265 537 OFFCURVE",
"367 526 OFFCURVE",
"415 526 CURVE SMOOTH",
"481 526 OFFCURVE",
"500 557 OFFCURVE",
"488 609 CURVE",
"154 609 LINE",
"133 487 OFFCURVE",
"105 378 OFFCURVE",
"63 281 CURVE",
"117 253 LINE",
"145 284 OFFCURVE",
"198 321 OFFCURVE",
"263 321 CURVE SMOOTH",
"327 321 OFFCURVE",
"374 285 OFFCURVE",
"374 206 CURVE SMOOTH",
"374 108 OFFCURVE",
"302 56 OFFCURVE",
"214 56 CURVE SMOOTH",
"169 56 OFFCURVE",
"138 71 OFFCURVE",
"120 83 CURVE",
"125 92 OFFCURVE",
"128 103 OFFCURVE",
"128 113 CURVE SMOOTH",
"128 140 OFFCURVE",
"111 163 OFFCURVE",
"78 163 CURVE SMOOTH",
"44 163 OFFCURVE",
"20 139 OFFCURVE",
"20 105 CURVE SMOOTH",
"20 38 OFFCURVE",
"117 -12 OFFCURVE",
"221 -12 CURVE SMOOTH"
);
}
);
width = 509;
}
);
rightKerningGroup = "zero";
},
{
glyphname = "six.lf";
layers = (
{
layerId = "5CB93347-76DB-47FB-8F37-014E89A2A0A0";
name = "Regular";
paths = (
{
closed = 1;
nodes = (
"383 -12 OFFCURVE",
"472 91 OFFCURVE",
"472 218 CURVE SMOOTH",
"472 328 OFFCURVE",
"406 390 OFFCURVE",
"304 390 CURVE SMOOTH",
"231 390 OFFCURVE",
"176 358 OFFCURVE",
"141 317 CURVE",
"170 441 OFFCURVE",
"233 556 OFFCURVE",
"338 556 CURVE SMOOTH",
"369 556 OFFCURVE",
"388 546 OFFCURVE",
"401 539 CURVE",
"392 530 OFFCURVE",
"388 517 OFFCURVE",
"388 507 CURVE SMOOTH",
"388 482 OFFCURVE",
"409 459 OFFCURVE",
"443 459 CURVE SMOOTH",
"483 459 OFFCURVE",
"499 490 OFFCURVE",
"499 517 CURVE SMOOTH",
"499 573 OFFCURVE",
"428 621 OFFCURVE",
"339 621 CURVE SMOOTH",
"136 621 OFFCURVE",
"43 372 OFFCURVE",
"43 204 CURVE SMOOTH",
"43 49 OFFCURVE",
"123 -12 OFFCURVE",
"236 -12 CURVE SMOOTH"
);
},
{
closed = 1;
nodes = (
"162 54 OFFCURVE",
"127 105 OFFCURVE",
"127 170 CURVE SMOOTH",
"127 263 OFFCURVE",
"197 328 OFFCURVE",
"281 328 CURVE SMOOTH",
"351 328 OFFCURVE",
"384 282 OFFCURVE",
"384 214 CURVE SMOOTH",
"384 123 OFFCURVE",
"324 54 OFFCURVE",
"237 54 CURVE SMOOTH"
);
}
);
width = 522;
}
);
leftKerningGroup = "six.lf";
rightKerningGroup = "zero";
},
{
glyphname = "seven.lf";
layers = (
{
layerId = "5CB93347-76DB-47FB-8F37-014E89A2A0A0";
name = "Regular";
paths = (
{
closed = 1;
nodes = (
"210 -13 OFFCURVE",
"221 -11 OFFCURVE",
"233 -7 CURVE",
"252 182 OFFCURVE",
"339 325 OFFCURVE",
"487 519 CURVE",
"501 539 OFFCURVE",
"512 554 OFFCURVE",
"512 574 CURVE SMOOTH",
"512 599 OFFCURVE",
"496 620 OFFCURVE",
"464 620 CURVE SMOOTH",
"435 620 OFFCURVE",
"416 601 OFFCURVE",
"409 576 CURVE",
"346 565 OFFCURVE",
"300 615 OFFCURVE",
"233 615 CURVE SMOOTH",
"182 615 OFFCURVE",
"157 588 OFFCURVE",
"139 553 CURVE",
"149 609 LINE",
"83 609 LINE",
"54 446 LINE",
"127 446 LINE",
"137 508 OFFCURVE",
"162 545 OFFCURVE",
"223 545 CURVE SMOOTH",
"288 545 OFFCURVE",
"337 504 OFFCURVE",
"403 524 CURVE",
"293 392 OFFCURVE",
"151 156 OFFCURVE",
"151 37 CURVE SMOOTH",
"151 0 OFFCURVE",
"168 -13 OFFCURVE",
"198 -13 CURVE SMOOTH"
);
}
);
width = 472;
}
);
leftKerningGroup = "seven.lf";
rightKerningGroup = "seven.lf";
},
{
glyphname = "eight.lf";
layers = (
{
layerId = "5CB93347-76DB-47FB-8F37-014E89A2A0A0";
name = "Regular";
paths = (
{
closed = 1;
nodes = (
"381 -12 OFFCURVE",
"473 75 OFFCURVE",
"473 182 CURVE SMOOTH",
"473 260 OFFCURVE",
"425 301 OFFCURVE",
"371 320 CURVE",
"449 345 OFFCURVE",
"499 404 OFFCURVE",
"499 479 CURVE SMOOTH",
"499 558 OFFCURVE",
"442 621 OFFCURVE",
"319 621 CURVE SMOOTH",
"177 621 OFFCURVE",
"100 537 OFFCURVE",
"100 446 CURVE SMOOTH",
"100 387 OFFCURVE",
"132 346 OFFCURVE",
"178 325 CURVE",
"102 304 OFFCURVE",
"25 248 OFFCURVE",
"25 148 CURVE SMOOTH",
"25 56 OFFCURVE",
"89 -12 OFFCURVE",
"226 -12 CURVE SMOOTH"
);
},
{
closed = 1;
nodes = (
"151 53 OFFCURVE",
"112 93 OFFCURVE",
"112 153 CURVE SMOOTH",
"112 230 OFFCURVE",
"173 288 OFFCURVE",
"268 288 CURVE SMOOTH",
"346 288 OFFCURVE",
"386 248 OFFCURVE",
"386 188 CURVE SMOOTH",
"386 115 OFFCURVE",
"328 53 OFFCURVE",
"230 53 CURVE SMOOTH"
);
},
{
closed = 1;
nodes = (
"380 557 OFFCURVE",
"415 524 OFFCURVE",
"415 473 CURVE SMOOTH",
"415 409 OFFCURVE",
"359 354 OFFCURVE",
"282 354 CURVE SMOOTH",
"218 354 OFFCURVE",
"183 392 OFFCURVE",
"183 444 CURVE SMOOTH",
"183 507 OFFCURVE",
"236 557 OFFCURVE",
"316 557 CURVE SMOOTH"
);
}
);
width = 529;
}
);
rightKerningGroup = "zero";
},
{
glyphname = "nine.lf";
layers = (
{
layerId = "5CB93347-76DB-47FB-8F37-014E89A2A0A0";
name = "Regular";
paths = (
{
closed = 1;
nodes = (
"440 -12 OFFCURVE",
"498 258 OFFCURVE",
"498 396 CURVE SMOOTH",
"498 549 OFFCURVE",
"426 621 OFFCURVE",
"302 621 CURVE SMOOTH",
"158 621 OFFCURVE",
"68 521 OFFCURVE",
"68 397 CURVE SMOOTH",
"68 286 OFFCURVE",
"140 220 OFFCURVE",
"242 220 CURVE SMOOTH",
"316 220 OFFCURVE",
"370 256 OFFCURVE",
"402 299 CURVE",
"379 162 OFFCURVE",
"326 54 OFFCURVE",
"217 54 CURVE SMOOTH",
"184 54 OFFCURVE",
"156 63 OFFCURVE",
"141 72 CURVE",
"146 80 OFFCURVE",
"149 89 OFFCURVE",
"149 98 CURVE SMOOTH",
"149 126 OFFCURVE",
"128 148 OFFCURVE",
"97 148 CURVE SMOOTH",
"66 148 OFFCURVE",
"40 126 OFFCURVE",
"40 91 CURVE SMOOTH",
"40 25 OFFCURVE",
"136 -12 OFFCURVE",
"218 -12 CURVE SMOOTH"
);
},
{
closed = 1;
nodes = (
"377 554 OFFCURVE",
"414 503 OFFCURVE",
"414 439 CURVE SMOOTH",
"414 351 OFFCURVE",
"346 283 OFFCURVE",
"263 283 CURVE SMOOTH",
"192 283 OFFCURVE",
"156 331 OFFCURVE",
"156 399 CURVE SMOOTH",
"156 485 OFFCURVE",
"215 554 OFFCURVE",
"302 554 CURVE SMOOTH"
);
}
);
width = 527;
}
);
rightKerningGroup = "nine.lf";
},
{
glyphname = "colon";
layers = (
{
layerId = "5CB93347-76DB-47FB-8F37-014E89A2A0A0";
name = "Regular";
paths = (
{
closed = 1;
nodes = (
"109 -9 OFFCURVE",
"134 16 OFFCURVE",
"134 47 CURVE SMOOTH",
"134 78 OFFCURVE",
"109 104 OFFCURVE",
"78 104 CURVE SMOOTH",
"47 104 OFFCURVE",
"21 78 OFFCURVE",
"21 47 CURVE SMOOTH",
"21 16 OFFCURVE",
"47 -9 OFFCURVE",
"78 -9 CURVE SMOOTH"
);
},
{
closed = 1;
nodes = (
"163 294 OFFCURVE",
"188 319 OFFCURVE",
"188 351 CURVE SMOOTH",
"188 382 OFFCURVE",
"163 407 OFFCURVE",
"132 407 CURVE SMOOTH",
"101 407 OFFCURVE",
"75 382 OFFCURVE",
"75 351 CURVE SMOOTH",
"75 319 OFFCURVE",
"101 294 OFFCURVE",
"132 294 CURVE SMOOTH"
);
}
);
width = 229;
}
);
leftKerningGroup = "colon";
rightKerningGroup = "colon";
unicode = 003A;
},
{
glyphname = "semicolon";
layers = (
{
layerId = "5CB93347-76DB-47FB-8F37-014E89A2A0A0";
name = "Regular";
paths = (
{
closed = 1;
nodes = (
"168 294 OFFCURVE",
"194 319 OFFCURVE",
"194 351 CURVE SMOOTH",
"194 382 OFFCURVE",
"168 407 OFFCURVE",
"137 407 CURVE SMOOTH",
"106 407 OFFCURVE",
"81 382 OFFCURVE",
"81 351 CURVE SMOOTH",
"81 319 OFFCURVE",
"106 294 OFFCURVE",
"137 294 CURVE SMOOTH"
);
},
{
closed = 1;
nodes = (
"51 104 OFFCURVE",
"27 77 OFFCURVE",
"27 48 CURVE SMOOTH",
"27 26 OFFCURVE",
"42 6 OFFCURVE",
"63 0 CURVE",
"51 -27 OFFCURVE",
"21 -60 OFFCURVE",
"-18 -94 CURVE",
"13 -126 LINE",
"76 -81 OFFCURVE",
"139 -9 OFFCURVE",
"139 45 CURVE SMOOTH",
"139 78 OFFCURVE",
"116 104 OFFCURVE",
"84 104 CURVE SMOOTH"
);
}
);
width = 239;
}
);
leftKerningGroup = "colon";
rightKerningGroup = "colon";
unicode = 003B;
},
{
glyphname = "exclam";
layers = (
{
layerId = "5CB93347-76DB-47FB-8F37-014E89A2A0A0";
name = "Regular";
paths = (
{
closed = 1;
nodes = (
"77 167 LINE",
"142 167 LINE",
"235 609 LINE",
"140 609 LINE"
);
},
{
closed = 1;
nodes = (
"123 -9 OFFCURVE",
"149 17 OFFCURVE",
"149 48 CURVE SMOOTH",
"149 80 OFFCURVE",
"123 106 OFFCURVE",
"91 106 CURVE SMOOTH",
"59 106 OFFCURVE",
"33 80 OFFCURVE",
"33 48 CURVE SMOOTH",
"33 17 OFFCURVE",
"59 -9 OFFCURVE",
"91 -9 CURVE SMOOTH"
);
}
);
width = 252;
}
);
rightKerningGroup = "zero";
unicode = 0021;
},
{
glyphname = "exclamdown";
layers = (
{
layerId = "5CB93347-76DB-47FB-8F37-014E89A2A0A0";
name = "Regular";
paths = (
{
closed = 1;
nodes = (
"-7 -180 LINE",
"87 -180 LINE",
"150 263 LINE",
"85 263 LINE"
);
},
{
closed = 1;
nodes = (
"168 323 OFFCURVE",
"194 349 OFFCURVE",
"194 381 CURVE SMOOTH",
"194 413 OFFCURVE",
"168 439 OFFCURVE",
"136 439 CURVE SMOOTH",
"105 439 OFFCURVE",
"79 413 OFFCURVE",
"79 381 CURVE SMOOTH",
"79 349 OFFCURVE",
"105 323 OFFCURVE",
"136 323 CURVE SMOOTH"
);
}
);
width = 231;
}
);
rightKerningGroup = "exclamdown";
unicode = 00A1;
},
{
glyphname = "question";
layers = (
{
layerId = "5CB93347-76DB-47FB-8F37-014E89A2A0A0";
name = "Regular";
paths = (
{
closed = 1;
nodes = (
"177 167 LINE",
"168 300 OFFCURVE",
"378 338 OFFCURVE",
"378 491 CURVE SMOOTH",
"378 577 OFFCURVE",
"311 621 OFFCURVE",
"219 621 CURVE SMOOTH",
"175 621 OFFCURVE",
"130 611 OFFCURVE",
"92 600 CURVE",
"81 532 LINE",
"117 544 OFFCURVE",
"161 555 OFFCURVE",
"203 555 CURVE SMOOTH",
"262 555 OFFCURVE",
"290 531 OFFCURVE",
"290 486 CURVE SMOOTH",
"290 369 OFFCURVE",
"87 326 OFFCURVE",
"100 167 CURVE"
);
},
{
closed = 1;
nodes = (
"160 -9 OFFCURVE",
"186 17 OFFCURVE",
"186 48 CURVE SMOOTH",
"186 80 OFFCURVE",
"160 106 OFFCURVE",
"128 106 CURVE SMOOTH",
"96 106 OFFCURVE",
"70 80 OFFCURVE",
"70 48 CURVE SMOOTH",
"70 17 OFFCURVE",
"96 -9 OFFCURVE",
"128 -9 CURVE SMOOTH"
);
}
);
width = 379;
}
);
leftKerningGroup = "question";
rightKerningGroup = "zero";
unicode = 003F;
},
{
glyphname = "questiondown";
layers = (
{
layerId = "5CB93347-76DB-47FB-8F37-014E89A2A0A0";
name = "Regular";
paths = (
{
closed = 1;
nodes = (
"184 -192 OFFCURVE",
"229 -182 OFFCURVE",
"266 -170 CURVE",
"278 -103 LINE",
"242 -114 OFFCURVE",
"197 -126 OFFCURVE",
"156 -126 CURVE SMOOTH",
"97 -126 OFFCURVE",
"68 -101 OFFCURVE",
"68 -57 CURVE SMOOTH",
"68 61 OFFCURVE",
"271 103 OFFCURVE",
"258 263 CURVE",
"181 263 LINE",
"191 129 OFFCURVE",
"-19 92 OFFCURVE",
"-19 -62 CURVE SMOOTH",
"-19 -147 OFFCURVE",
"47 -192 OFFCURVE",
"140 -192 CURVE SMOOTH"
);
},
{
closed = 1;
nodes = (
"262 323 OFFCURVE",
"288 349 OFFCURVE",
"288 381 CURVE SMOOTH",
"288 413 OFFCURVE",
"262 439 OFFCURVE",
"231 439 CURVE SMOOTH",
"199 439 OFFCURVE",
"173 413 OFFCURVE",
"173 381 CURVE SMOOTH",
"173 349 OFFCURVE",
"199 323 OFFCURVE",
"231 323 CURVE SMOOTH"
);
}
);
width = 370;
}
);
rightKerningGroup = "questiondown";
unicode = 00BF;
},
{
glyphname = "parenleft";
layers = (
{
layerId = "5CB93347-76DB-47FB-8F37-014E89A2A0A0";
name = "Regular";
paths = (
{
closed = 1;
nodes = (
"188 -198 LINE",
"133 -98 OFFCURVE",
"108 36 OFFCURVE",
"108 142 CURVE SMOOTH",
"108 354 OFFCURVE",
"207 547 OFFCURVE",
"348 707 CURVE",
"258 707 LINE",
"116 549 OFFCURVE",
"26 355 OFFCURVE",
"26 146 CURVE SMOOTH",
"26 37 OFFCURVE",
"50 -96 OFFCURVE",
"101 -198 CURVE"
);
}
);
width = 270;
}
);
rightKerningGroup = "parenleft";
unicode = 0028;
},
{
glyphname = "parenright";
layers = (
{
layerId = "5CB93347-76DB-47FB-8F37-014E89A2A0A0";
name = "Regular";
paths = (
{
closed = 1;
nodes = (
"12 -198 LINE",
"154 -40 OFFCURVE",
"244 154 OFFCURVE",
"244 363 CURVE SMOOTH",
"244 472 OFFCURVE",
"220 605 OFFCURVE",
"170 707 CURVE",
"83 707 LINE",
"138 607 OFFCURVE",
"162 473 OFFCURVE",
"162 367 CURVE SMOOTH",
"162 155 OFFCURVE",
"63 -38 OFFCURVE",
"-78 -198 CURVE"
);
}
);
width = 271;
}
);
leftKerningGroup = "parenright";
rightKerningGroup = "zero";
unicode = 0029;
},
{
glyphname = "braceleft";
layers = (
{
layerId = "5CB93347-76DB-47FB-8F37-014E89A2A0A0";
name = "Regular";
paths = (
{
closed = 1;
nodes = (
"155 -212 OFFCURVE",
"174 -208 OFFCURVE",
"195 -202 CURVE",
"204 -148 LINE",
"191 -151 OFFCURVE",
"170 -155 OFFCURVE",
"152 -155 CURVE SMOOTH",
"119 -155 OFFCURVE",
"111 -140 OFFCURVE",
"111 -119 CURVE SMOOTH",
"111 -57 OFFCURVE",
"181 36 OFFCURVE",
"181 132 CURVE SMOOTH",
"181 180 OFFCURVE",
"162 236 OFFCURVE",
"100 250 CURVE",
"244 277 OFFCURVE",
"236 408 OFFCURVE",
"236 532 CURVE SMOOTH",
"236 595 OFFCURVE",
"233 663 OFFCURVE",
"302 663 CURVE SMOOTH",
"317 663 OFFCURVE",
"334 660 OFFCURVE",
"347 656 CURVE",
"356 708 LINE",
"339 714 OFFCURVE",
"318 719 OFFCURVE",
"292 719 CURVE SMOOTH",
"171 719 OFFCURVE",
"158 616 OFFCURVE",
"158 511 CURVE SMOOTH",
"158 411 OFFCURVE",
"167 296 OFFCURVE",
"14 287 CURVE",
"2 221 LINE",
"77 215 OFFCURVE",
"104 180 OFFCURVE",
"104 130 CURVE SMOOTH",
"104 49 OFFCURVE",
"34 -46 OFFCURVE",
"34 -120 CURVE SMOOTH",
"34 -168 OFFCURVE",
"62 -212 OFFCURVE",
"134 -212 CURVE SMOOTH"
);
}
);
width = 301;
}
);
rightKerningGroup = "braceleft";
unicode = 007B;
},
{
glyphname = "braceright";
layers = (
{
layerId = "5CB93347-76DB-47FB-8F37-014E89A2A0A0";
name = "Regular";
paths = (
{
closed = 1;
nodes = (
"129 -212 OFFCURVE",
"143 -109 OFFCURVE",
"143 -4 CURVE SMOOTH",
"143 96 OFFCURVE",
"133 211 OFFCURVE",
"287 220 CURVE",
"298 286 LINE",
"223 292 OFFCURVE",
"196 327 OFFCURVE",
"196 377 CURVE SMOOTH",
"196 458 OFFCURVE",
"267 553 OFFCURVE",
"267 627 CURVE SMOOTH",
"267 674 OFFCURVE",
"238 719 OFFCURVE",
"166 719 CURVE SMOOTH",
"145 719 OFFCURVE",
"126 715 OFFCURVE",
"105 709 CURVE",
"96 655 LINE",
"109 658 OFFCURVE",
"130 662 OFFCURVE",
"148 662 CURVE SMOOTH",
"181 662 OFFCURVE",
"189 647 OFFCURVE",
"189 626 CURVE SMOOTH",
"189 564 OFFCURVE",
"119 471 OFFCURVE",
"119 375 CURVE SMOOTH",
"119 326 OFFCURVE",
"138 270 OFFCURVE",
"200 257 CURVE",
"56 230 OFFCURVE",
"64 99 OFFCURVE",
"64 -26 CURVE SMOOTH",
"64 -89 OFFCURVE",
"67 -157 OFFCURVE",
"-2 -157 CURVE SMOOTH",
"-17 -157 OFFCURVE",
"-34 -153 OFFCURVE",
"-47 -149 CURVE",
"-56 -201 LINE",
"-38 -207 OFFCURVE",
"-18 -212 OFFCURVE",
"9 -212 CURVE SMOOTH"
);
}
);
width = 301;
}
);
leftKerningGroup = "braceright";
rightKerningGroup = "zero";
unicode = 007D;
},
{
glyphname = "bracketleft";
layers = (
{
layerId = "5CB93347-76DB-47FB-8F37-014E89A2A0A0";
name = "Regular";
paths = (
{
closed = 1;
nodes = (
"-2 -198 LINE",
"199 -198 LINE",
"210 -139 LINE",
"88 -139 LINE",
"226 648 LINE",
"348 648 LINE",
"359 707 LINE",
"158 707 LINE"
);
}
);
width = 296;
}
);
rightKerningGroup = "bracketleft";
unicode = 005B;
},
{
glyphname = "bracketright";
layers = (
{
layerId = "5CB93347-76DB-47FB-8F37-014E89A2A0A0";
name = "Regular";
paths = (
{
closed = 1;
nodes = (
"-64 -198 LINE",
"137 -198 LINE",
"297 707 LINE",
"96 707 LINE",
"85 648 LINE",
"207 648 LINE",
"69 -139 LINE",
"-53 -139 LINE"
);
}
);
width = 296;
}
);
leftKerningGroup = "bracketright";
rightKerningGroup = "zero";
unicode = 005D;
},
{
glyphname = "slash";
layers = (
{
layerId = "5CB93347-76DB-47FB-8F37-014E89A2A0A0";
name = "Regular";
paths = (
{
closed = 1;
nodes = (
"-55 -198 LINE",
"26 -198 LINE",
"601 707 LINE",
"521 707 LINE"
);
}
);
width = 544;
}
);
leftKerningGroup = "slash";
rightKerningGroup = "slash";
unicode = 002F;
},
{
glyphname = "backslash";
layers = (
{
layerId = "5CB93347-76DB-47FB-8F37-014E89A2A0A0";
name = "Regular";
paths = (
{
closed = 1;
nodes = (
"350 -198 LINE",
"431 -198 LINE",
"175 707 LINE",
"94 707 LINE"
);
}
);
width = 527;
}
);
leftKerningGroup = "backslash";
rightKerningGroup = "backslash";
unicode = 005C;
},
{
glyphname = "bar";
layers = (
{
layerId = "5CB93347-76DB-47FB-8F37-014E89A2A0A0";
name = "Regular";
paths = (
{
closed = 1;
nodes = (
"-2 -198 LINE",
"77 -198 LINE",
"237 707 LINE",
"158 707 LINE"
);
}
);
width = 236;
}
);
rightKerningGroup = "zero";
unicode = 007C;
},
{
glyphname = "brokenbar";
layers = (
{
layerId = "5CB93347-76DB-47FB-8F37-014E89A2A0A0";
name = "Regular";
paths = (
{
closed = 1;
nodes = (
"95 343 LINE",
"174 343 LINE",
"239 707 LINE",
"160 707 LINE"
);
},
{
closed = 1;
nodes = (
"0 -198 LINE",
"79 -198 LINE",
"150 202 LINE",
"71 202 LINE"
);
}
);
width = 239;
}
);
rightKerningGroup = "zero";
unicode = 00A6;
},
{
glyphname = "onesuperior";
layers = (
{
layerId = "5CB93347-76DB-47FB-8F37-014E89A2A0A0";
name = "Regular";
paths = (
{
closed = 1;
nodes = (
"78 399 LINE",
"308 399 LINE",
"319 457 LINE",
"247 457 LINE",
"306 787 LINE",
"242 787 LINE",
"120 743 LINE",
"111 715 OFFCURVE",
"122 695 OFFCURVE",
"150 695 CURVE SMOOTH",
"174 695 OFFCURVE",
"201 709 OFFCURVE",
"223 724 CURVE",
"176 457 LINE",
"88 457 LINE"
);
}
);
width = 312;
}
);
rightKerningGroup = "zero";
unicode = 00B9;
},
{
glyphname = "twosuperior";
layers = (
{
layerId = "5CB93347-76DB-47FB-8F37-014E89A2A0A0";
name = "Regular";
paths = (
{
closed = 1;
nodes = (
"85 399 LINE",
"369 399 LINE",
"380 456 LINE",
"189 456 LINE",
"295 514 OFFCURVE",
"406 591 OFFCURVE",
"406 690 CURVE SMOOTH",
"406 762 OFFCURVE",
"349 795 OFFCURVE",
"274 795 CURVE SMOOTH",
"189 795 OFFCURVE",
"120 753 OFFCURVE",
"120 707 CURVE SMOOTH",
"120 686 OFFCURVE",
"134 669 OFFCURVE",
"161 669 CURVE SMOOTH",
"187 669 OFFCURVE",
"205 686 OFFCURVE",
"205 711 CURVE SMOOTH",
"205 718 OFFCURVE",
"204 724 OFFCURVE",
"202 728 CURVE",
"219 736 OFFCURVE",
"242 742 OFFCURVE",
"266 742 CURVE SMOOTH",
"315 742 OFFCURVE",
"333 719 OFFCURVE",
"333 687 CURVE SMOOTH",
"333 588 OFFCURVE",
"155 496 OFFCURVE",
"73 442 CURVE"
);
}
);
width = 388;
}
);
rightKerningGroup = "zero";
unicode = 00B2;
},
{
glyphname = "threesuperior";
layers = (
{
layerId = "5CB93347-76DB-47FB-8F37-014E89A2A0A0";
name = "Regular";
paths = (
{
closed = 1;
nodes = (
"303 391 OFFCURVE",
"371 443 OFFCURVE",
"371 516 CURVE SMOOTH",
"371 560 OFFCURVE",
"347 588 OFFCURVE",
"300 601 CURVE",
"357 615 OFFCURVE",
"391 649 OFFCURVE",
"391 698 CURVE SMOOTH",
"391 756 OFFCURVE",
"343 795 OFFCURVE",
"261 795 CURVE SMOOTH",
"187 795 OFFCURVE",
"115 763 OFFCURVE",
"115 715 CURVE SMOOTH",
"115 693 OFFCURVE",
"131 678 OFFCURVE",
"156 678 CURVE SMOOTH",
"182 678 OFFCURVE",
"201 694 OFFCURVE",
"201 718 CURVE SMOOTH",
"201 723 OFFCURVE",
"199 728 OFFCURVE",
"198 732 CURVE",
"213 737 OFFCURVE",
"233 742 OFFCURVE",
"254 742 CURVE SMOOTH",
"297 742 OFFCURVE",
"317 723 OFFCURVE",
"317 693 CURVE SMOOTH",
"317 650 OFFCURVE",
"276 626 OFFCURVE",
"217 626 CURVE SMOOTH",
"188 626 LINE",
"178 574 LINE",
"210 574 LINE SMOOTH",
"264 574 OFFCURVE",
"298 558 OFFCURVE",
"298 516 CURVE SMOOTH",
"298 476 OFFCURVE",
"264 444 OFFCURVE",
"207 444 CURVE SMOOTH",
"183 444 OFFCURVE",
"160 450 OFFCURVE",
"148 456 CURVE",
"151 462 OFFCURVE",
"153 469 OFFCURVE",
"153 475 CURVE SMOOTH",
"153 494 OFFCURVE",
"139 510 OFFCURVE",
"114 510 CURVE SMOOTH",
"83 510 OFFCURVE",
"67 488 OFFCURVE",
"67 465 CURVE SMOOTH",
"67 417 OFFCURVE",
"143 391 OFFCURVE",
"208 391 CURVE SMOOTH"
);
}
);
width = 364;
}
);
rightKerningGroup = "zero";
unicode = 00B3;
},
{
glyphname = "at";
layers = (
{
layerId = "5CB93347-76DB-47FB-8F37-014E89A2A0A0";
name = "Regular";
paths = (
{
closed = 1;
nodes = (
"368 50 OFFCURVE",
"418 83 OFFCURVE",
"452 124 CURVE",
"456 124 LINE",
"455 101 OFFCURVE",
"466 50 OFFCURVE",
"537 50 CURVE SMOOTH",
"633 50 OFFCURVE",
"717 145 OFFCURVE",
"717 295 CURVE SMOOTH",
"717 469 OFFCURVE",
"601 576 OFFCURVE",
"440 576 CURVE SMOOTH",
"236 576 OFFCURVE",
"31 406 OFFCURVE",
"31 188 CURVE SMOOTH",
"31 24 OFFCURVE",
"148 -111 OFFCURVE",
"325 -111 CURVE SMOOTH",
"395 -111 OFFCURVE",
"461 -88 OFFCURVE",
"523 -53 CURVE",
"505 -16 LINE",
"451 -49 OFFCURVE",
"390 -69 OFFCURVE",
"328 -69 CURVE SMOOTH",
"177 -69 OFFCURVE",
"74 43 OFFCURVE",
"74 188 CURVE SMOOTH",
"74 381 OFFCURVE",
"260 533 OFFCURVE",
"436 533 CURVE SMOOTH",
"583 533 OFFCURVE",
"675 441 OFFCURVE",
"675 293 CURVE SMOOTH",
"675 170 OFFCURVE",
"608 92 OFFCURVE",
"550 92 CURVE SMOOTH",
"522 92 OFFCURVE",
"512 112 OFFCURVE",
"512 144 CURVE SMOOTH",
"512 208 OFFCURVE",
"554 310 OFFCURVE",
"590 391 CURVE",
"539 391 LINE",
"532 380 OFFCURVE",
"518 351 OFFCURVE",
"511 336 CURVE",
"508 336 LINE",
"499 372 OFFCURVE",
"468 407 OFFCURVE",
"402 407 CURVE SMOOTH",
"285 407 OFFCURVE",
"189 297 OFFCURVE",
"189 182 CURVE SMOOTH",
"189 99 OFFCURVE",
"238 50 OFFCURVE",
"310 50 CURVE SMOOTH"
);
},
{
closed = 1;
nodes = (
"282 103 OFFCURVE",
"256 131 OFFCURVE",
"256 184 CURVE SMOOTH",
"256 272 OFFCURVE",
"327 355 OFFCURVE",
"406 355 CURVE SMOOTH",
"451 355 OFFCURVE",
"474 328 OFFCURVE",
"474 277 CURVE SMOOTH",
"474 188 OFFCURVE",
"405 103 OFFCURVE",
"327 103 CURVE SMOOTH"
);
}
);
width = 762;
}
);
leftKerningGroup = "at";
rightKerningGroup = "at";
unicode = 0040;
},
{
glyphname = "numbersign";
layers = (
{
layerId = "5CB93347-76DB-47FB-8F37-014E89A2A0A0";
name = "Regular";
paths = (
{
closed = 1;
nodes = (
"72 12 LINE",
"138 12 LINE",
"175 128 LINE",
"303 128 LINE",
"266 12 LINE",
"332 12 LINE",
"369 128 LINE",
"474 128 LINE",
"484 184 LINE",
"387 184 LINE",
"434 331 LINE",
"537 331 LINE",
"547 387 LINE",
"452 387 LINE",
"490 504 LINE",
"423 504 LINE",
"386 387 LINE",
"258 387 LINE",
"295 504 LINE",
"229 504 LINE",
"192 387 LINE",
"91 387 LINE",
"80 331 LINE",
"173 331 LINE",
"127 184 LINE",
"28 184 LINE",
"18 128 LINE",
"109 128 LINE"
);
},
{
closed = 1;
nodes = (
"194 184 LINE",
"240 331 LINE",
"368 331 LINE",
"322 184 LINE"
);
}
);
width = 563;
}
);
rightKerningGroup = "zero";
unicode = 0023;
},
{
glyphname = "ampersand";
layers = (
{
layerId = "5CB93347-76DB-47FB-8F37-014E89A2A0A0";
name = "Regular";
paths = (
{
closed = 1;
nodes = (
"278 -13 OFFCURVE",
"341 14 OFFCURVE",
"391 56 CURVE",
"421 16 OFFCURVE",
"455 -11 OFFCURVE",
"506 -11 CURVE SMOOTH",
"522 -11 OFFCURVE",
"541 -9 OFFCURVE",
"560 -3 CURVE",
"573 66 LINE",
"561 62 OFFCURVE",
"539 58 OFFCURVE",
"526 58 CURVE SMOOTH",
"498 58 OFFCURVE",
"478 76 OFFCURVE",
"450 112 CURVE",
"490 161 OFFCURVE",
"518 220 OFFCURVE",
"535 276 CURVE",
"598 276 LINE",
"610 342 LINE",
"478 342 LINE",
"465 280 OFFCURVE",
"440 220 OFFCURVE",
"405 172 CURVE",
"293 321 LINE",
"366 359 OFFCURVE",
"436 406 OFFCURVE",
"436 493 CURVE SMOOTH",
"436 565 OFFCURVE",
"390 619 OFFCURVE",
"299 619 CURVE SMOOTH",
"200 619 OFFCURVE",
"131 554 OFFCURVE",
"131 464 CURVE SMOOTH",
"131 412 OFFCURVE",
"155 371 OFFCURVE",
"179 339 CURVE",
"98 297 OFFCURVE",
"23 246 OFFCURVE",
"23 143 CURVE SMOOTH",
"23 42 OFFCURVE",
"95 -13 OFFCURVE",
"203 -13 CURVE SMOOTH"
);
},
{
closed = 1;
nodes = (
"139 58 OFFCURVE",
"106 98 OFFCURVE",
"106 150 CURVE SMOOTH",
"106 214 OFFCURVE",
"155 249 OFFCURVE",
"220 284 CURVE",
"348 113 LINE",
"308 79 OFFCURVE",
"261 58 OFFCURVE",
"210 58 CURVE SMOOTH"
);
},
{
closed = 1;
nodes = (
"342 555 OFFCURVE",
"362 523 OFFCURVE",
"362 491 CURVE SMOOTH",
"362 438 OFFCURVE",
"312 405 OFFCURVE",
"253 375 CURVE",
"231 405 OFFCURVE",
"212 434 OFFCURVE",
"212 471 CURVE SMOOTH",
"212 527 OFFCURVE",
"255 555 OFFCURVE",
"297 555 CURVE SMOOTH"
);
}
);
width = 635;
}
);
leftKerningGroup = "ampersand";
rightKerningGroup = "ampersand";
unicode = 0026;
},
{
glyphname = "section";
layers = (
{
layerId = "5CB93347-76DB-47FB-8F37-014E89A2A0A0";
name = "Regular";
paths = (
{
closed = 1;
nodes = (
"259 -88 OFFCURVE",
"323 -42 OFFCURVE",
"323 33 CURVE SMOOTH",
"323 67 OFFCURVE",
"310 91 OFFCURVE",
"290 110 CURVE",
"346 136 OFFCURVE",
"377 171 OFFCURVE",
"377 222 CURVE SMOOTH",
"377 353 OFFCURVE",
"172 335 OFFCURVE",
"172 424 CURVE SMOOTH",
"172 459 OFFCURVE",
"205 483 OFFCURVE",
"255 483 CURVE SMOOTH",
"282 483 OFFCURVE",
"308 476 OFFCURVE",
"322 468 CURVE",
"315 457 OFFCURVE",
"311 448 OFFCURVE",
"311 438 CURVE SMOOTH",
"311 415 OFFCURVE",
"330 398 OFFCURVE",
"356 398 CURVE SMOOTH",
"390 398 OFFCURVE",
"405 424 OFFCURVE",
"405 448 CURVE SMOOTH",
"405 505 OFFCURVE",
"322 535 OFFCURVE",
"255 535 CURVE SMOOTH",
"174 535 OFFCURVE",
"100 492 OFFCURVE",
"100 410 CURVE SMOOTH",
"100 378 OFFCURVE",
"111 355 OFFCURVE",
"130 336 CURVE",
"86 315 OFFCURVE",
"43 282 OFFCURVE",
"43 225 CURVE SMOOTH",
"43 98 OFFCURVE",
"252 106 OFFCURVE",
"252 21 CURVE SMOOTH",
"252 -16 OFFCURVE",
"214 -36 OFFCURVE",
"167 -36 CURVE SMOOTH",
"137 -36 OFFCURVE",
"103 -28 OFFCURVE",
"88 -17 CURVE",
"95 -8 OFFCURVE",
"99 1 OFFCURVE",
"99 11 CURVE SMOOTH",
"99 35 OFFCURVE",
"81 52 OFFCURVE",
"54 52 CURVE SMOOTH",
"22 52 OFFCURVE",
"5 26 OFFCURVE",
"5 4 CURVE SMOOTH",
"5 -45 OFFCURVE",
"82 -88 OFFCURVE",
"169 -88 CURVE SMOOTH"
);
},
{
closed = 1;
nodes = (
"188 173 OFFCURVE",
"115 189 OFFCURVE",
"115 241 CURVE SMOOTH",
"115 271 OFFCURVE",
"140 291 OFFCURVE",
"175 306 CURVE",
"233 276 OFFCURVE",
"304 260 OFFCURVE",
"304 207 CURVE SMOOTH",
"304 172 OFFCURVE",
"275 153 OFFCURVE",
"248 141 CURVE"
);
}
);
width = 430;
}
);
rightKerningGroup = "zero";
unicode = 00A7;
},
{
glyphname = "paragraph";
layers = (
{
layerId = "5CB93347-76DB-47FB-8F37-014E89A2A0A0";
name = "Regular";
paths = (
{
closed = 1;
nodes = (
"112 -76 LINE",
"488 -76 LINE",
"497 -26 LINE",
"412 -26 LINE",
"500 473 LINE",
"585 473 LINE",
"594 524 LINE",
"273 524 LINE SMOOTH",
"148 524 OFFCURVE",
"41 422 OFFCURVE",
"41 308 CURVE SMOOTH",
"41 213 OFFCURVE",
"116 148 OFFCURVE",
"207 148 CURVE SMOOTH",
"251 148 LINE",
"221 -26 LINE",
"121 -26 LINE"
);
},
{
closed = 1;
nodes = (
"281 -26 LINE",
"369 473 LINE",
"440 473 LINE",
"352 -26 LINE"
);
}
);
width = 591;
}
);
rightKerningGroup = "zero";
unicode = 00B6;
},
{
glyphname = "dagger";
layers = (
{
layerId = "5CB93347-76DB-47FB-8F37-014E89A2A0A0";
name = "Regular";
paths = (
{
closed = 1;
nodes = (
"198 -79 OFFCURVE",
"207 3 OFFCURVE",
"218 74 CURVE SMOOTH",
"229 140 OFFCURVE",
"254 238 OFFCURVE",
"282 288 CURVE",
"274 309 OFFCURVE",
"263 330 OFFCURVE",
"263 352 CURVE SMOOTH",
"263 384 OFFCURVE",
"285 411 OFFCURVE",
"324 411 CURVE SMOOTH",
"356 411 OFFCURVE",
"377 391 OFFCURVE",
"411 391 CURVE SMOOTH",
"444 391 OFFCURVE",
"463 410 OFFCURVE",
"463 431 CURVE SMOOTH",
"463 448 OFFCURVE",
"451 463 OFFCURVE",
"424 463 CURVE SMOOTH",
"392 463 OFFCURVE",
"361 443 OFFCURVE",
"330 443 CURVE SMOOTH",
"300 443 OFFCURVE",
"286 462 OFFCURVE",
"286 486 CURVE SMOOTH",
"286 526 OFFCURVE",
"325 553 OFFCURVE",
"325 594 CURVE SMOOTH",
"325 620 OFFCURVE",
"310 631 OFFCURVE",
"293 631 CURVE SMOOTH",
"270 631 OFFCURVE",
"249 612 OFFCURVE",
"249 572 CURVE SMOOTH",
"249 552 OFFCURVE",
"256 531 OFFCURVE",
"256 511 CURVE SMOOTH",
"256 469 OFFCURVE",
"230 443 OFFCURVE",
"194 443 CURVE SMOOTH",
"163 443 OFFCURVE",
"141 463 OFFCURVE",
"107 463 CURVE SMOOTH",
"75 463 OFFCURVE",
"56 446 OFFCURVE",
"56 424 CURVE SMOOTH",
"56 407 OFFCURVE",
"68 391 OFFCURVE",
"96 391 CURVE SMOOTH",
"127 391 OFFCURVE",
"157 411 OFFCURVE",
"188 411 CURVE SMOOTH",
"218 411 OFFCURVE",
"232 394 OFFCURVE",
"232 368 CURVE SMOOTH",
"232 343 OFFCURVE",
"212 320 OFFCURVE",
"186 288 CURVE",
"189 274 OFFCURVE",
"191 222 OFFCURVE",
"191 194 CURVE SMOOTH",
"191 82 OFFCURVE",
"163 -2 OFFCURVE",
"163 -53 CURVE SMOOTH",
"163 -72 OFFCURVE",
"167 -79 OFFCURVE",
"174 -79 CURVE SMOOTH"
);
}
);
width = 459;
}
);
rightKerningGroup = "zero";
unicode = 2020;
},
{
glyphname = "daggerdbl";
layers = (
{
layerId = "5CB93347-76DB-47FB-8F37-014E89A2A0A0";
name = "Regular";
paths = (
{
closed = 1;
nodes = (
"211 -80 OFFCURVE",
"233 -59 OFFCURVE",
"233 -20 CURVE SMOOTH",
"233 0 OFFCURVE",
"226 20 OFFCURVE",
"226 40 CURVE SMOOTH",
"226 83 OFFCURVE",
"251 109 OFFCURVE",
"288 109 CURVE SMOOTH",
"319 109 OFFCURVE",
"340 88 OFFCURVE",
"375 88 CURVE SMOOTH",
"408 88 OFFCURVE",
"426 106 OFFCURVE",
"426 127 CURVE SMOOTH",
"426 145 OFFCURVE",
"414 160 OFFCURVE",
"387 160 CURVE SMOOTH",
"355 160 OFFCURVE",
"324 140 OFFCURVE",
"293 140 CURVE SMOOTH",
"262 140 OFFCURVE",
"249 158 OFFCURVE",
"249 182 CURVE SMOOTH",
"249 207 OFFCURVE",
"271 240 OFFCURVE",
"296 276 CURVE",
"289 298 OFFCURVE",
"280 329 OFFCURVE",
"280 350 CURVE SMOOTH",
"280 384 OFFCURVE",
"303 411 OFFCURVE",
"341 411 CURVE SMOOTH",
"373 411 OFFCURVE",
"394 391 OFFCURVE",
"429 391 CURVE SMOOTH",
"462 391 OFFCURVE",
"480 410 OFFCURVE",
"480 431 CURVE SMOOTH",
"480 448 OFFCURVE",
"467 463 OFFCURVE",
"440 463 CURVE SMOOTH",
"408 463 OFFCURVE",
"378 443 OFFCURVE",
"347 443 CURVE SMOOTH",
"316 443 OFFCURVE",
"303 462 OFFCURVE",
"303 486 CURVE SMOOTH",
"303 526 OFFCURVE",
"342 552 OFFCURVE",
"342 594 CURVE SMOOTH",
"342 620 OFFCURVE",
"327 631 OFFCURVE",
"310 631 CURVE SMOOTH",
"287 631 OFFCURVE",
"265 611 OFFCURVE",
"265 571 CURVE SMOOTH",
"265 552 OFFCURVE",
"273 531 OFFCURVE",
"273 511 CURVE SMOOTH",
"273 469 OFFCURVE",
"247 443 OFFCURVE",
"211 443 CURVE SMOOTH",
"179 443 OFFCURVE",
"158 463 OFFCURVE",
"123 463 CURVE SMOOTH",
"92 463 OFFCURVE",
"72 446 OFFCURVE",
"72 424 CURVE SMOOTH",
"72 406 OFFCURVE",
"85 391 OFFCURVE",
"112 391 CURVE SMOOTH",
"143 391 OFFCURVE",
"174 411 OFFCURVE",
"205 411 CURVE SMOOTH",
"236 411 OFFCURVE",
"249 393 OFFCURVE",
"249 369 CURVE SMOOTH",
"249 344 OFFCURVE",
"227 310 OFFCURVE",
"202 276 CURVE",
"209 254 OFFCURVE",
"219 222 OFFCURVE",
"219 202 CURVE SMOOTH",
"219 168 OFFCURVE",
"196 140 OFFCURVE",
"158 140 CURVE SMOOTH",
"126 140 OFFCURVE",
"104 160 OFFCURVE",
"70 160 CURVE SMOOTH",
"38 160 OFFCURVE",
"19 142 OFFCURVE",
"19 120 CURVE SMOOTH",
"19 104 OFFCURVE",
"31 88 OFFCURVE",
"58 88 CURVE SMOOTH",
"90 88 OFFCURVE",
"121 109 OFFCURVE",
"152 109 CURVE SMOOTH",
"182 109 OFFCURVE",
"195 90 OFFCURVE",
"195 66 CURVE SMOOTH",
"195 25 OFFCURVE",
"157 0 OFFCURVE",
"157 -43 CURVE SMOOTH",
"157 -68 OFFCURVE",
"171 -80 OFFCURVE",
"188 -80 CURVE SMOOTH"
);
}
);
width = 489;
}
);
rightKerningGroup = "zero";
unicode = 2021;
},
{
glyphname = "cent";
layers = (
{
layerId = "5CB93347-76DB-47FB-8F37-014E89A2A0A0";
name = "Regular";
paths = (
{
closed = 1;
nodes = (
"83 -70 LINE",
"147 54 LINE",
"164 49 OFFCURVE",
"184 47 OFFCURVE",
"205 47 CURVE SMOOTH",
"308 47 OFFCURVE",
"372 103 OFFCURVE",
"397 192 CURVE",
"326 192 LINE",
"309 141 OFFCURVE",
"271 100 OFFCURVE",
"209 100 CURVE SMOOTH",
"196 100 OFFCURVE",
"185 101 OFFCURVE",
"174 105 CURVE",
"317 380 LINE",
"339 363 OFFCURVE",
"347 335 OFFCURVE",
"346 305 CURVE",
"414 305 LINE",
"415 366 OFFCURVE",
"391 411 OFFCURVE",
"344 433 CURVE",
"390 520 LINE",
"364 528 LINE",
"319 442 LINE",
"301 448 OFFCURVE",
"282 450 OFFCURVE",
"260 450 CURVE SMOOTH",
"118 450 OFFCURVE",
"37 341 OFFCURVE",
"37 217 CURVE SMOOTH",
"37 143 OFFCURVE",
"66 89 OFFCURVE",
"121 63 CURVE",
"56 -62 LINE"
);
},
{
closed = 1;
nodes = (
"150 118 LINE",
"123 137 OFFCURVE",
"109 172 OFFCURVE",
"109 217 CURVE SMOOTH",
"109 308 OFFCURVE",
"166 397 OFFCURVE",
"260 397 CURVE SMOOTH",
"272 397 OFFCURVE",
"283 396 OFFCURVE",
"293 392 CURVE"
);
}
);
width = 454;
}
);
rightKerningGroup = "zero";
unicode = 00A2;
},
{
glyphname = "sterling";
layers = (
{
layerId = "5CB93347-76DB-47FB-8F37-014E89A2A0A0";
name = "Regular";
paths = (
{
closed = 1;
nodes = (
"33 -3 LINE",
"68 9 OFFCURVE",
"91 14 OFFCURVE",
"121 14 CURVE SMOOTH",
"183 14 OFFCURVE",
"226 -8 OFFCURVE",
"294 -8 CURVE SMOOTH",
"359 -8 OFFCURVE",
"409 13 OFFCURVE",
"461 72 CURVE",
"415 115 LINE",
"381 75 OFFCURVE",
"346 55 OFFCURVE",
"289 55 CURVE SMOOTH",
"239 55 OFFCURVE",
"209 69 OFFCURVE",
"164 70 CURVE",
"183 86 OFFCURVE",
"212 119 OFFCURVE",
"212 170 CURVE SMOOTH",
"212 186 OFFCURVE",
"208 204 OFFCURVE",
"204 223 CURVE",
"362 223 LINE",
"368 258 LINE",
"196 258 LINE",
"190 281 OFFCURVE",
"186 304 OFFCURVE",
"186 327 CURVE SMOOTH",
"186 393 OFFCURVE",
"227 440 OFFCURVE",
"310 440 CURVE SMOOTH",
"397 440 OFFCURVE",
"411 389 OFFCURVE",
"406 347 CURVE",
"485 347 LINE",
"492 405 OFFCURVE",
"462 501 OFFCURVE",
"311 501 CURVE SMOOTH",
"170 501 OFFCURVE",
"104 418 OFFCURVE",
"104 328 CURVE SMOOTH",
"104 304 OFFCURVE",
"108 280 OFFCURVE",
"113 258 CURVE",
"41 258 LINE",
"35 223 LINE",
"122 223 LINE",
"127 201 OFFCURVE",
"132 180 OFFCURVE",
"132 163 CURVE SMOOTH",
"132 110 OFFCURVE",
"94 62 OFFCURVE",
"19 37 CURVE"
);
}
);
width = 526;
}
);
rightKerningGroup = "zero";
unicode = 00A3;
},
{
glyphname = "yen";
layers = (
{
layerId = "5CB93347-76DB-47FB-8F37-014E89A2A0A0";
name = "Regular";
paths = (
{
closed = 1;
nodes = (
"135 0 LINE",
"375 0 LINE",
"385 57 LINE",
"306 57 LINE",
"318 128 LINE",
"478 128 LINE",
"485 165 LINE",
"325 165 LINE",
"328 182 LINE",
"377 241 LINE",
"498 241 LINE",
"504 277 LINE",
"408 277 LINE",
"536 431 LINE",
"601 431 LINE",
"612 491 LINE",
"382 491 LINE",
"371 431 LINE",
"445 431 LINE",
"295 243 LINE",
"211 431 LINE",
"285 431 LINE",
"296 491 LINE",
"72 491 LINE",
"61 431 LINE",
"127 431 LINE",
"200 277 LINE",
"104 277 LINE",
"98 241 LINE",
"218 241 LINE",
"247 182 LINE",
"244 165 LINE",
"85 165 LINE",
"78 128 LINE",
"237 128 LINE",
"224 57 LINE",
"145 57 LINE"
);
}
);
width = 604;
}
);
rightKerningGroup = "zero";
unicode = 00A5;
},
{
glyphname = "dollar";
layers = (
{
layerId = "5CB93347-76DB-47FB-8F37-014E89A2A0A0";
name = "Regular";
paths = (
{
closed = 1;
nodes = (
"158 -102 LINE",
"183 -102 LINE",
"198 -8 LINE",
"203 -8 OFFCURVE",
"208 -8 OFFCURVE",
"213 -8 CURVE SMOOTH",
"345 -8 OFFCURVE",
"401 63 OFFCURVE",
"401 138 CURVE SMOOTH",
"401 229 OFFCURVE",
"320 257 OFFCURVE",
"249 284 CURVE",
"275 440 LINE",
"303 437 OFFCURVE",
"328 430 OFFCURVE",
"344 423 CURVE",
"340 417 OFFCURVE",
"336 408 OFFCURVE",
"336 398 CURVE SMOOTH",
"336 373 OFFCURVE",
"357 353 OFFCURVE",
"386 353 CURVE SMOOTH",
"420 353 OFFCURVE",
"435 380 OFFCURVE",
"435 404 CURVE SMOOTH",
"435 452 OFFCURVE",
"368 490 OFFCURVE",
"286 499 CURVE",
"298 565 LINE",
"273 565 LINE",
"262 501 LINE",
"252 501 LINE SMOOTH",
"126 501 OFFCURVE",
"67 432 OFFCURVE",
"67 357 CURVE SMOOTH",
"67 272 OFFCURVE",
"143 242 OFFCURVE",
"213 216 CURVE",
"185 53 LINE",
"147 57 OFFCURVE",
"119 68 OFFCURVE",
"98 80 CURVE",
"103 87 OFFCURVE",
"107 97 OFFCURVE",
"107 107 CURVE SMOOTH",
"107 129 OFFCURVE",
"88 149 OFFCURVE",
"59 149 CURVE SMOOTH",
"26 149 OFFCURVE",
"8 124 OFFCURVE",
"8 98 CURVE SMOOTH",
"8 45 OFFCURVE",
"84 3 OFFCURVE",
"175 -6 CURVE"
);
},
{
closed = 1;
nodes = (
"235 207 LINE",
"283 188 OFFCURVE",
"323 167 OFFCURVE",
"323 125 CURVE SMOOTH",
"323 81 OFFCURVE",
"281 53 OFFCURVE",
"209 53 CURVE"
);
},
{
closed = 1;
nodes = (
"226 293 LINE",
"182 311 OFFCURVE",
"145 330 OFFCURVE",
"145 370 CURVE SMOOTH",
"145 410 OFFCURVE",
"182 440 OFFCURVE",
"252 441 CURVE"
);
}
);
width = 467;
}
);
rightKerningGroup = "zero";
unicode = 0024;
},
{
glyphname = "Euro";
layers = (
{
layerId = "5CB93347-76DB-47FB-8F37-014E89A2A0A0";
name = "Regular";
paths = (
{
closed = 1;
nodes = (
"386 -8 OFFCURVE",
"445 11 OFFCURVE",
"494 36 CURVE",
"507 110 LINE",
"458 84 OFFCURVE",
"400 62 OFFCURVE",
"337 62 CURVE SMOOTH",
"248 62 OFFCURVE",
"199 109 OFFCURVE",
"188 186 CURVE",
"335 186 LINE",
"352 218 LINE",
"186 218 LINE",
"186 243 OFFCURVE",
"189 263 OFFCURVE",
"193 283 CURVE",
"386 283 LINE",
"403 315 LINE",
"205 315 LINE",
"239 389 OFFCURVE",
"311 433 OFFCURVE",
"399 433 CURVE SMOOTH",
"431 433 OFFCURVE",
"463 427 OFFCURVE",
"484 421 CURVE",
"470 342 LINE",
"542 342 LINE",
"564 465 LINE",
"529 482 OFFCURVE",
"468 500 OFFCURVE",
"398 500 CURVE SMOOTH",
"254 500 OFFCURVE",
"156 422 OFFCURVE",
"119 315 CURVE",
"55 315 LINE",
"38 283 LINE",
"110 283 LINE",
"105 262 OFFCURVE",
"102 240 OFFCURVE",
"102 218 CURVE",
"38 218 LINE",
"21 186 LINE",
"104 186 LINE",
"115 62 OFFCURVE",
"204 -8 OFFCURVE",
"324 -8 CURVE SMOOTH"
);
}
);
width = 589;
}
);
rightKerningGroup = "zero";
unicode = 20AC;
},
{
glyphname = "currency";
layers = (
{
layerId = "5CB93347-76DB-47FB-8F37-014E89A2A0A0";
name = "Regular";
paths = (
{
closed = 1;
nodes = (
"303 55 OFFCURVE",
"348 68 OFFCURVE",
"387 93 CURVE",
"437 30 LINE",
"487 72 LINE",
"435 131 LINE",
"474 172 OFFCURVE",
"500 227 OFFCURVE",
"500 289 CURVE SMOOTH",
"500 329 OFFCURVE",
"489 365 OFFCURVE",
"469 394 CURVE",
"535 448 LINE",
"497 495 LINE",
"430 437 LINE",
"399 461 OFFCURVE",
"359 475 OFFCURVE",
"314 475 CURVE SMOOTH",
"268 475 OFFCURVE",
"223 461 OFFCURVE",
"184 437 CURVE",
"135 500 LINE",
"85 458 LINE",
"136 398 LINE",
"96 358 OFFCURVE",
"70 304 OFFCURVE",
"70 241 CURVE SMOOTH",
"70 201 OFFCURVE",
"81 165 OFFCURVE",
"100 136 CURVE",
"35 83 LINE",
"74 36 LINE",
"140 92 LINE",
"172 68 OFFCURVE",
"211 55 OFFCURVE",
"257 55 CURVE SMOOTH"
);
},
{
closed = 1;
nodes = (
"187 118 OFFCURVE",
"137 168 OFFCURVE",
"137 240 CURVE SMOOTH",
"137 334 OFFCURVE",
"217 412 OFFCURVE",
"310 412 CURVE SMOOTH",
"386 412 OFFCURVE",
"433 362 OFFCURVE",
"433 289 CURVE SMOOTH",
"433 196 OFFCURVE",
"354 118 OFFCURVE",
"261 118 CURVE SMOOTH"
);
}
);
width = 568;
}
);
rightKerningGroup = "zero";
unicode = 00A4;
},
{
glyphname = "percent";
layers = (
{
layerId = "5CB93347-76DB-47FB-8F37-014E89A2A0A0";
name = "Regular";
paths = (
{
closed = 1;
nodes = (
"252 233 OFFCURVE",
"297 303 OFFCURVE",
"297 378 CURVE SMOOTH",
"297 445 OFFCURVE",
"261 484 OFFCURVE",
"193 484 CURVE SMOOTH",
"103 484 OFFCURVE",
"57 415 OFFCURVE",
"57 340 CURVE SMOOTH",
"57 273 OFFCURVE",
"93 233 OFFCURVE",
"161 233 CURVE SMOOTH"
);
},
{
closed = 1;
nodes = (
"135 281 OFFCURVE",
"119 302 OFFCURVE",
"119 343 CURVE SMOOTH",
"119 398 OFFCURVE",
"148 437 OFFCURVE",
"189 437 CURVE SMOOTH",
"220 437 OFFCURVE",
"235 416 OFFCURVE",
"235 375 CURVE SMOOTH",
"235 319 OFFCURVE",
"206 281 OFFCURVE",
"165 281 CURVE SMOOTH"
);
},
{
closed = 1;
nodes = (
"546 0 OFFCURVE",
"591 70 OFFCURVE",
"591 145 CURVE SMOOTH",
"591 212 OFFCURVE",
"555 251 OFFCURVE",
"488 251 CURVE SMOOTH",
"398 251 OFFCURVE",
"351 182 OFFCURVE",
"351 106 CURVE SMOOTH",
"351 40 OFFCURVE",
"387 0 OFFCURVE",
"456 0 CURVE SMOOTH"
);
},
{
closed = 1;
nodes = (
"429 47 OFFCURVE",
"414 68 OFFCURVE",
"414 109 CURVE SMOOTH",
"414 165 OFFCURVE",
"442 203 OFFCURVE",
"483 203 CURVE SMOOTH",
"514 203 OFFCURVE",
"529 182 OFFCURVE",
"529 141 CURVE SMOOTH",
"529 85 OFFCURVE",
"500 47 OFFCURVE",
"460 47 CURVE SMOOTH"
);
},
{
closed = 1;
nodes = (
"101 0 LINE",
"580 449 LINE",
"547 483 LINE",
"67 33 LINE"
);
}
);
width = 652;
}
);
rightKerningGroup = "zero";
unicode = 0025;
},
{
glyphname = "perthousand";
layers = (
{
layerId = "5CB93347-76DB-47FB-8F37-014E89A2A0A0";
name = "Regular";
paths = (
{
closed = 1;
nodes = (
"258 233 OFFCURVE",
"304 303 OFFCURVE",
"304 378 CURVE SMOOTH",
"304 445 OFFCURVE",
"268 484 OFFCURVE",
"200 484 CURVE SMOOTH",
"110 484 OFFCURVE",
"64 415 OFFCURVE",
"64 340 CURVE SMOOTH",
"64 273 OFFCURVE",
"100 233 OFFCURVE",
"168 233 CURVE SMOOTH"
);
},
{
closed = 1;
nodes = (
"141 281 OFFCURVE",
"126 302 OFFCURVE",
"126 343 CURVE SMOOTH",
"126 398 OFFCURVE",
"155 437 OFFCURVE",
"195 437 CURVE SMOOTH",
"226 437 OFFCURVE",
"242 416 OFFCURVE",
"242 375 CURVE SMOOTH",
"242 319 OFFCURVE",
"213 281 OFFCURVE",
"172 281 CURVE SMOOTH"
);
},
{
closed = 1;
nodes = (
"529 0 OFFCURVE",
"575 70 OFFCURVE",
"575 145 CURVE SMOOTH",
"575 212 OFFCURVE",
"538 251 OFFCURVE",
"471 251 CURVE SMOOTH",
"381 251 OFFCURVE",
"335 182 OFFCURVE",
"335 106 CURVE SMOOTH",
"335 40 OFFCURVE",
"370 0 OFFCURVE",
"439 0 CURVE SMOOTH"
);
},
{
closed = 1;
nodes = (
"412 47 OFFCURVE",
"397 68 OFFCURVE",
"397 109 CURVE SMOOTH",
"397 165 OFFCURVE",
"426 203 OFFCURVE",
"466 203 CURVE SMOOTH",
"497 203 OFFCURVE",
"513 182 OFFCURVE",
"513 141 CURVE SMOOTH",
"513 85 OFFCURVE",
"484 47 OFFCURVE",
"443 47 CURVE SMOOTH"
);
},
{
closed = 1;
nodes = (
"97 0 LINE",
"576 449 LINE",
"543 483 LINE",
"63 33 LINE"
);
},
{
closed = 1;
nodes = (
"799 0 OFFCURVE",
"845 70 OFFCURVE",
"845 145 CURVE SMOOTH",
"845 212 OFFCURVE",
"809 251 OFFCURVE",
"741 251 CURVE SMOOTH",
"651 251 OFFCURVE",
"605 182 OFFCURVE",
"605 106 CURVE SMOOTH",
"605 40 OFFCURVE",
"641 0 OFFCURVE",
"709 0 CURVE SMOOTH"
);
},
{
closed = 1;
nodes = (
"682 47 OFFCURVE",
"667 68 OFFCURVE",
"667 109 CURVE SMOOTH",
"667 165 OFFCURVE",
"696 203 OFFCURVE",
"737 203 CURVE SMOOTH",
"767 203 OFFCURVE",
"783 182 OFFCURVE",
"783 141 CURVE SMOOTH",
"783 85 OFFCURVE",
"754 47 OFFCURVE",
"713 47 CURVE SMOOTH"
);
}
);
width = 897;
}
);
rightKerningGroup = "zero";
unicode = 2030;
},
{
glyphname = "guillemotleft";
layers = (
{
layerId = "5CB93347-76DB-47FB-8F37-014E89A2A0A0";
name = "Regular";
paths = (
{
closed = 1;
nodes = (
"152 75 LINE",
"241 75 LINE",
"121 251 LINE",
"317 442 LINE",
"217 442 LINE",
"34 261 LINE",
"33 257 LINE"
);
},
{
closed = 1;
nodes = (
"376 75 LINE",
"465 75 LINE",
"345 251 LINE",
"542 442 LINE",
"441 442 LINE",
"258 261 LINE",
"257 257 LINE"
);
}
);
width = 539;
}
);
leftKerningGroup = "guillemotleft";
rightKerningGroup = "guillemotleft";
unicode = 00AB;
},
{
glyphname = "guillemotright";
layers = (
{
layerId = "5CB93347-76DB-47FB-8F37-014E89A2A0A0";
name = "Regular";
paths = (
{
closed = 1;
nodes = (
"225 75 LINE",
"326 75 LINE",
"509 257 LINE",
"510 261 LINE",
"390 442 LINE",
"301 442 LINE",
"421 267 LINE"
);
},
{
closed = 1;
nodes = (
"1 75 LINE",
"101 75 LINE",
"284 257 LINE",
"285 261 LINE",
"166 442 LINE",
"77 442 LINE",
"197 267 LINE"
);
}
);
width = 541;
}
);
leftKerningGroup = "guillemotright";
rightKerningGroup = "guillemotright";
unicode = 00BB;
},
{
glyphname = "guilsinglleft";
layers = (
{
layerId = "5CB93347-76DB-47FB-8F37-014E89A2A0A0";
name = "Regular";
paths = (
{
closed = 1;
nodes = (
"152 75 LINE",
"241 75 LINE",
"121 251 LINE",
"317 442 LINE",
"217 442 LINE",
"34 261 LINE",
"33 257 LINE"
);
}
);
width = 315;
}
);
leftKerningGroup = "guillemotleft";
rightKerningGroup = "guillemotleft";
unicode = 2039;
},
{
glyphname = "guilsinglright";
layers = (
{
layerId = "5CB93347-76DB-47FB-8F37-014E89A2A0A0";
name = "Regular";
paths = (
{
closed = 1;
nodes = (
"1 75 LINE",
"101 75 LINE",
"284 257 LINE",
"285 261 LINE",
"166 442 LINE",
"77 442 LINE",
"197 267 LINE"
);
}
);
width = 316;
}
);
leftKerningGroup = "guillemotright";
rightKerningGroup = "guillemotright";
unicode = 203A;
},
{
glyphname = "copyright";
layers = (
{
layerId = "5CB93347-76DB-47FB-8F37-014E89A2A0A0";
name = "Regular";
paths = (
{
closed = 1;
nodes = (
"538 -53 OFFCURVE",
"680 89 OFFCURVE",
"680 264 CURVE SMOOTH",
"680 439 OFFCURVE",
"538 581 OFFCURVE",
"363 581 CURVE SMOOTH",
"188 581 OFFCURVE",
"46 439 OFFCURVE",
"46 264 CURVE SMOOTH",
"46 89 OFFCURVE",
"188 -53 OFFCURVE",
"363 -53 CURVE SMOOTH"
);
},
{
closed = 1;
nodes = (
"210 -13 OFFCURVE",
"86 111 OFFCURVE",
"86 264 CURVE SMOOTH",
"86 417 OFFCURVE",
"210 541 OFFCURVE",
"363 541 CURVE SMOOTH",
"517 541 OFFCURVE",
"640 417 OFFCURVE",
"640 264 CURVE SMOOTH",
"640 111 OFFCURVE",
"517 -13 OFFCURVE",
"363 -13 CURVE SMOOTH"
);
},
{
closed = 1;
nodes = (
"418 83 OFFCURVE",
"462 96 OFFCURVE",
"493 114 CURVE",
"493 168 LINE",
"462 150 OFFCURVE",
"421 134 OFFCURVE",
"377 134 CURVE SMOOTH",
"296 134 OFFCURVE",
"252 191 OFFCURVE",
"252 268 CURVE SMOOTH",
"252 347 OFFCURVE",
"300 396 OFFCURVE",
"378 396 CURVE SMOOTH",
"402 396 OFFCURVE",
"423 392 OFFCURVE",
"440 386 CURVE",
"440 322 LINE",
"494 322 LINE",
"494 420 LINE",
"466 432 OFFCURVE",
"423 446 OFFCURVE",
"374 446 CURVE SMOOTH",
"263 446 OFFCURVE",
"190 375 OFFCURVE",
"190 264 CURVE SMOOTH",
"190 152 OFFCURVE",
"264 83 OFFCURVE",
"370 83 CURVE SMOOTH"
);
}
);
width = 723;
}
);
leftKerningGroup = "copyright";
rightKerningGroup = "zero";
unicode = 00A9;
},
{
glyphname = "registered";
layers = (
{
layerId = "5CB93347-76DB-47FB-8F37-014E89A2A0A0";
name = "Regular";
paths = (
{
closed = 1;
nodes = (
"330 260 OFFCURVE",
"405 335 OFFCURVE",
"405 427 CURVE SMOOTH",
"405 520 OFFCURVE",
"330 594 OFFCURVE",
"238 594 CURVE SMOOTH",
"145 594 OFFCURVE",
"71 520 OFFCURVE",
"71 427 CURVE SMOOTH",
"71 335 OFFCURVE",
"145 260 OFFCURVE",
"238 260 CURVE SMOOTH"
);
},
{
closed = 1;
nodes = (
"160 288 OFFCURVE",
"98 350 OFFCURVE",
"98 427 CURVE SMOOTH",
"98 504 OFFCURVE",
"160 568 OFFCURVE",
"238 568 CURVE SMOOTH",
"315 568 OFFCURVE",
"378 504 OFFCURVE",
"378 427 CURVE SMOOTH",
"378 350 OFFCURVE",
"315 288 OFFCURVE",
"238 288 CURVE SMOOTH"
);
},
{
closed = 1;
nodes = (
"160 348 LINE",
"239 348 LINE",
"239 371 LINE",
"215 371 LINE",
"215 407 LINE",
"245 407 LINE",
"279 348 LINE",
"324 348 LINE",
"324 371 LINE",
"300 371 LINE",
"275 413 LINE",
"292 418 OFFCURVE",
"310 433 OFFCURVE",
"310 458 CURVE SMOOTH",
"310 485 OFFCURVE",
"288 507 OFFCURVE",
"246 507 CURVE SMOOTH",
"160 507 LINE",
"160 483 LINE",
"184 483 LINE",
"184 371 LINE",
"160 371 LINE"
);
},
{
closed = 1;
nodes = (
"215 431 LINE",
"215 483 LINE",
"245 483 LINE SMOOTH",
"267 483 OFFCURVE",
"278 473 OFFCURVE",
"278 458 CURVE SMOOTH",
"278 441 OFFCURVE",
"266 431 OFFCURVE",
"245 431 CURVE SMOOTH"
);
}
);
width = 419;
}
);
leftKerningGroup = "registered";
rightKerningGroup = "zero";
unicode = 00AE;
},
{
glyphname = "trademark";
layers = (
{
layerId = "5CB93347-76DB-47FB-8F37-014E89A2A0A0";
name = "Regular";
paths = (
{
closed = 1;
nodes = (
"338 361 LINE",
"446 361 LINE",
"452 391 LINE",
"416 391 LINE",
"450 555 LINE",
"496 381 LINE",
"525 381 LINE",
"628 552 LINE",
"606 391 LINE",
"571 391 LINE",
"565 361 LINE",
"671 361 LINE",
"677 391 LINE",
"644 391 LINE",
"670 577 LINE",
"704 577 LINE",
"709 609 LINE",
"623 609 LINE",
"517 431 LINE",
"473 609 LINE",
"387 609 LINE",
"382 578 LINE",
"416 578 LINE",
"377 391 LINE",
"344 391 LINE"
);
},
{
closed = 1;
nodes = (
"134 361 LINE",
"250 361 LINE",
"256 391 LINE",
"220 391 LINE",
"252 575 LINE",
"308 575 LINE",
"300 531 LINE",
"335 531 LINE",
"348 609 LINE",
"124 609 LINE",
"111 531 LINE",
"146 531 LINE",
"154 575 LINE",
"209 575 LINE",
"177 391 LINE",
"140 391 LINE"
);
}
);
width = 713;
}
);
leftKerningGroup = "trademark";
rightKerningGroup = "zero";
unicode = 2122;
},
{
glyphname = "asciicircum";
layers = (
{
layerId = "5CB93347-76DB-47FB-8F37-014E89A2A0A0";
name = "Regular";
paths = (
{
closed = 1;
nodes = (
"53 338 LINE",
"136 338 LINE",
"278 543 LINE",
"347 338 LINE",
"423 338 LINE",
"313 628 LINE",
"266 628 LINE"
);
}
);
width = 443;
}
);
rightKerningGroup = "zero";
unicode = 005E;
},
{
glyphname = "asterisk";
layers = (
{
layerId = "5CB93347-76DB-47FB-8F37-014E89A2A0A0";
name = "Regular";
paths = (
{
closed = 1;
nodes = (
"212 322 OFFCURVE",
"231 332 OFFCURVE",
"236 356 CURVE",
"241 375 OFFCURVE",
"231 422 OFFCURVE",
"229 467 CURVE",
"224 467 LINE",
"204 425 OFFCURVE",
"175 382 OFFCURVE",
"171 363 CURVE SMOOTH",
"166 338 OFFCURVE",
"180 326 OFFCURVE",
"196 324 CURVE SMOOTH"
);
},
{
closed = 1;
nodes = (
"248 641 OFFCURVE",
"229 631 OFFCURVE",
"223 608 CURVE",
"219 589 OFFCURVE",
"229 542 OFFCURVE",
"230 497 CURVE",
"235 496 LINE",
"255 539 OFFCURVE",
"284 582 OFFCURVE",
"288 601 CURVE SMOOTH",
"293 625 OFFCURVE",
"279 637 OFFCURVE",
"263 639 CURVE SMOOTH"
);
},
{
closed = 1;
nodes = (
"82 402 OFFCURVE",
"97 392 OFFCURVE",
"121 403 CURVE",
"139 410 OFFCURVE",
"177 446 OFFCURVE",
"216 473 CURVE",
"215 478 LINE",
"169 471 OFFCURVE",
"119 469 OFFCURVE",
"100 461 CURVE SMOOTH",
"77 451 OFFCURVE",
"72 432 OFFCURVE",
"77 417 CURVE SMOOTH"
);
},
{
closed = 1;
nodes = (
"378 562 OFFCURVE",
"362 571 OFFCURVE",
"338 561 CURVE SMOOTH",
"320 554 OFFCURVE",
"282 518 OFFCURVE",
"243 490 CURVE",
"245 486 LINE",
"291 493 OFFCURVE",
"341 495 OFFCURVE",
"359 503 CURVE SMOOTH",
"383 513 OFFCURVE",
"388 532 OFFCURVE",
"383 547 CURVE SMOOTH"
);
},
{
closed = 1;
nodes = (
"360 402 OFFCURVE",
"363 422 OFFCURVE",
"344 436 CURVE SMOOTH",
"330 447 OFFCURVE",
"283 459 OFFCURVE",
"243 475 CURVE",
"239 471 LINE",
"264 437 OFFCURVE",
"286 394 OFFCURVE",
"300 384 CURVE",
"319 369 OFFCURVE",
"338 376 OFFCURVE",
"349 389 CURVE SMOOTH"
);
},
{
closed = 1;
nodes = (
"99 562 OFFCURVE",
"97 542 OFFCURVE",
"115 528 CURVE SMOOTH",
"129 517 OFFCURVE",
"176 505 OFFCURVE",
"217 489 CURVE",
"221 493 LINE",
"195 527 OFFCURVE",
"173 570 OFFCURVE",
"159 580 CURVE",
"141 594 OFFCURVE",
"121 588 OFFCURVE",
"110 575 CURVE SMOOTH"
);
}
);
width = 383;
}
);
leftKerningGroup = "asterisk";
rightKerningGroup = "asterisk";
unicode = 002A;
},
{
glyphname = "degree";
layers = (
{
layerId = "5CB93347-76DB-47FB-8F37-014E89A2A0A0";
name = "Regular";
paths = (
{
closed = 1;
nodes = (
"300 348 OFFCURVE",
"378 422 OFFCURVE",
"378 512 CURVE SMOOTH",
"378 590 OFFCURVE",
"319 644 OFFCURVE",
"242 644 CURVE SMOOTH",
"153 644 OFFCURVE",
"76 572 OFFCURVE",
"76 482 CURVE SMOOTH",
"76 404 OFFCURVE",
"135 348 OFFCURVE",
"212 348 CURVE SMOOTH"
);
},
{
closed = 1;
nodes = (
"161 402 OFFCURVE",
"133 441 OFFCURVE",
"133 484 CURVE SMOOTH",
"133 540 OFFCURVE",
"182 591 OFFCURVE",
"242 591 CURVE SMOOTH",
"290 591 OFFCURVE",
"321 555 OFFCURVE",
"321 510 CURVE SMOOTH",
"321 453 OFFCURVE",
"272 402 OFFCURVE",
"213 402 CURVE SMOOTH"
);
}
);
width = 371;
}
);
rightKerningGroup = "zero";
unicode = 00B0;
},
{
glyphname = "quotesingle";
layers = (
{
layerId = "5CB93347-76DB-47FB-8F37-014E89A2A0A0";
name = "Regular";
paths = (
{
closed = 1;
nodes = (
"83 399 LINE",
"161 399 LINE",
"200 622 LINE",
"122 622 LINE"
);
}
);
width = 195;
}
);
leftKerningGroup = "quotesingle";
rightKerningGroup = "quotesingle";
unicode = 0027;
},
{
glyphname = "quotedbl";
layers = (
{
layerId = "5CB93347-76DB-47FB-8F37-014E89A2A0A0";
name = "Regular";
paths = (
{
closed = 1;
nodes = (
"83 399 LINE",
"161 399 LINE",
"200 622 LINE",
"122 622 LINE"
);
},
{
closed = 1;
nodes = (
"241 399 LINE",
"319 399 LINE",
"358 622 LINE",
"280 622 LINE"
);
}
);
width = 353;
}
);
leftKerningGroup = "quotesingle";
rightKerningGroup = "quotesingle";
unicode = 0022;
},
{
glyphname = "quoteleft";
layers = (
{
layerId = "5CB93347-76DB-47FB-8F37-014E89A2A0A0";
name = "Regular";
paths = (
{
closed = 1;
nodes = (
"164 411 OFFCURVE",
"189 437 OFFCURVE",
"189 467 CURVE SMOOTH",
"189 489 OFFCURVE",
"174 508 OFFCURVE",
"153 515 CURVE",
"164 542 OFFCURVE",
"194 574 OFFCURVE",
"234 609 CURVE",
"203 641 LINE",
"140 596 OFFCURVE",
"76 524 OFFCURVE",
"76 469 CURVE SMOOTH",
"76 436 OFFCURVE",
"99 411 OFFCURVE",
"132 411 CURVE SMOOTH"
);
}
);
width = 209;
}
);
leftKerningGroup = "quoteleft";
rightKerningGroup = "quoteleft";
unicode = 2018;
},
{
glyphname = "quoteright";
layers = (
{
layerId = "5CB93347-76DB-47FB-8F37-014E89A2A0A0";
name = "Regular";
paths = (
{
closed = 1;
nodes = (
"140 641 OFFCURVE",
"115 614 OFFCURVE",
"115 585 CURVE SMOOTH",
"115 562 OFFCURVE",
"130 543 OFFCURVE",
"151 536 CURVE",
"140 510 OFFCURVE",
"110 477 OFFCURVE",
"70 443 CURVE",
"101 411 LINE",
"164 456 OFFCURVE",
"228 528 OFFCURVE",
"228 582 CURVE SMOOTH",
"228 615 OFFCURVE",
"205 641 OFFCURVE",
"172 641 CURVE SMOOTH"
);
}
);
width = 206;
}
);
leftKerningGroup = "quoteright";
rightKerningGroup = "quoteright";
unicode = 2019;
},
{
glyphname = "comma";
layers = (
{
layerId = "5CB93347-76DB-47FB-8F37-014E89A2A0A0";
name = "Regular";
paths = (
{
closed = 1;
nodes = (
"44 104 OFFCURVE",
"20 77 OFFCURVE",
"20 48 CURVE SMOOTH",
"20 26 OFFCURVE",
"35 6 OFFCURVE",
"56 0 CURVE",
"45 -27 OFFCURVE",
"14 -60 OFFCURVE",
"-25 -94 CURVE",
"6 -126 LINE",
"69 -81 OFFCURVE",
"133 -9 OFFCURVE",
"133 45 CURVE SMOOTH",
"133 78 OFFCURVE",
"110 104 OFFCURVE",
"77 104 CURVE SMOOTH"
);
}
);
width = 222;
}
);
leftKerningGroup = "comma";
rightKerningGroup = "comma";
unicode = 002C;
},
{
glyphname = "quotesinglbase";
layers = (
{
layerId = "5CB93347-76DB-47FB-8F37-014E89A2A0A0";
name = "Regular";
paths = (
{
closed = 1;
nodes = (
"44 104 OFFCURVE",
"20 77 OFFCURVE",
"20 48 CURVE SMOOTH",
"20 26 OFFCURVE",
"35 6 OFFCURVE",
"56 0 CURVE",
"45 -27 OFFCURVE",
"14 -60 OFFCURVE",
"-25 -94 CURVE",
"6 -126 LINE",
"69 -81 OFFCURVE",
"133 -9 OFFCURVE",
"133 45 CURVE SMOOTH",
"133 78 OFFCURVE",
"110 104 OFFCURVE",
"77 104 CURVE SMOOTH"
);
}
);
width = 222;
}
);
leftKerningGroup = "comma";
rightKerningGroup = "comma";
unicode = 201A;
},
{
glyphname = "quotedblbase";
layers = (
{
layerId = "5CB93347-76DB-47FB-8F37-014E89A2A0A0";
name = "Regular";
paths = (
{
closed = 1;
nodes = (
"44 104 OFFCURVE",
"20 77 OFFCURVE",
"20 48 CURVE SMOOTH",
"20 26 OFFCURVE",
"35 6 OFFCURVE",
"56 0 CURVE",
"45 -27 OFFCURVE",
"14 -60 OFFCURVE",
"-25 -94 CURVE",
"6 -126 LINE",
"69 -81 OFFCURVE",
"133 -9 OFFCURVE",
"133 45 CURVE SMOOTH",
"133 78 OFFCURVE",
"110 104 OFFCURVE",
"77 104 CURVE SMOOTH"
);
},
{
closed = 1;
nodes = (
"220 104 OFFCURVE",
"196 77 OFFCURVE",
"196 48 CURVE SMOOTH",
"196 26 OFFCURVE",
"211 6 OFFCURVE",
"232 0 CURVE",
"220 -27 OFFCURVE",
"190 -60 OFFCURVE",
"151 -94 CURVE",
"182 -126 LINE",
"244 -81 OFFCURVE",
"308 -9 OFFCURVE",
"308 45 CURVE SMOOTH",
"308 78 OFFCURVE",
"285 104 OFFCURVE",
"253 104 CURVE SMOOTH"
);
}
);
width = 398;
}
);
leftKerningGroup = "comma";
rightKerningGroup = "comma";
unicode = 201E;
},
{
glyphname = "quotedblleft";
layers = (
{
layerId = "5CB93347-76DB-47FB-8F37-014E89A2A0A0";
name = "Regular";
paths = (
{
closed = 1;
nodes = (
"340 411 OFFCURVE",
"365 437 OFFCURVE",
"365 467 CURVE SMOOTH",
"365 489 OFFCURVE",
"350 508 OFFCURVE",
"329 515 CURVE",
"340 542 OFFCURVE",
"370 574 OFFCURVE",
"410 609 CURVE",
"378 641 LINE",
"316 596 OFFCURVE",
"252 524 OFFCURVE",
"252 469 CURVE SMOOTH",
"252 436 OFFCURVE",
"275 411 OFFCURVE",
"308 411 CURVE SMOOTH"
);
},
{
closed = 1;
nodes = (
"164 411 OFFCURVE",
"189 437 OFFCURVE",
"189 467 CURVE SMOOTH",
"189 489 OFFCURVE",
"174 508 OFFCURVE",
"153 515 CURVE",
"164 542 OFFCURVE",
"194 574 OFFCURVE",
"234 609 CURVE",
"203 641 LINE",
"140 596 OFFCURVE",
"76 524 OFFCURVE",
"76 469 CURVE SMOOTH",
"76 436 OFFCURVE",
"99 411 OFFCURVE",
"132 411 CURVE SMOOTH"
);
}
);
width = 385;
}
);
leftKerningGroup = "quoteleft";
rightKerningGroup = "quoteleft";
unicode = 201C;
},
{
glyphname = "quotedblright";
layers = (
{
layerId = "5CB93347-76DB-47FB-8F37-014E89A2A0A0";
name = "Regular";
paths = (
{
closed = 1;
nodes = (
"140 641 OFFCURVE",
"115 614 OFFCURVE",
"115 585 CURVE SMOOTH",
"115 562 OFFCURVE",
"130 543 OFFCURVE",
"151 536 CURVE",
"140 510 OFFCURVE",
"110 477 OFFCURVE",
"70 443 CURVE",
"101 411 LINE",
"164 456 OFFCURVE",
"228 528 OFFCURVE",
"228 582 CURVE SMOOTH",
"228 615 OFFCURVE",
"205 641 OFFCURVE",
"172 641 CURVE SMOOTH"
);
},
{
closed = 1;
nodes = (
"315 641 OFFCURVE",
"291 614 OFFCURVE",
"291 585 CURVE SMOOTH",
"291 562 OFFCURVE",
"306 543 OFFCURVE",
"327 536 CURVE",
"316 510 OFFCURVE",
"285 477 OFFCURVE",
"246 443 CURVE",
"277 411 LINE",
"340 456 OFFCURVE",
"404 528 OFFCURVE",
"404 582 CURVE SMOOTH",
"404 615 OFFCURVE",
"380 641 OFFCURVE",
"348 641 CURVE SMOOTH"
);
}
);
width = 381;
}
);
leftKerningGroup = "quoteright";
rightKerningGroup = "quoteright";
unicode = 201D;
},
{
glyphname = "period";
layers = (
{
layerId = "5CB93347-76DB-47FB-8F37-014E89A2A0A0";
name = "Regular";
paths = (
{
closed = 1;
nodes = (
"102 -9 OFFCURVE",
"127 16 OFFCURVE",
"127 47 CURVE SMOOTH",
"127 78 OFFCURVE",
"102 104 OFFCURVE",
"71 104 CURVE SMOOTH",
"40 104 OFFCURVE",
"15 78 OFFCURVE",
"15 47 CURVE SMOOTH",
"15 16 OFFCURVE",
"40 -9 OFFCURVE",
"71 -9 CURVE SMOOTH"
);
}
);
width = 212;
}
);
leftKerningGroup = "comma";
rightKerningGroup = "comma";
unicode = 002E;
},
{
glyphname = "ellipsis";
layers = (
{
layerId = "5CB93347-76DB-47FB-8F37-014E89A2A0A0";
name = "Regular";
paths = (
{
closed = 1;
nodes = (
"102 -9 OFFCURVE",
"127 16 OFFCURVE",
"127 47 CURVE SMOOTH",
"127 78 OFFCURVE",
"102 104 OFFCURVE",
"71 104 CURVE SMOOTH",
"40 104 OFFCURVE",
"15 78 OFFCURVE",
"15 47 CURVE SMOOTH",
"15 16 OFFCURVE",
"40 -9 OFFCURVE",
"71 -9 CURVE SMOOTH"
);
},
{
closed = 1;
nodes = (
"389 -9 OFFCURVE",
"414 16 OFFCURVE",
"414 47 CURVE SMOOTH",
"414 78 OFFCURVE",
"389 104 OFFCURVE",
"358 104 CURVE SMOOTH",
"327 104 OFFCURVE",
"302 78 OFFCURVE",
"302 47 CURVE SMOOTH",
"302 16 OFFCURVE",
"327 -9 OFFCURVE",
"358 -9 CURVE SMOOTH"
);
},
{
closed = 1;
nodes = (
"676 -9 OFFCURVE",
"702 16 OFFCURVE",
"702 47 CURVE SMOOTH",
"702 78 OFFCURVE",
"676 104 OFFCURVE",
"645 104 CURVE SMOOTH",
"614 104 OFFCURVE",
"589 78 OFFCURVE",
"589 47 CURVE SMOOTH",
"589 16 OFFCURVE",
"614 -9 OFFCURVE",
"645 -9 CURVE SMOOTH"
);
}
);
width = 786;
}
);
leftKerningGroup = "comma";
rightKerningGroup = "zero";
unicode = 2026;
},
{
glyphname = "periodcentered";
layers = (
{
layerId = "5CB93347-76DB-47FB-8F37-014E89A2A0A0";
name = "Regular";
paths = (
{
closed = 1;
nodes = (
"141 193 OFFCURVE",
"168 219 OFFCURVE",
"168 251 CURVE SMOOTH",
"168 283 OFFCURVE",
"141 309 OFFCURVE",
"110 309 CURVE SMOOTH",
"78 309 OFFCURVE",
"52 283 OFFCURVE",
"52 251 CURVE SMOOTH",
"52 219 OFFCURVE",
"78 193 OFFCURVE",
"110 193 CURVE SMOOTH"
);
}
);
width = 222;
}
);
leftKerningGroup = "periodcentered";
rightKerningGroup = "periodcentered";
unicode = 00B7;
},
{
glyphname = "bullet";
layers = (
{
layerId = "5CB93347-76DB-47FB-8F37-014E89A2A0A0";
name = "Regular";
paths = (
{
closed = 1;
nodes = (
"244 184 OFFCURVE",
"294 233 OFFCURVE",
"294 295 CURVE SMOOTH",
"294 356 OFFCURVE",
"244 405 OFFCURVE",
"183 405 CURVE SMOOTH",
"122 405 OFFCURVE",
"72 356 OFFCURVE",
"72 295 CURVE SMOOTH",
"72 233 OFFCURVE",
"122 184 OFFCURVE",
"183 184 CURVE SMOOTH"
);
}
);
width = 357;
}
);
rightKerningGroup = "zero";
unicode = 2022;
},
{
glyphname = "underscore";
layers = (
{
layerId = "5CB93347-76DB-47FB-8F37-014E89A2A0A0";
name = "Regular";
paths = (
{
closed = 1;
nodes = (
"-4 -88 LINE",
"408 -88 LINE",
"418 -33 LINE",
"6 -33 LINE"
);
}
);
width = 526;
}
);
rightKerningGroup = "zero";
unicode = 005F;
},
{
glyphname = "hyphen";
layers = (
{
layerId = "5CB93347-76DB-47FB-8F37-014E89A2A0A0";
name = "Regular";
paths = (
{
closed = 1;
nodes = (
"46 195 LINE",
"320 195 LINE",
"333 269 LINE",
"59 269 LINE"
);
}
);
width = 387;
}
);
leftKerningGroup = "hyphen";
rightKerningGroup = "hyphen";
unicode = 002D;
},
{
glyphname = "uni00AD";
layers = (
{
layerId = "5CB93347-76DB-47FB-8F37-014E89A2A0A0";
name = "Regular";
paths = (
{
closed = 1;
nodes = (
"46 195 LINE",
"320 195 LINE",
"333 269 LINE",
"59 269 LINE"
);
}
);
width = 387;
}
);
leftKerningGroup = "hyphen";
rightKerningGroup = "hyphen";
unicode = 00AD;
},
{
glyphname = "endash";
layers = (
{
layerId = "5CB93347-76DB-47FB-8F37-014E89A2A0A0";
name = "Regular";
paths = (
{
closed = 1;
nodes = (
"46 195 LINE",
"554 195 LINE",
"567 269 LINE",
"59 269 LINE"
);
}
);
width = 621;
}
);
leftKerningGroup = "hyphen";
rightKerningGroup = "hyphen";
unicode = 2013;
},
{
glyphname = "emdash";
layers = (
{
layerId = "5CB93347-76DB-47FB-8F37-014E89A2A0A0";
name = "Regular";
paths = (
{
closed = 1;
nodes = (
"46 195 LINE",
"764 195 LINE",
"777 269 LINE",
"59 269 LINE"
);
}
);
width = 831;
}
);
leftKerningGroup = "hyphen";
rightKerningGroup = "hyphen";
unicode = 2014;
},
{
glyphname = "ordfeminine";
layers = (
{
layerId = "5CB93347-76DB-47FB-8F37-014E89A2A0A0";
name = "Regular";
paths = (
{
closed = 1;
nodes = (
"40 202 LINE",
"315 202 LINE",
"323 245 LINE",
"47 245 LINE"
);
},
{
closed = 1;
nodes = (
"185 295 OFFCURVE",
"217 317 OFFCURVE",
"241 336 CURVE",
"234 302 LINE",
"336 302 LINE",
"345 353 LINE",
"304 353 LINE",
"329 493 LINE SMOOTH",
"342 568 OFFCURVE",
"296 596 OFFCURVE",
"225 596 CURVE SMOOTH",
"186 596 OFFCURVE",
"150 588 OFFCURVE",
"119 577 CURVE",
"110 526 LINE",
"140 536 OFFCURVE",
"176 546 OFFCURVE",
"212 546 CURVE SMOOTH",
"258 546 OFFCURVE",
"271 530 OFFCURVE",
"264 492 CURVE SMOOTH",
"260 470 LINE",
"205 470 LINE SMOOTH",
"126 470 OFFCURVE",
"60 443 OFFCURVE",
"60 372 CURVE SMOOTH",
"60 317 OFFCURVE",
"98 295 OFFCURVE",
"142 295 CURVE SMOOTH"
);
},
{
closed = 1;
nodes = (
"139 341 OFFCURVE",
"125 353 OFFCURVE",
"125 376 CURVE SMOOTH",
"125 414 OFFCURVE",
"160 429 OFFCURVE",
"203 429 CURVE SMOOTH",
"253 429 LINE",
"245 382 LINE",
"225 363 OFFCURVE",
"197 341 OFFCURVE",
"163 341 CURVE SMOOTH"
);
}
);
width = 367;
}
);
leftKerningGroup = "ordfeminine";
rightKerningGroup = "zero";
unicode = 00AA;
},
{
glyphname = "ordmasculine";
layers = (
{
layerId = "5CB93347-76DB-47FB-8F37-014E89A2A0A0";
name = "Regular";
paths = (
{
closed = 1;
nodes = (
"39 202 LINE",
"312 202 LINE",
"319 245 LINE",
"46 245 LINE"
);
},
{
closed = 1;
nodes = (
"310 295 OFFCURVE",
"371 372 OFFCURVE",
"371 467 CURVE SMOOTH",
"371 553 OFFCURVE",
"321 596 OFFCURVE",
"240 596 CURVE SMOOTH",
"131 596 OFFCURVE",
"66 518 OFFCURVE",
"66 423 CURVE SMOOTH",
"66 339 OFFCURVE",
"116 295 OFFCURVE",
"199 295 CURVE SMOOTH"
);
},
{
closed = 1;
nodes = (
"154 344 OFFCURVE",
"134 376 OFFCURVE",
"134 423 CURVE SMOOTH",
"134 488 OFFCURVE",
"172 547 OFFCURVE",
"235 547 CURVE SMOOTH",
"282 547 OFFCURVE",
"302 514 OFFCURVE",
"302 467 CURVE SMOOTH",
"302 403 OFFCURVE",
"266 344 OFFCURVE",
"202 344 CURVE SMOOTH"
);
}
);
width = 371;
}
);
leftKerningGroup = "ordmasculine";
rightKerningGroup = "zero";
unicode = 00BA;
},
{
glyphname = "mu";
layers = (
{
layerId = "5CB93347-76DB-47FB-8F37-014E89A2A0A0";
name = "Regular";
paths = (
{
closed = 1;
nodes = (
"26 -199 LINE",
"111 -199 LINE",
"137 7 LINE",
"150 -5 OFFCURVE",
"169 -11 OFFCURVE",
"191 -11 CURVE SMOOTH",
"256 -11 OFFCURVE",
"318 29 OFFCURVE",
"363 67 CURVE",
"365 21 OFFCURVE",
"393 -10 OFFCURVE",
"453 -10 CURVE SMOOTH",
"479 -10 OFFCURVE",
"504 -5 OFFCURVE",
"523 1 CURVE",
"534 63 LINE",
"520 58 OFFCURVE",
"500 52 OFFCURVE",
"482 52 CURVE SMOOTH",
"453 52 OFFCURVE",
"443 67 OFFCURVE",
"449 99 CURVE SMOOTH",
"507 428 LINE",
"422 428 LINE",
"370 139 LINE",
"327 101 OFFCURVE",
"270 58 OFFCURVE",
"219 58 CURVE SMOOTH",
"173 58 OFFCURVE",
"162 92 OFFCURVE",
"170 139 CURVE SMOOTH",
"222 428 LINE",
"63 428 LINE",
"51 359 LINE",
"125 359 LINE"
);
}
);
width = 597;
}
);
rightKerningGroup = "zero";
unicode = 00B5;
},
{
glyphname = "fraction";
layers = (
{
layerId = "5CB93347-76DB-47FB-8F37-014E89A2A0A0";
name = "Regular";
paths = (
{
closed = 1;
nodes = (
"-6 -15 LINE",
"447 597 LINE",
"407 623 LINE",
"-47 12 LINE"
);
}
);
width = 382;
}
);
rightKerningGroup = "zero";
unicode = 2044;
},
{
glyphname = "notequal";
layers = (
{
layerId = "5CB93347-76DB-47FB-8F37-014E89A2A0A0";
name = "Regular";
paths = (
{
closed = 1;
nodes = (
"105 -78 LINE",
"213 89 LINE",
"465 89 LINE",
"477 158 LINE",
"258 158 LINE",
"359 315 LINE",
"504 315 LINE",
"517 384 LINE",
"404 384 LINE",
"500 532 LINE",
"459 553 LINE",
"350 384 LINE",
"102 384 LINE",
"89 315 LINE",
"305 315 LINE",
"204 158 LINE",
"62 158 LINE",
"50 89 LINE",
"159 89 LINE",
"65 -57 LINE"
);
}
);
width = 574;
}
);
rightKerningGroup = "zero";
unicode = 2260;
},
{
glyphname = "equal";
layers = (
{
layerId = "5CB93347-76DB-47FB-8F37-014E89A2A0A0";
name = "Regular";
paths = (
{
closed = 1;
nodes = (
"31 89 LINE",
"446 89 LINE",
"458 158 LINE",
"43 158 LINE"
);
},
{
closed = 1;
nodes = (
"71 315 LINE",
"485 315 LINE",
"498 384 LINE",
"83 384 LINE"
);
}
);
width = 535;
}
);
rightKerningGroup = "zero";
unicode = 003D;
},
{
glyphname = "approxequal";
layers = (
{
layerId = "5CB93347-76DB-47FB-8F37-014E89A2A0A0";
name = "Regular";
paths = (
{
closed = 1;
nodes = (
"107 271 LINE",
"136 315 OFFCURVE",
"166 363 OFFCURVE",
"219 363 CURVE SMOOTH",
"291 363 OFFCURVE",
"332 274 OFFCURVE",
"411 274 CURVE SMOOTH",
"487 274 OFFCURVE",
"539 353 OFFCURVE",
"572 414 CURVE",
"526 439 LINE",
"506 406 OFFCURVE",
"470 350 OFFCURVE",
"419 350 CURVE SMOOTH",
"355 350 OFFCURVE",
"315 436 OFFCURVE",
"227 436 CURVE SMOOTH",
"146 436 OFFCURVE",
"100 363 OFFCURVE",
"60 295 CURVE"
);
},
{
closed = 1;
nodes = (
"72 69 LINE",
"101 113 OFFCURVE",
"130 161 OFFCURVE",
"183 161 CURVE SMOOTH",
"256 161 OFFCURVE",
"296 72 OFFCURVE",
"376 72 CURVE SMOOTH",
"452 72 OFFCURVE",
"504 151 OFFCURVE",
"537 212 CURVE",
"490 237 LINE",
"470 204 OFFCURVE",
"435 148 OFFCURVE",
"384 148 CURVE SMOOTH",
"320 148 OFFCURVE",
"280 235 OFFCURVE",
"192 235 CURVE SMOOTH",
"111 235 OFFCURVE",
"65 161 OFFCURVE",
"25 93 CURVE"
);
}
);
width = 593;
}
);
rightKerningGroup = "zero";
unicode = 2248;
},
{
glyphname = "asciitilde";
layers = (
{
layerId = "5CB93347-76DB-47FB-8F37-014E89A2A0A0";
name = "Regular";
paths = (
{
closed = 1;
nodes = (
"87 171 LINE",
"115 215 OFFCURVE",
"145 262 OFFCURVE",
"198 262 CURVE SMOOTH",
"270 262 OFFCURVE",
"311 174 OFFCURVE",
"390 174 CURVE SMOOTH",
"466 174 OFFCURVE",
"518 253 OFFCURVE",
"552 314 CURVE",
"505 339 LINE",
"485 306 OFFCURVE",
"450 250 OFFCURVE",
"398 250 CURVE SMOOTH",
"335 250 OFFCURVE",
"294 336 OFFCURVE",
"207 336 CURVE SMOOTH",
"126 336 OFFCURVE",
"80 262 OFFCURVE",
"39 194 CURVE"
);
}
);
width = 590;
}
);
rightKerningGroup = "zero";
unicode = 007E;
},
{
glyphname = "logicalnot";
layers = (
{
layerId = "5CB93347-76DB-47FB-8F37-014E89A2A0A0";
name = "Regular";
paths = (
{
closed = 1;
nodes = (
"358 132 LINE",
"418 132 LINE",
"454 333 LINE",
"72 333 LINE",
"61 276 LINE",
"383 276 LINE"
);
}
);
width = 505;
}
);
rightKerningGroup = "zero";
unicode = 00AC;
},
{
glyphname = "multiply";
layers = (
{
layerId = "5CB93347-76DB-47FB-8F37-014E89A2A0A0";
name = "Regular";
paths = (
{
closed = 1;
nodes = (
"54 39 LINE",
"231 190 LINE",
"356 39 LINE",
"412 86 LINE",
"287 237 LINE",
"465 388 LINE",
"422 439 LINE",
"244 287 LINE",
"122 436 LINE",
"66 388 LINE",
"188 240 LINE",
"12 90 LINE"
);
}
);
width = 482;
}
);
rightKerningGroup = "zero";
unicode = 00D7;
},
{
glyphname = "divide";
layers = (
{
layerId = "5CB93347-76DB-47FB-8F37-014E89A2A0A0";
name = "Regular";
paths = (
{
closed = 1;
nodes = (
"38 208 LINE",
"453 208 LINE",
"464 271 LINE",
"49 271 LINE"
);
},
{
closed = 1;
nodes = (
"254 29 OFFCURVE",
"278 54 OFFCURVE",
"278 84 CURVE SMOOTH",
"278 115 OFFCURVE",
"254 140 OFFCURVE",
"223 140 CURVE SMOOTH",
"192 140 OFFCURVE",
"167 115 OFFCURVE",
"167 84 CURVE SMOOTH",
"167 54 OFFCURVE",
"192 29 OFFCURVE",
"223 29 CURVE SMOOTH"
);
},
{
closed = 1;
nodes = (
"309 339 OFFCURVE",
"333 364 OFFCURVE",
"333 394 CURVE SMOOTH",
"333 425 OFFCURVE",
"309 450 OFFCURVE",
"278 450 CURVE SMOOTH",
"247 450 OFFCURVE",
"222 425 OFFCURVE",
"222 394 CURVE SMOOTH",
"222 364 OFFCURVE",
"247 339 OFFCURVE",
"278 339 CURVE SMOOTH"
);
}
);
width = 507;
}
);
rightKerningGroup = "zero";
unicode = 00F7;
},
{
glyphname = "plus";
layers = (
{
layerId = "5CB93347-76DB-47FB-8F37-014E89A2A0A0";
name = "Regular";
paths = (
{
closed = 1;
nodes = (
"165 30 LINE",
"235 30 LINE",
"265 204 LINE",
"438 204 LINE",
"450 270 LINE",
"277 270 LINE",
"308 445 LINE",
"238 445 LINE",
"207 270 LINE",
"35 270 LINE",
"23 204 LINE",
"196 204 LINE"
);
}
);
width = 479;
}
);
rightKerningGroup = "zero";
unicode = 002B;
},
{
glyphname = "minus";
layers = (
{
layerId = "5CB93347-76DB-47FB-8F37-014E89A2A0A0";
name = "Regular";
paths = (
{
closed = 1;
nodes = (
"51 204 LINE",
"466 204 LINE",
"478 270 LINE",
"63 270 LINE"
);
}
);
width = 536;
}
);
rightKerningGroup = "zero";
unicode = 2212;
},
{
glyphname = "plusminus";
layers = (
{
layerId = "5CB93347-76DB-47FB-8F37-014E89A2A0A0";
name = "Regular";
paths = (
{
closed = 1;
nodes = (
"208 137 LINE",
"278 137 LINE",
"303 279 LINE",
"476 279 LINE",
"488 343 LINE",
"315 343 LINE",
"339 487 LINE",
"270 487 LINE",
"245 343 LINE",
"73 343 LINE",
"61 279 LINE",
"233 279 LINE"
);
},
{
closed = 1;
nodes = (
"16 24 LINE",
"431 24 LINE",
"443 89 LINE",
"28 89 LINE"
);
}
);
width = 530;
}
);
rightKerningGroup = "zero";
unicode = 00B1;
},
{
glyphname = "lessequal";
layers = (
{
layerId = "5CB93347-76DB-47FB-8F37-014E89A2A0A0";
name = "Regular";
paths = (
{
closed = 1;
nodes = (
"14 32 LINE",
"401 32 LINE",
"411 89 LINE",
"25 89 LINE"
);
},
{
closed = 1;
nodes = (
"417 120 LINE",
"429 186 LINE",
"163 289 LINE",
"465 395 LINE",
"477 463 LINE",
"64 314 LINE",
"56 270 LINE"
);
}
);
width = 498;
}
);
rightKerningGroup = "zero";
unicode = 2264;
},
{
glyphname = "greaterequal";
layers = (
{
layerId = "5CB93347-76DB-47FB-8F37-014E89A2A0A0";
name = "Regular";
paths = (
{
closed = 1;
nodes = (
"17 32 LINE",
"404 32 LINE",
"414 89 LINE",
"27 89 LINE"
);
},
{
closed = 1;
nodes = (
"33 120 LINE",
"446 270 LINE",
"454 314 LINE",
"93 463 LINE",
"81 397 LINE",
"347 295 LINE",
"45 188 LINE"
);
}
);
width = 494;
}
);
rightKerningGroup = "zero";
unicode = 2265;
},
{
glyphname = "less";
layers = (
{
layerId = "5CB93347-76DB-47FB-8F37-014E89A2A0A0";
name = "Regular";
paths = (
{
closed = 1;
nodes = (
"360 29 LINE",
"373 102 LINE",
"124 235 LINE",
"420 368 LINE",
"433 446 LINE",
"29 257 LINE",
"23 218 LINE"
);
}
);
width = 452;
}
);
rightKerningGroup = "zero";
unicode = 003C;
},
{
glyphname = "greater";
layers = (
{
layerId = "5CB93347-76DB-47FB-8F37-014E89A2A0A0";
name = "Regular";
paths = (
{
closed = 1;
nodes = (
"13 28 LINE",
"417 217 LINE",
"423 256 LINE",
"86 445 LINE",
"73 372 LINE",
"322 239 LINE",
"26 105 LINE"
);
}
);
width = 452;
}
);
rightKerningGroup = "zero";
unicode = 003E;
},
{
glyphname = "agrave";
layers = (
{
layerId = "5CB93347-76DB-47FB-8F37-014E89A2A0A0";
name = "Regular";
paths = (
{
closed = 1;
nodes = (
"253 -11 OFFCURVE",
"306 20 OFFCURVE",
"343 66 CURVE",
"345 19 OFFCURVE",
"371 -10 OFFCURVE",
"430 -10 CURVE SMOOTH",
"454 -10 OFFCURVE",
"479 -5 OFFCURVE",
"498 1 CURVE",
"510 67 LINE",
"496 62 OFFCURVE",
"476 56 OFFCURVE",
"458 56 CURVE SMOOTH",
"429 56 OFFCURVE",
"419 71 OFFCURVE",
"425 102 CURVE SMOOTH",
"482 428 LINE",
"397 428 LINE",
"384 358 LINE",
"360 406 OFFCURVE",
"315 439 OFFCURVE",
"249 439 CURVE SMOOTH",
"129 439 OFFCURVE",
"25 336 OFFCURVE",
"25 184 CURVE SMOOTH",
"25 57 OFFCURVE",
"97 -11 OFFCURVE",
"190 -11 CURVE SMOOTH"
);
},
{
closed = 1;
nodes = (
"153 55 OFFCURVE",
"113 103 OFFCURVE",
"113 185 CURVE SMOOTH",
"113 290 OFFCURVE",
"178 373 OFFCURVE",
"264 373 CURVE SMOOTH",
"331 373 OFFCURVE",
"368 322 OFFCURVE",
"368 244 CURVE SMOOTH",
"368 143 OFFCURVE",
"304 55 OFFCURVE",
"217 55 CURVE SMOOTH"
);
},
{
closed = 1;
nodes = (
"334 505 LINE",
"366 539 LINE",
"227 696 LINE",
"171 635 LINE"
);
}
);
width = 542;
}
);
leftKerningGroup = "a";
rightKerningGroup = "a";
unicode = 00E0;
},
{
glyphname = "aacute";
layers = (
{
layerId = "5CB93347-76DB-47FB-8F37-014E89A2A0A0";
name = "Regular";
paths = (
{
closed = 1;
nodes = (
"253 -11 OFFCURVE",
"306 20 OFFCURVE",
"343 66 CURVE",
"345 19 OFFCURVE",
"371 -10 OFFCURVE",
"430 -10 CURVE SMOOTH",
"454 -10 OFFCURVE",
"479 -5 OFFCURVE",
"498 1 CURVE",
"510 67 LINE",
"496 62 OFFCURVE",
"476 56 OFFCURVE",
"458 56 CURVE SMOOTH",
"429 56 OFFCURVE",
"419 71 OFFCURVE",
"425 102 CURVE SMOOTH",
"482 428 LINE",
"397 428 LINE",
"384 358 LINE",
"360 406 OFFCURVE",
"315 439 OFFCURVE",
"249 439 CURVE SMOOTH",
"129 439 OFFCURVE",
"25 336 OFFCURVE",
"25 184 CURVE SMOOTH",
"25 57 OFFCURVE",
"97 -11 OFFCURVE",
"190 -11 CURVE SMOOTH"
);
},
{
closed = 1;
nodes = (
"153 55 OFFCURVE",
"113 103 OFFCURVE",
"113 185 CURVE SMOOTH",
"113 290 OFFCURVE",
"178 373 OFFCURVE",
"264 373 CURVE SMOOTH",
"331 373 OFFCURVE",
"368 322 OFFCURVE",
"368 244 CURVE SMOOTH",
"368 143 OFFCURVE",
"304 55 OFFCURVE",
"217 55 CURVE SMOOTH"
);
},
{
closed = 1;
nodes = (
"259 504 LINE",
"453 632 LINE",
"403 695 LINE",
"232 539 LINE"
);
}
);
width = 542;
}
);
leftKerningGroup = "a";
rightKerningGroup = "a";
unicode = 00E1;
},
{
glyphname = "acircumflex";
layers = (
{
layerId = "5CB93347-76DB-47FB-8F37-014E89A2A0A0";
name = "Regular";
paths = (
{
closed = 1;
nodes = (
"253 -11 OFFCURVE",
"306 20 OFFCURVE",
"343 66 CURVE",
"345 19 OFFCURVE",
"371 -10 OFFCURVE",
"430 -10 CURVE SMOOTH",
"454 -10 OFFCURVE",
"479 -5 OFFCURVE",
"498 1 CURVE",
"510 67 LINE",
"496 62 OFFCURVE",
"476 56 OFFCURVE",
"458 56 CURVE SMOOTH",
"429 56 OFFCURVE",
"419 71 OFFCURVE",
"425 102 CURVE SMOOTH",
"482 428 LINE",
"397 428 LINE",
"384 358 LINE",
"360 406 OFFCURVE",
"315 439 OFFCURVE",
"249 439 CURVE SMOOTH",
"129 439 OFFCURVE",
"25 336 OFFCURVE",
"25 184 CURVE SMOOTH",
"25 57 OFFCURVE",
"97 -11 OFFCURVE",
"190 -11 CURVE SMOOTH"
);
},
{
closed = 1;
nodes = (
"153 55 OFFCURVE",
"113 103 OFFCURVE",
"113 185 CURVE SMOOTH",
"113 290 OFFCURVE",
"178 373 OFFCURVE",
"264 373 CURVE SMOOTH",
"331 373 OFFCURVE",
"368 322 OFFCURVE",
"368 244 CURVE SMOOTH",
"368 143 OFFCURVE",
"304 55 OFFCURVE",
"217 55 CURVE SMOOTH"
);
},
{
closed = 1;
nodes = (
"153 501 LINE",
"310 579 LINE",
"435 501 LINE",
"457 527 LINE",
"351 661 LINE",
"296 661 LINE",
"135 528 LINE"
);
}
);
width = 542;
}
);
leftKerningGroup = "a";
rightKerningGroup = "a";
unicode = 00E2;
},
{
glyphname = "atilde";
layers = (
{
layerId = "5CB93347-76DB-47FB-8F37-014E89A2A0A0";
name = "Regular";
paths = (
{
closed = 1;
nodes = (
"253 -11 OFFCURVE",
"306 20 OFFCURVE",
"343 66 CURVE",
"345 19 OFFCURVE",
"371 -10 OFFCURVE",
"430 -10 CURVE SMOOTH",
"454 -10 OFFCURVE",
"479 -5 OFFCURVE",
"498 1 CURVE",
"510 67 LINE",
"496 62 OFFCURVE",
"476 56 OFFCURVE",
"458 56 CURVE SMOOTH",
"429 56 OFFCURVE",
"419 71 OFFCURVE",
"425 102 CURVE SMOOTH",
"482 428 LINE",
"397 428 LINE",
"384 358 LINE",
"360 406 OFFCURVE",
"315 439 OFFCURVE",
"249 439 CURVE SMOOTH",
"129 439 OFFCURVE",
"25 336 OFFCURVE",
"25 184 CURVE SMOOTH",
"25 57 OFFCURVE",
"97 -11 OFFCURVE",
"190 -11 CURVE SMOOTH"
);
},
{
closed = 1;
nodes = (
"153 55 OFFCURVE",
"113 103 OFFCURVE",
"113 185 CURVE SMOOTH",
"113 290 OFFCURVE",
"178 373 OFFCURVE",
"264 373 CURVE SMOOTH",
"331 373 OFFCURVE",
"368 322 OFFCURVE",
"368 244 CURVE SMOOTH",
"368 143 OFFCURVE",
"304 55 OFFCURVE",
"217 55 CURVE SMOOTH"
);
},
{
closed = 1;
nodes = (
"164 508 LINE",
"186 541 OFFCURVE",
"207 561 OFFCURVE",
"234 561 CURVE SMOOTH",
"278 561 OFFCURVE",
"315 509 OFFCURVE",
"365 509 CURVE SMOOTH",
"422 509 OFFCURVE",
"466 579 OFFCURVE",
"485 616 CURVE",
"454 635 LINE",
"435 605 OFFCURVE",
"416 582 OFFCURVE",
"383 582 CURVE SMOOTH",
"335 582 OFFCURVE",
"303 633 OFFCURVE",
"251 633 CURVE SMOOTH",
"190 633 OFFCURVE",
"150 561 OFFCURVE",
"132 526 CURVE"
);
}
);
width = 542;
}
);
leftKerningGroup = "a";
rightKerningGroup = "a";
unicode = 00E3;
},
{
glyphname = "adieresis";
layers = (
{
layerId = "5CB93347-76DB-47FB-8F37-014E89A2A0A0";
name = "Regular";
paths = (
{
closed = 1;
nodes = (
"253 -11 OFFCURVE",
"306 20 OFFCURVE",
"343 66 CURVE",
"345 19 OFFCURVE",
"371 -10 OFFCURVE",
"430 -10 CURVE SMOOTH",
"454 -10 OFFCURVE",
"479 -5 OFFCURVE",
"498 1 CURVE",
"510 67 LINE",
"496 62 OFFCURVE",
"476 56 OFFCURVE",
"458 56 CURVE SMOOTH",
"429 56 OFFCURVE",
"419 71 OFFCURVE",
"425 102 CURVE SMOOTH",
"482 428 LINE",
"397 428 LINE",
"384 358 LINE",
"360 406 OFFCURVE",
"315 439 OFFCURVE",
"249 439 CURVE SMOOTH",
"129 439 OFFCURVE",
"25 336 OFFCURVE",
"25 184 CURVE SMOOTH",
"25 57 OFFCURVE",
"97 -11 OFFCURVE",
"190 -11 CURVE SMOOTH"
);
},
{
closed = 1;
nodes = (
"153 55 OFFCURVE",
"113 103 OFFCURVE",
"113 185 CURVE SMOOTH",
"113 290 OFFCURVE",
"178 373 OFFCURVE",
"264 373 CURVE SMOOTH",
"331 373 OFFCURVE",
"368 322 OFFCURVE",
"368 244 CURVE SMOOTH",
"368 143 OFFCURVE",
"304 55 OFFCURVE",
"217 55 CURVE SMOOTH"
);
},
{
closed = 1;
nodes = (
"240 509 OFFCURVE",
"264 532 OFFCURVE",
"264 562 CURVE SMOOTH",
"264 591 OFFCURVE",
"240 615 OFFCURVE",
"211 615 CURVE SMOOTH",
"182 615 OFFCURVE",
"158 591 OFFCURVE",
"158 562 CURVE SMOOTH",
"158 532 OFFCURVE",
"182 509 OFFCURVE",
"211 509 CURVE SMOOTH"
);
},
{
closed = 1;
nodes = (
"422 509 OFFCURVE",
"446 532 OFFCURVE",
"446 562 CURVE SMOOTH",
"446 591 OFFCURVE",
"422 615 OFFCURVE",
"393 615 CURVE SMOOTH",
"364 615 OFFCURVE",
"340 591 OFFCURVE",
"340 562 CURVE SMOOTH",
"340 532 OFFCURVE",
"364 509 OFFCURVE",
"393 509 CURVE SMOOTH"
);
}
);
width = 542;
}
);
leftKerningGroup = "a";
rightKerningGroup = "a";
unicode = 00E4;
},
{
glyphname = "aring";
layers = (
{
layerId = "5CB93347-76DB-47FB-8F37-014E89A2A0A0";
name = "Regular";
paths = (
{
closed = 1;
nodes = (
"253 -11 OFFCURVE",
"306 20 OFFCURVE",
"343 66 CURVE",
"345 19 OFFCURVE",
"371 -10 OFFCURVE",
"430 -10 CURVE SMOOTH",
"454 -10 OFFCURVE",
"479 -5 OFFCURVE",
"498 1 CURVE",
"510 67 LINE",
"496 62 OFFCURVE",
"476 56 OFFCURVE",
"458 56 CURVE SMOOTH",
"429 56 OFFCURVE",
"419 71 OFFCURVE",
"425 102 CURVE SMOOTH",
"482 428 LINE",
"397 428 LINE",
"384 358 LINE",
"360 406 OFFCURVE",
"315 439 OFFCURVE",
"249 439 CURVE SMOOTH",
"129 439 OFFCURVE",
"25 336 OFFCURVE",
"25 184 CURVE SMOOTH",
"25 57 OFFCURVE",
"97 -11 OFFCURVE",
"190 -11 CURVE SMOOTH"
);
},
{
closed = 1;
nodes = (
"153 55 OFFCURVE",
"113 103 OFFCURVE",
"113 185 CURVE SMOOTH",
"113 290 OFFCURVE",
"178 373 OFFCURVE",
"264 373 CURVE SMOOTH",
"331 373 OFFCURVE",
"368 322 OFFCURVE",
"368 244 CURVE SMOOTH",
"368 143 OFFCURVE",
"304 55 OFFCURVE",
"217 55 CURVE SMOOTH"
);
},
{
closed = 1;
nodes = (
"387 500 OFFCURVE",
"432 560 OFFCURVE",
"432 621 CURVE SMOOTH",
"432 676 OFFCURVE",
"394 715 OFFCURVE",
"326 715 CURVE SMOOTH",
"241 715 OFFCURVE",
"196 655 OFFCURVE",
"196 595 CURVE SMOOTH",
"196 539 OFFCURVE",
"234 500 OFFCURVE",
"302 500 CURVE SMOOTH"
);
},
{
closed = 1;
nodes = (
"274 550 OFFCURVE",
"261 571 OFFCURVE",
"261 597 CURVE SMOOTH",
"261 631 OFFCURVE",
"284 665 OFFCURVE",
"322 665 CURVE SMOOTH",
"353 665 OFFCURVE",
"366 644 OFFCURVE",
"366 618 CURVE SMOOTH",
"366 584 OFFCURVE",
"343 550 OFFCURVE",
"305 550 CURVE SMOOTH"
);
}
);
width = 542;
}
);
leftKerningGroup = "a";
rightKerningGroup = "a";
unicode = 00E5;
},
{
glyphname = "amacron";
layers = (
{
layerId = "5CB93347-76DB-47FB-8F37-014E89A2A0A0";
name = "Regular";
paths = (
{
closed = 1;
nodes = (
"253 -11 OFFCURVE",
"306 20 OFFCURVE",
"343 66 CURVE",
"345 19 OFFCURVE",
"371 -10 OFFCURVE",
"430 -10 CURVE SMOOTH",
"454 -10 OFFCURVE",
"479 -5 OFFCURVE",
"498 1 CURVE",
"510 67 LINE",
"496 62 OFFCURVE",
"476 56 OFFCURVE",
"458 56 CURVE SMOOTH",
"429 56 OFFCURVE",
"419 71 OFFCURVE",
"425 102 CURVE SMOOTH",
"482 428 LINE",
"397 428 LINE",
"384 358 LINE",
"360 406 OFFCURVE",
"315 439 OFFCURVE",
"249 439 CURVE SMOOTH",
"129 439 OFFCURVE",
"25 336 OFFCURVE",
"25 184 CURVE SMOOTH",
"25 57 OFFCURVE",
"97 -11 OFFCURVE",
"190 -11 CURVE SMOOTH"
);
},
{
closed = 1;
nodes = (
"153 55 OFFCURVE",
"113 103 OFFCURVE",
"113 185 CURVE SMOOTH",
"113 290 OFFCURVE",
"178 373 OFFCURVE",
"264 373 CURVE SMOOTH",
"331 373 OFFCURVE",
"368 322 OFFCURVE",
"368 244 CURVE SMOOTH",
"368 143 OFFCURVE",
"304 55 OFFCURVE",
"217 55 CURVE SMOOTH"
);
},
{
closed = 1;
nodes = (
"159 522 LINE",
"429 522 LINE",
"440 587 LINE",
"170 587 LINE"
);
}
);
width = 542;
}
);
leftKerningGroup = "a";
rightKerningGroup = "a";
unicode = 0101;
},
{
glyphname = "abreve";
layers = (
{
layerId = "5CB93347-76DB-47FB-8F37-014E89A2A0A0";
name = "Regular";
paths = (
{
closed = 1;
nodes = (
"253 -11 OFFCURVE",
"306 20 OFFCURVE",
"343 66 CURVE",
"345 19 OFFCURVE",
"371 -10 OFFCURVE",
"430 -10 CURVE SMOOTH",
"454 -10 OFFCURVE",
"479 -5 OFFCURVE",
"498 1 CURVE",
"510 67 LINE",
"496 62 OFFCURVE",
"476 56 OFFCURVE",
"458 56 CURVE SMOOTH",
"429 56 OFFCURVE",
"419 71 OFFCURVE",
"425 102 CURVE SMOOTH",
"482 428 LINE",
"397 428 LINE",
"384 358 LINE",
"360 406 OFFCURVE",
"315 439 OFFCURVE",
"249 439 CURVE SMOOTH",
"129 439 OFFCURVE",
"25 336 OFFCURVE",
"25 184 CURVE SMOOTH",
"25 57 OFFCURVE",
"97 -11 OFFCURVE",
"190 -11 CURVE SMOOTH"
);
},
{
closed = 1;
nodes = (
"153 55 OFFCURVE",
"113 103 OFFCURVE",
"113 185 CURVE SMOOTH",
"113 290 OFFCURVE",
"178 373 OFFCURVE",
"264 373 CURVE SMOOTH",
"331 373 OFFCURVE",
"368 322 OFFCURVE",
"368 244 CURVE SMOOTH",
"368 143 OFFCURVE",
"304 55 OFFCURVE",
"217 55 CURVE SMOOTH"
);
},
{
closed = 1;
nodes = (
"389 509 OFFCURVE",
"448 565 OFFCURVE",
"467 652 CURVE",
"404 652 LINE",
"388 599 OFFCURVE",
"355 576 OFFCURVE",
"307 576 CURVE SMOOTH",
"257 576 OFFCURVE",
"235 602 OFFCURVE",
"238 652 CURVE",
"175 652 LINE",
"165 573 OFFCURVE",
"206 509 OFFCURVE",
"301 509 CURVE SMOOTH"
);
}
);
width = 542;
}
);
leftKerningGroup = "a";
rightKerningGroup = "a";
unicode = 0103;
},
{
glyphname = "aogonek";
layers = (
{
layerId = "5CB93347-76DB-47FB-8F37-014E89A2A0A0";
name = "Regular";
paths = (
{
closed = 1;
nodes = (
"408 -202 OFFCURVE",
"442 -193 OFFCURVE",
"464 -184 CURVE",
"468 -132 LINE",
"453 -139 OFFCURVE",
"426 -147 OFFCURVE",
"404 -147 CURVE SMOOTH",
"381 -147 OFFCURVE",
"364 -138 OFFCURVE",
"364 -112 CURVE SMOOTH",
"364 -72 OFFCURVE",
"405 -35 OFFCURVE",
"438 -10 CURVE",
"460 -9 OFFCURVE",
"481 -4 OFFCURVE",
"498 1 CURVE",
"510 67 LINE",
"496 62 OFFCURVE",
"476 56 OFFCURVE",
"458 56 CURVE SMOOTH",
"429 56 OFFCURVE",
"419 71 OFFCURVE",
"425 102 CURVE SMOOTH",
"482 428 LINE",
"397 428 LINE",
"384 358 LINE",
"360 406 OFFCURVE",
"315 439 OFFCURVE",
"249 439 CURVE SMOOTH",
"129 439 OFFCURVE",
"25 336 OFFCURVE",
"25 184 CURVE SMOOTH",
"25 57 OFFCURVE",
"97 -11 OFFCURVE",
"190 -11 CURVE SMOOTH",
"253 -11 OFFCURVE",
"306 20 OFFCURVE",
"343 66 CURVE",
"344 34 OFFCURVE",
"356 11 OFFCURVE",
"381 -1 CURVE",
"335 -30 OFFCURVE",
"288 -72 OFFCURVE",
"288 -129 CURVE SMOOTH",
"288 -181 OFFCURVE",
"326 -202 OFFCURVE",
"375 -202 CURVE SMOOTH"
);
},
{
closed = 1;
nodes = (
"153 55 OFFCURVE",
"113 103 OFFCURVE",
"113 185 CURVE SMOOTH",
"113 290 OFFCURVE",
"178 373 OFFCURVE",
"264 373 CURVE SMOOTH",
"331 373 OFFCURVE",
"368 322 OFFCURVE",
"368 244 CURVE SMOOTH",
"368 143 OFFCURVE",
"304 55 OFFCURVE",
"217 55 CURVE SMOOTH"
);
}
);
width = 542;
}
);
leftKerningGroup = "a";
rightKerningGroup = "a";
unicode = 0105;
},
{
glyphname = "ae";
layers = (
{
layerId = "5CB93347-76DB-47FB-8F37-014E89A2A0A0";
name = "Regular";
paths = (
{
closed = 1;
nodes = (
"207 -11 OFFCURVE",
"276 29 OFFCURVE",
"320 62 CURVE",
"355 12 OFFCURVE",
"413 -11 OFFCURVE",
"482 -11 CURVE SMOOTH",
"540 -11 OFFCURVE",
"587 5 OFFCURVE",
"618 21 CURVE",
"631 92 LINE",
"591 73 OFFCURVE",
"547 56 OFFCURVE",
"494 56 CURVE SMOOTH",
"419 56 OFFCURVE",
"375 94 OFFCURVE",
"375 183 CURVE",
"499 186 OFFCURVE",
"659 209 OFFCURVE",
"659 330 CURVE SMOOTH",
"659 390 OFFCURVE",
"620 439 OFFCURVE",
"534 439 CURVE SMOOTH",
"466 439 OFFCURVE",
"408 407 OFFCURVE",
"369 358 CURVE",
"358 410 OFFCURVE",
"315 439 OFFCURVE",
"237 439 CURVE SMOOTH",
"185 439 OFFCURVE",
"127 427 OFFCURVE",
"84 413 CURVE",
"72 346 LINE",
"110 358 OFFCURVE",
"166 372 OFFCURVE",
"220 372 CURVE SMOOTH",
"296 372 OFFCURVE",
"315 342 OFFCURVE",
"305 282 CURVE SMOOTH",
"298 245 LINE",
"233 245 LINE SMOOTH",
"105 245 OFFCURVE",
"2 211 OFFCURVE",
"2 105 CURVE SMOOTH",
"2 27 OFFCURVE",
"58 -11 OFFCURVE",
"132 -11 CURVE SMOOTH"
);
},
{
closed = 1;
nodes = (
"113 54 OFFCURVE",
"88 73 OFFCURVE",
"88 110 CURVE SMOOTH",
"88 175 OFFCURVE",
"160 186 OFFCURVE",
"240 186 CURVE SMOOTH",
"289 186 LINE",
"288 160 OFFCURVE",
"290 135 OFFCURVE",
"297 111 CURVE",
"260 84 OFFCURVE",
"208 54 OFFCURVE",
"155 54 CURVE SMOOTH"
);
},
{
closed = 1;
nodes = (
"567 375 OFFCURVE",
"582 355 OFFCURVE",
"582 330 CURVE SMOOTH",
"582 263 OFFCURVE",
"476 247 OFFCURVE",
"382 245 CURVE",
"401 322 OFFCURVE",
"457 375 OFFCURVE",
"526 375 CURVE SMOOTH"
);
}
);
width = 691;
}
);
leftKerningGroup = "ae";
rightKerningGroup = "e";
unicode = 00E6;
},
{
glyphname = "aeacute";
layers = (
{
layerId = "5CB93347-76DB-47FB-8F37-014E89A2A0A0";
name = "Regular";
paths = (
{
closed = 1;
nodes = (
"207 -11 OFFCURVE",
"276 29 OFFCURVE",
"320 62 CURVE",
"355 12 OFFCURVE",
"413 -11 OFFCURVE",
"482 -11 CURVE SMOOTH",
"540 -11 OFFCURVE",
"587 5 OFFCURVE",
"618 21 CURVE",
"631 92 LINE",
"591 73 OFFCURVE",
"547 56 OFFCURVE",
"494 56 CURVE SMOOTH",
"419 56 OFFCURVE",
"375 94 OFFCURVE",
"375 183 CURVE",
"499 186 OFFCURVE",
"659 209 OFFCURVE",
"659 330 CURVE SMOOTH",
"659 390 OFFCURVE",
"620 439 OFFCURVE",
"534 439 CURVE SMOOTH",
"466 439 OFFCURVE",
"408 407 OFFCURVE",
"369 358 CURVE",
"358 410 OFFCURVE",
"315 439 OFFCURVE",
"237 439 CURVE SMOOTH",
"185 439 OFFCURVE",
"127 427 OFFCURVE",
"84 413 CURVE",
"72 346 LINE",
"110 358 OFFCURVE",
"166 372 OFFCURVE",
"220 372 CURVE SMOOTH",
"296 372 OFFCURVE",
"315 342 OFFCURVE",
"305 282 CURVE SMOOTH",
"298 245 LINE",
"233 245 LINE SMOOTH",
"105 245 OFFCURVE",
"2 211 OFFCURVE",
"2 105 CURVE SMOOTH",
"2 27 OFFCURVE",
"58 -11 OFFCURVE",
"132 -11 CURVE SMOOTH"
);
},
{
closed = 1;
nodes = (
"113 54 OFFCURVE",
"88 73 OFFCURVE",
"88 110 CURVE SMOOTH",
"88 175 OFFCURVE",
"160 186 OFFCURVE",
"240 186 CURVE SMOOTH",
"289 186 LINE",
"288 160 OFFCURVE",
"290 135 OFFCURVE",
"297 111 CURVE",
"260 84 OFFCURVE",
"208 54 OFFCURVE",
"155 54 CURVE SMOOTH"
);
},
{
closed = 1;
nodes = (
"567 375 OFFCURVE",
"582 355 OFFCURVE",
"582 330 CURVE SMOOTH",
"582 263 OFFCURVE",
"476 247 OFFCURVE",
"382 245 CURVE",
"401 322 OFFCURVE",
"457 375 OFFCURVE",
"526 375 CURVE SMOOTH"
);
},
{
closed = 1;
nodes = (
"368 504 LINE",
"561 632 LINE",
"511 695 LINE",
"341 539 LINE"
);
}
);
width = 691;
}
);
leftKerningGroup = "ae";
rightKerningGroup = "e";
unicode = 01FD;
},
{
glyphname = "ccedilla";
layers = (
{
layerId = "5CB93347-76DB-47FB-8F37-014E89A2A0A0";
name = "Regular";
paths = (
{
closed = 1;
nodes = (
"221 -202 OFFCURVE",
"276 -176 OFFCURVE",
"276 -119 CURVE SMOOTH",
"276 -75 OFFCURVE",
"244 -54 OFFCURVE",
"204 -48 CURVE",
"225 -11 LINE",
"268 -10 OFFCURVE",
"314 -1 OFFCURVE",
"342 8 CURVE",
"354 77 LINE",
"326 66 OFFCURVE",
"279 55 OFFCURVE",
"240 55 CURVE SMOOTH",
"155 55 OFFCURVE",
"113 106 OFFCURVE",
"113 188 CURVE SMOOTH",
"113 284 OFFCURVE",
"169 373 OFFCURVE",
"280 373 CURVE SMOOTH",
"321 373 OFFCURVE",
"361 361 OFFCURVE",
"388 349 CURVE",
"401 414 LINE",
"370 427 OFFCURVE",
"321 439 OFFCURVE",
"271 439 CURVE SMOOTH",
"110 439 OFFCURVE",
"25 317 OFFCURVE",
"25 183 CURVE SMOOTH",
"25 75 OFFCURVE",
"80 8 OFFCURVE",
"172 -7 CURVE",
"134 -63 LINE",
"129 -83 LINE",
"165 -83 OFFCURVE",
"201 -91 OFFCURVE",
"201 -120 CURVE SMOOTH",
"201 -143 OFFCURVE",
"180 -152 OFFCURVE",
"148 -152 CURVE SMOOTH",
"124 -152 OFFCURVE",
"101 -146 OFFCURVE",
"81 -138 CURVE",
"66 -187 LINE",
"88 -196 OFFCURVE",
"119 -202 OFFCURVE",
"152 -202 CURVE SMOOTH"
);
}
);
width = 409;
}
);
leftKerningGroup = "c";
rightKerningGroup = "c";
unicode = 00E7;
},
{
glyphname = "cacute";
layers = (
{
layerId = "5CB93347-76DB-47FB-8F37-014E89A2A0A0";
name = "Regular";
paths = (
{
closed = 1;
nodes = (
"265 -11 OFFCURVE",
"313 -1 OFFCURVE",
"342 8 CURVE",
"354 77 LINE",
"326 66 OFFCURVE",
"279 55 OFFCURVE",
"240 55 CURVE SMOOTH",
"155 55 OFFCURVE",
"113 106 OFFCURVE",
"113 188 CURVE SMOOTH",
"113 284 OFFCURVE",
"169 373 OFFCURVE",
"280 373 CURVE SMOOTH",
"321 373 OFFCURVE",
"361 361 OFFCURVE",
"388 349 CURVE",
"401 414 LINE",
"370 427 OFFCURVE",
"321 439 OFFCURVE",
"271 439 CURVE SMOOTH",
"110 439 OFFCURVE",
"25 317 OFFCURVE",
"25 183 CURVE SMOOTH",
"25 58 OFFCURVE",
"100 -11 OFFCURVE",
"221 -11 CURVE SMOOTH"
);
},
{
closed = 1;
nodes = (
"233 504 LINE",
"426 632 LINE",
"376 695 LINE",
"206 539 LINE"
);
}
);
width = 409;
}
);
leftKerningGroup = "c";
rightKerningGroup = "c";
unicode = 0107;
},
{
glyphname = "ccircumflex";
layers = (
{
layerId = "5CB93347-76DB-47FB-8F37-014E89A2A0A0";
name = "Regular";
paths = (
{
closed = 1;
nodes = (
"265 -11 OFFCURVE",
"313 -1 OFFCURVE",
"342 8 CURVE",
"354 77 LINE",
"326 66 OFFCURVE",
"279 55 OFFCURVE",
"240 55 CURVE SMOOTH",
"155 55 OFFCURVE",
"113 106 OFFCURVE",
"113 188 CURVE SMOOTH",
"113 284 OFFCURVE",
"169 373 OFFCURVE",
"280 373 CURVE SMOOTH",
"321 373 OFFCURVE",
"361 361 OFFCURVE",
"388 349 CURVE",
"401 414 LINE",
"370 427 OFFCURVE",
"321 439 OFFCURVE",
"271 439 CURVE SMOOTH",
"110 439 OFFCURVE",
"25 317 OFFCURVE",
"25 183 CURVE SMOOTH",
"25 58 OFFCURVE",
"100 -11 OFFCURVE",
"221 -11 CURVE SMOOTH"
);
},
{
closed = 1;
nodes = (
"135 501 LINE",
"292 579 LINE",
"417 501 LINE",
"440 527 LINE",
"334 661 LINE",
"279 661 LINE",
"118 528 LINE"
);
}
);
width = 409;
}
);
leftKerningGroup = "c";
rightKerningGroup = "c";
unicode = 0109;
},
{
glyphname = "cdotaccent";
layers = (
{
layerId = "5CB93347-76DB-47FB-8F37-014E89A2A0A0";
name = "Regular";
paths = (
{
closed = 1;
nodes = (
"265 -11 OFFCURVE",
"313 -1 OFFCURVE",
"342 8 CURVE",
"354 77 LINE",
"326 66 OFFCURVE",
"279 55 OFFCURVE",
"240 55 CURVE SMOOTH",
"155 55 OFFCURVE",
"113 106 OFFCURVE",
"113 188 CURVE SMOOTH",
"113 284 OFFCURVE",
"169 373 OFFCURVE",
"280 373 CURVE SMOOTH",
"321 373 OFFCURVE",
"361 361 OFFCURVE",
"388 349 CURVE",
"401 414 LINE",
"370 427 OFFCURVE",
"321 439 OFFCURVE",
"271 439 CURVE SMOOTH",
"110 439 OFFCURVE",
"25 317 OFFCURVE",
"25 183 CURVE SMOOTH",
"25 58 OFFCURVE",
"100 -11 OFFCURVE",
"221 -11 CURVE SMOOTH"
);
},
{
closed = 1;
nodes = (
"331 509 OFFCURVE",
"357 535 OFFCURVE",
"357 566 CURVE SMOOTH",
"357 598 OFFCURVE",
"331 623 OFFCURVE",
"299 623 CURVE SMOOTH",
"267 623 OFFCURVE",
"242 597 OFFCURVE",
"242 566 CURVE SMOOTH",
"242 535 OFFCURVE",
"268 509 OFFCURVE",
"299 509 CURVE SMOOTH"
);
}
);
width = 409;
}
);
leftKerningGroup = "c";
rightKerningGroup = "c";
unicode = 010B;
},
{
glyphname = "ccaron";
layers = (
{
layerId = "5CB93347-76DB-47FB-8F37-014E89A2A0A0";
name = "Regular";
paths = (
{
closed = 1;
nodes = (
"265 -11 OFFCURVE",
"313 -1 OFFCURVE",
"342 8 CURVE",
"354 77 LINE",
"326 66 OFFCURVE",
"279 55 OFFCURVE",
"240 55 CURVE SMOOTH",
"155 55 OFFCURVE",
"113 106 OFFCURVE",
"113 188 CURVE SMOOTH",
"113 284 OFFCURVE",
"169 373 OFFCURVE",
"280 373 CURVE SMOOTH",
"321 373 OFFCURVE",
"361 361 OFFCURVE",
"388 349 CURVE",
"401 414 LINE",
"370 427 OFFCURVE",
"321 439 OFFCURVE",
"271 439 CURVE SMOOTH",
"110 439 OFFCURVE",
"25 317 OFFCURVE",
"25 183 CURVE SMOOTH",
"25 58 OFFCURVE",
"100 -11 OFFCURVE",
"221 -11 CURVE SMOOTH"
);
},
{
closed = 1;
nodes = (
"248 507 LINE",
"303 507 LINE",
"464 641 LINE",
"445 667 LINE",
"290 589 LINE",
"163 667 LINE",
"141 641 LINE"
);
}
);
width = 409;
}
);
leftKerningGroup = "c";
rightKerningGroup = "c";
unicode = 010D;
},
{
glyphname = "dcaron";
layers = (
{
layerId = "5CB93347-76DB-47FB-8F37-014E89A2A0A0";
name = "Regular";
paths = (
{
closed = 1;
nodes = (
"619 715 OFFCURVE",
"599 708 OFFCURVE",
"581 696 CURVE",
"580 689 LINE",
"596 681 OFFCURVE",
"607 666 OFFCURVE",
"607 641 CURVE SMOOTH",
"607 600 OFFCURVE",
"577 565 OFFCURVE",
"541 529 CURVE",
"574 500 LINE",
"640 547 OFFCURVE",
"689 605 OFFCURVE",
"689 659 CURVE SMOOTH",
"689 690 OFFCURVE",
"673 715 OFFCURVE",
"637 715 CURVE SMOOTH"
);
},
{
closed = 1;
nodes = (
"253 -11 OFFCURVE",
"306 20 OFFCURVE",
"343 66 CURVE",
"345 20 OFFCURVE",
"368 -10 OFFCURVE",
"429 -10 CURVE SMOOTH",
"454 -10 OFFCURVE",
"479 -5 OFFCURVE",
"498 1 CURVE",
"510 67 LINE",
"496 62 OFFCURVE",
"476 56 OFFCURVE",
"458 56 CURVE SMOOTH",
"430 56 OFFCURVE",
"419 70 OFFCURVE",
"425 102 CURVE SMOOTH",
"531 707 LINE",
"358 707 LINE",
"346 639 LINE",
"434 639 LINE",
"384 359 LINE",
"359 406 OFFCURVE",
"315 439 OFFCURVE",
"249 439 CURVE SMOOTH",
"129 439 OFFCURVE",
"25 336 OFFCURVE",
"25 184 CURVE SMOOTH",
"25 57 OFFCURVE",
"97 -11 OFFCURVE",
"190 -11 CURVE SMOOTH"
);
},
{
closed = 1;
nodes = (
"153 55 OFFCURVE",
"113 103 OFFCURVE",
"113 185 CURVE SMOOTH",
"113 290 OFFCURVE",
"178 373 OFFCURVE",
"264 373 CURVE SMOOTH",
"331 373 OFFCURVE",
"368 322 OFFCURVE",
"368 244 CURVE SMOOTH",
"368 143 OFFCURVE",
"304 55 OFFCURVE",
"217 55 CURVE SMOOTH"
);
}
);
width = 542;
}
);
leftKerningGroup = "d";
rightKerningGroup = "d";
unicode = 010F;
},
{
glyphname = "dcroat";
layers = (
{
layerId = "5CB93347-76DB-47FB-8F37-014E89A2A0A0";
name = "Regular";
paths = (
{
closed = 1;
nodes = (
"259 509 LINE",
"410 509 LINE",
"384 359 LINE",
"359 406 OFFCURVE",
"315 439 OFFCURVE",
"249 439 CURVE SMOOTH",
"129 439 OFFCURVE",
"25 336 OFFCURVE",
"25 184 CURVE SMOOTH",
"25 57 OFFCURVE",
"97 -11 OFFCURVE",
"190 -11 CURVE SMOOTH",
"253 -11 OFFCURVE",
"306 20 OFFCURVE",
"343 66 CURVE",
"345 20 OFFCURVE",
"368 -10 OFFCURVE",
"429 -10 CURVE SMOOTH",
"454 -10 OFFCURVE",
"479 -5 OFFCURVE",
"498 1 CURVE",
"510 67 LINE",
"496 62 OFFCURVE",
"476 56 OFFCURVE",
"458 56 CURVE SMOOTH",
"430 56 OFFCURVE",
"419 70 OFFCURVE",
"425 102 CURVE SMOOTH",
"496 509 LINE",
"558 509 LINE",
"568 567 LINE",
"507 567 LINE",
"531 707 LINE",
"358 707 LINE",
"346 639 LINE",
"434 639 LINE",
"420 567 LINE",
"269 567 LINE"
);
},
{
closed = 1;
nodes = (
"153 55 OFFCURVE",
"113 103 OFFCURVE",
"113 185 CURVE SMOOTH",
"113 290 OFFCURVE",
"178 373 OFFCURVE",
"264 373 CURVE SMOOTH",
"331 373 OFFCURVE",
"368 322 OFFCURVE",
"368 244 CURVE SMOOTH",
"368 143 OFFCURVE",
"304 55 OFFCURVE",
"217 55 CURVE SMOOTH"
);
}
);
width = 542;
}
);
leftKerningGroup = "d";
rightKerningGroup = "d";
unicode = 0111;
},
{
glyphname = "egrave";
layers = (
{
layerId = "5CB93347-76DB-47FB-8F37-014E89A2A0A0";
name = "Regular";
paths = (
{
closed = 1;
nodes = (
"271 -11 OFFCURVE",
"319 3 OFFCURVE",
"353 21 CURVE",
"367 92 LINE",
"326 73 OFFCURVE",
"279 56 OFFCURVE",
"229 56 CURVE SMOOTH",
"157 56 OFFCURVE",
"114 90 OFFCURVE",
"109 169 CURVE",
"250 176 OFFCURVE",
"396 214 OFFCURVE",
"396 330 CURVE SMOOTH",
"396 394 OFFCURVE",
"351 439 OFFCURVE",
"265 439 CURVE SMOOTH",
"131 439 OFFCURVE",
"24 330 OFFCURVE",
"24 181 CURVE SMOOTH",
"24 50 OFFCURVE",
"107 -11 OFFCURVE",
"218 -11 CURVE SMOOTH"
);
},
{
closed = 1;
nodes = (
"131 316 OFFCURVE",
"190 375 OFFCURVE",
"261 375 CURVE SMOOTH",
"303 375 OFFCURVE",
"317 353 OFFCURVE",
"317 328 CURVE SMOOTH",
"317 262 OFFCURVE",
"214 237 OFFCURVE",
"113 233 CURVE"
);
},
{
closed = 1;
nodes = (
"303 505 LINE",
"335 539 LINE",
"196 696 LINE",
"140 635 LINE"
);
}
);
width = 427;
}
);
leftKerningGroup = "c";
rightKerningGroup = "e";
unicode = 00E8;
},
{
glyphname = "eacute";
layers = (
{
layerId = "5CB93347-76DB-47FB-8F37-014E89A2A0A0";
name = "Regular";
paths = (
{
closed = 1;
nodes = (
"271 -11 OFFCURVE",
"319 3 OFFCURVE",
"353 21 CURVE",
"367 92 LINE",
"326 73 OFFCURVE",
"279 56 OFFCURVE",
"229 56 CURVE SMOOTH",
"157 56 OFFCURVE",
"114 90 OFFCURVE",
"109 169 CURVE",
"250 176 OFFCURVE",
"396 214 OFFCURVE",
"396 330 CURVE SMOOTH",
"396 394 OFFCURVE",
"351 439 OFFCURVE",
"265 439 CURVE SMOOTH",
"131 439 OFFCURVE",
"24 330 OFFCURVE",
"24 181 CURVE SMOOTH",
"24 50 OFFCURVE",
"107 -11 OFFCURVE",
"218 -11 CURVE SMOOTH"
);
},
{
closed = 1;
nodes = (
"131 316 OFFCURVE",
"190 375 OFFCURVE",
"261 375 CURVE SMOOTH",
"303 375 OFFCURVE",
"317 353 OFFCURVE",
"317 328 CURVE SMOOTH",
"317 262 OFFCURVE",
"214 237 OFFCURVE",
"113 233 CURVE"
);
},
{
closed = 1;
nodes = (
"224 504 LINE",
"417 632 LINE",
"367 695 LINE",
"197 539 LINE"
);
}
);
width = 427;
}
);
leftKerningGroup = "c";
rightKerningGroup = "e";
unicode = 00E9;
},
{
glyphname = "ecircumflex";
layers = (
{
layerId = "5CB93347-76DB-47FB-8F37-014E89A2A0A0";
name = "Regular";
paths = (
{
closed = 1;
nodes = (
"271 -11 OFFCURVE",
"319 3 OFFCURVE",
"353 21 CURVE",
"367 92 LINE",
"326 73 OFFCURVE",
"279 56 OFFCURVE",
"229 56 CURVE SMOOTH",
"157 56 OFFCURVE",
"114 90 OFFCURVE",
"109 169 CURVE",
"250 176 OFFCURVE",
"396 214 OFFCURVE",
"396 330 CURVE SMOOTH",
"396 394 OFFCURVE",
"351 439 OFFCURVE",
"265 439 CURVE SMOOTH",
"131 439 OFFCURVE",
"24 330 OFFCURVE",
"24 181 CURVE SMOOTH",
"24 50 OFFCURVE",
"107 -11 OFFCURVE",
"218 -11 CURVE SMOOTH"
);
},
{
closed = 1;
nodes = (
"131 316 OFFCURVE",
"190 375 OFFCURVE",
"261 375 CURVE SMOOTH",
"303 375 OFFCURVE",
"317 353 OFFCURVE",
"317 328 CURVE SMOOTH",
"317 262 OFFCURVE",
"214 237 OFFCURVE",
"113 233 CURVE"
);
},
{
closed = 1;
nodes = (
"123 501 LINE",
"280 579 LINE",
"405 501 LINE",
"427 527 LINE",
"321 661 LINE",
"266 661 LINE",
"105 528 LINE"
);
}
);
width = 427;
}
);
leftKerningGroup = "c";
rightKerningGroup = "e";
unicode = 00EA;
},
{
glyphname = "edieresis";
layers = (
{
layerId = "5CB93347-76DB-47FB-8F37-014E89A2A0A0";
name = "Regular";
paths = (
{
closed = 1;
nodes = (
"271 -11 OFFCURVE",
"319 3 OFFCURVE",
"353 21 CURVE",
"367 92 LINE",
"326 73 OFFCURVE",
"279 56 OFFCURVE",
"229 56 CURVE SMOOTH",
"157 56 OFFCURVE",
"114 90 OFFCURVE",
"109 169 CURVE",
"250 176 OFFCURVE",
"396 214 OFFCURVE",
"396 330 CURVE SMOOTH",
"396 394 OFFCURVE",
"351 439 OFFCURVE",
"265 439 CURVE SMOOTH",
"131 439 OFFCURVE",
"24 330 OFFCURVE",
"24 181 CURVE SMOOTH",
"24 50 OFFCURVE",
"107 -11 OFFCURVE",
"218 -11 CURVE SMOOTH"
);
},
{
closed = 1;
nodes = (
"131 316 OFFCURVE",
"190 375 OFFCURVE",
"261 375 CURVE SMOOTH",
"303 375 OFFCURVE",
"317 353 OFFCURVE",
"317 328 CURVE SMOOTH",
"317 262 OFFCURVE",
"214 237 OFFCURVE",
"113 233 CURVE"
);
},
{
closed = 1;
nodes = (
"210 509 OFFCURVE",
"233 532 OFFCURVE",
"233 562 CURVE SMOOTH",
"233 591 OFFCURVE",
"210 615 OFFCURVE",
"181 615 CURVE SMOOTH",
"151 615 OFFCURVE",
"128 591 OFFCURVE",
"128 562 CURVE SMOOTH",
"128 532 OFFCURVE",
"151 509 OFFCURVE",
"181 509 CURVE SMOOTH"
);
},
{
closed = 1;
nodes = (
"392 509 OFFCURVE",
"416 532 OFFCURVE",
"416 562 CURVE SMOOTH",
"416 591 OFFCURVE",
"392 615 OFFCURVE",
"363 615 CURVE SMOOTH",
"333 615 OFFCURVE",
"310 591 OFFCURVE",
"310 562 CURVE SMOOTH",
"310 532 OFFCURVE",
"333 509 OFFCURVE",
"363 509 CURVE SMOOTH"
);
}
);
width = 427;
}
);
leftKerningGroup = "c";
rightKerningGroup = "e";
unicode = 00EB;
},
{
glyphname = "emacron";
layers = (
{
layerId = "5CB93347-76DB-47FB-8F37-014E89A2A0A0";
name = "Regular";
paths = (
{
closed = 1;
nodes = (
"271 -11 OFFCURVE",
"319 3 OFFCURVE",
"353 21 CURVE",
"367 92 LINE",
"326 73 OFFCURVE",
"279 56 OFFCURVE",
"229 56 CURVE SMOOTH",
"157 56 OFFCURVE",
"114 90 OFFCURVE",
"109 169 CURVE",
"250 176 OFFCURVE",
"396 214 OFFCURVE",
"396 330 CURVE SMOOTH",
"396 394 OFFCURVE",
"351 439 OFFCURVE",
"265 439 CURVE SMOOTH",
"131 439 OFFCURVE",
"24 330 OFFCURVE",
"24 181 CURVE SMOOTH",
"24 50 OFFCURVE",
"107 -11 OFFCURVE",
"218 -11 CURVE SMOOTH"
);
},
{
closed = 1;
nodes = (
"131 316 OFFCURVE",
"190 375 OFFCURVE",
"261 375 CURVE SMOOTH",
"303 375 OFFCURVE",
"317 353 OFFCURVE",
"317 328 CURVE SMOOTH",
"317 262 OFFCURVE",
"214 237 OFFCURVE",
"113 233 CURVE"
);
},
{
closed = 1;
nodes = (
"131 522 LINE",
"401 522 LINE",
"413 587 LINE",
"142 587 LINE"
);
}
);
width = 427;
}
);
leftKerningGroup = "c";
rightKerningGroup = "e";
unicode = 0113;
},
{
glyphname = "ebreve";
layers = (
{
layerId = "5CB93347-76DB-47FB-8F37-014E89A2A0A0";
name = "Regular";
paths = (
{
closed = 1;
nodes = (
"271 -11 OFFCURVE",
"319 3 OFFCURVE",
"353 21 CURVE",
"367 92 LINE",
"326 73 OFFCURVE",
"279 56 OFFCURVE",
"229 56 CURVE SMOOTH",
"157 56 OFFCURVE",
"114 90 OFFCURVE",
"109 169 CURVE",
"250 176 OFFCURVE",
"396 214 OFFCURVE",
"396 330 CURVE SMOOTH",
"396 394 OFFCURVE",
"351 439 OFFCURVE",
"265 439 CURVE SMOOTH",
"131 439 OFFCURVE",
"24 330 OFFCURVE",
"24 181 CURVE SMOOTH",
"24 50 OFFCURVE",
"107 -11 OFFCURVE",
"218 -11 CURVE SMOOTH"
);
},
{
closed = 1;
nodes = (
"131 316 OFFCURVE",
"190 375 OFFCURVE",
"261 375 CURVE SMOOTH",
"303 375 OFFCURVE",
"317 353 OFFCURVE",
"317 328 CURVE SMOOTH",
"317 262 OFFCURVE",
"214 237 OFFCURVE",
"113 233 CURVE"
);
},
{
closed = 1;
nodes = (
"359 509 OFFCURVE",
"418 565 OFFCURVE",
"437 652 CURVE",
"374 652 LINE",
"358 599 OFFCURVE",
"325 576 OFFCURVE",
"277 576 CURVE SMOOTH",
"227 576 OFFCURVE",
"205 602 OFFCURVE",
"208 652 CURVE",
"145 652 LINE",
"135 573 OFFCURVE",
"176 509 OFFCURVE",
"271 509 CURVE SMOOTH"
);
}
);
width = 427;
}
);
leftKerningGroup = "c";
rightKerningGroup = "e";
unicode = 0115;
},
{
glyphname = "edotaccent";
layers = (
{
layerId = "5CB93347-76DB-47FB-8F37-014E89A2A0A0";
name = "Regular";
paths = (
{
closed = 1;
nodes = (
"271 -11 OFFCURVE",
"319 3 OFFCURVE",
"353 21 CURVE",
"367 92 LINE",
"326 73 OFFCURVE",
"279 56 OFFCURVE",
"229 56 CURVE SMOOTH",
"157 56 OFFCURVE",
"114 90 OFFCURVE",
"109 169 CURVE",
"250 176 OFFCURVE",
"396 214 OFFCURVE",
"396 330 CURVE SMOOTH",
"396 394 OFFCURVE",
"351 439 OFFCURVE",
"265 439 CURVE SMOOTH",
"131 439 OFFCURVE",
"24 330 OFFCURVE",
"24 181 CURVE SMOOTH",
"24 50 OFFCURVE",
"107 -11 OFFCURVE",
"218 -11 CURVE SMOOTH"
);
},
{
closed = 1;
nodes = (
"131 316 OFFCURVE",
"190 375 OFFCURVE",
"261 375 CURVE SMOOTH",
"303 375 OFFCURVE",
"317 353 OFFCURVE",
"317 328 CURVE SMOOTH",
"317 262 OFFCURVE",
"214 237 OFFCURVE",
"113 233 CURVE"
);
},
{
closed = 1;
nodes = (
"315 509 OFFCURVE",
"340 535 OFFCURVE",
"340 566 CURVE SMOOTH",
"340 598 OFFCURVE",
"314 623 OFFCURVE",
"282 623 CURVE SMOOTH",
"251 623 OFFCURVE",
"225 597 OFFCURVE",
"225 566 CURVE SMOOTH",
"225 535 OFFCURVE",
"251 509 OFFCURVE",
"282 509 CURVE SMOOTH"
);
}
);
width = 427;
}
);
leftKerningGroup = "c";
rightKerningGroup = "e";
unicode = 0117;
},
{
glyphname = "eogonek";
layers = (
{
layerId = "5CB93347-76DB-47FB-8F37-014E89A2A0A0";
name = "Regular";
paths = (
{
closed = 1;
nodes = (
"265 -202 OFFCURVE",
"299 -193 OFFCURVE",
"321 -184 CURVE",
"325 -132 LINE",
"309 -139 OFFCURVE",
"282 -147 OFFCURVE",
"260 -147 CURVE SMOOTH",
"238 -147 OFFCURVE",
"221 -139 OFFCURVE",
"221 -112 CURVE SMOOTH",
"221 -58 OFFCURVE",
"289 -13 OFFCURVE",
"353 21 CURVE",
"367 92 LINE",
"326 73 OFFCURVE",
"279 56 OFFCURVE",
"229 56 CURVE SMOOTH",
"157 56 OFFCURVE",
"113 91 OFFCURVE",
"109 169 CURVE",
"250 176 OFFCURVE",
"396 214 OFFCURVE",
"396 330 CURVE SMOOTH",
"396 394 OFFCURVE",
"351 439 OFFCURVE",
"265 439 CURVE SMOOTH",
"131 439 OFFCURVE",
"24 330 OFFCURVE",
"24 181 CURVE SMOOTH",
"24 50 OFFCURVE",
"107 -14 OFFCURVE",
"222 -10 CURVE",
"180 -40 OFFCURVE",
"145 -80 OFFCURVE",
"145 -129 CURVE SMOOTH",
"145 -180 OFFCURVE",
"183 -202 OFFCURVE",
"233 -202 CURVE SMOOTH"
);
},
{
closed = 1;
nodes = (
"303 375 OFFCURVE",
"317 353 OFFCURVE",
"317 328 CURVE SMOOTH",
"317 262 OFFCURVE",
"214 237 OFFCURVE",
"113 233 CURVE",
"131 316 OFFCURVE",
"190 375 OFFCURVE",
"261 375 CURVE SMOOTH"
);
}
);
width = 427;
}
);
leftKerningGroup = "c";
rightKerningGroup = "e";
unicode = 0119;
},
{
glyphname = "ecaron";
layers = (
{
layerId = "5CB93347-76DB-47FB-8F37-014E89A2A0A0";
name = "Regular";
paths = (
{
closed = 1;
nodes = (
"271 -11 OFFCURVE",
"319 3 OFFCURVE",
"353 21 CURVE",
"367 92 LINE",
"326 73 OFFCURVE",
"279 56 OFFCURVE",
"229 56 CURVE SMOOTH",
"157 56 OFFCURVE",
"114 90 OFFCURVE",
"109 169 CURVE",
"250 176 OFFCURVE",
"396 214 OFFCURVE",
"396 330 CURVE SMOOTH",
"396 394 OFFCURVE",
"351 439 OFFCURVE",
"265 439 CURVE SMOOTH",
"131 439 OFFCURVE",
"24 330 OFFCURVE",
"24 181 CURVE SMOOTH",
"24 50 OFFCURVE",
"107 -11 OFFCURVE",
"218 -11 CURVE SMOOTH"
);
},
{
closed = 1;
nodes = (
"131 316 OFFCURVE",
"190 375 OFFCURVE",
"261 375 CURVE SMOOTH",
"303 375 OFFCURVE",
"317 353 OFFCURVE",
"317 328 CURVE SMOOTH",
"317 262 OFFCURVE",
"214 237 OFFCURVE",
"113 233 CURVE"
);
},
{
closed = 1;
nodes = (
"237 507 LINE",
"292 507 LINE",
"453 641 LINE",
"434 667 LINE",
"278 589 LINE",
"152 667 LINE",
"129 641 LINE"
);
}
);
width = 427;
}
);
leftKerningGroup = "c";
rightKerningGroup = "e";
unicode = 011B;
},
{
glyphname = "eth";
layers = (
{
layerId = "5CB93347-76DB-47FB-8F37-014E89A2A0A0";
name = "Regular";
paths = (
{
closed = 1;
nodes = (
"356 -11 OFFCURVE",
"473 96 OFFCURVE",
"473 316 CURVE SMOOTH",
"473 443 OFFCURVE",
"432 545 OFFCURVE",
"368 622 CURVE",
"456 680 LINE",
"436 714 LINE",
"341 651 LINE",
"313 679 OFFCURVE",
"281 703 OFFCURVE",
"248 724 CURVE",
"195 675 LINE",
"224 655 OFFCURVE",
"250 633 OFFCURVE",
"274 609 CURVE",
"162 534 LINE",
"181 500 LINE",
"300 579 LINE",
"349 518 OFFCURVE",
"380 445 OFFCURVE",
"385 361 CURVE",
"360 394 OFFCURVE",
"318 421 OFFCURVE",
"254 421 CURVE SMOOTH",
"126 421 OFFCURVE",
"24 314 OFFCURVE",
"24 176 CURVE SMOOTH",
"24 63 OFFCURVE",
"93 -11 OFFCURVE",
"212 -11 CURVE SMOOTH"
);
},
{
closed = 1;
nodes = (
"151 55 OFFCURVE",
"113 99 OFFCURVE",
"113 175 CURVE SMOOTH",
"113 275 OFFCURVE",
"176 356 OFFCURVE",
"269 356 CURVE SMOOTH",
"338 356 OFFCURVE",
"373 310 OFFCURVE",
"373 236 CURVE SMOOTH",
"373 135 OFFCURVE",
"308 55 OFFCURVE",
"218 55 CURVE SMOOTH"
);
}
);
width = 509;
}
);
leftKerningGroup = "c";
rightKerningGroup = "eth";
unicode = 00F0;
},
{
glyphname = "gcircumflex";
layers = (
{
layerId = "5CB93347-76DB-47FB-8F37-014E89A2A0A0";
name = "Regular";
paths = (
{
closed = 1;
nodes = (
"310 -210 OFFCURVE",
"351 -138 OFFCURVE",
"351 -87 CURVE SMOOTH",
"351 -27 OFFCURVE",
"298 6 OFFCURVE",
"243 30 CURVE SMOOTH",
"188 55 OFFCURVE",
"134 71 OFFCURVE",
"134 96 CURVE SMOOTH",
"134 103 OFFCURVE",
"139 111 OFFCURVE",
"148 120 CURVE",
"165 115 OFFCURVE",
"183 113 OFFCURVE",
"202 113 CURVE SMOOTH",
"319 113 OFFCURVE",
"397 201 OFFCURVE",
"397 297 CURVE SMOOTH",
"397 323 OFFCURVE",
"390 345 OFFCURVE",
"379 363 CURVE",
"454 360 LINE",
"467 428 LINE",
"304 428 LINE",
"284 435 OFFCURVE",
"261 439 OFFCURVE",
"237 439 CURVE SMOOTH",
"120 439 OFFCURVE",
"42 351 OFFCURVE",
"42 255 CURVE SMOOTH",
"42 204 OFFCURVE",
"63 166 OFFCURVE",
"98 142 CURVE",
"76 124 OFFCURVE",
"59 102 OFFCURVE",
"59 74 CURVE SMOOTH",
"59 62 OFFCURVE",
"62 52 OFFCURVE",
"69 43 CURVE",
"17 20 OFFCURVE",
"-70 -23 OFFCURVE",
"-70 -99 CURVE SMOOTH",
"-70 -151 OFFCURVE",
"-28 -210 OFFCURVE",
"133 -210 CURVE SMOOTH"
);
},
{
closed = 1;
nodes = (
"290 377 OFFCURVE",
"317 344 OFFCURVE",
"317 297 CURVE SMOOTH",
"317 233 OFFCURVE",
"271 175 OFFCURVE",
"201 175 CURVE SMOOTH",
"149 175 OFFCURVE",
"122 207 OFFCURVE",
"122 255 CURVE SMOOTH",
"122 318 OFFCURVE",
"167 377 OFFCURVE",
"238 377 CURVE SMOOTH"
);
},
{
closed = 1;
nodes = (
"44 -145 OFFCURVE",
"13 -117 OFFCURVE",
"13 -87 CURVE SMOOTH",
"13 -45 OFFCURVE",
"70 -14 OFFCURVE",
"112 5 CURVE",
"130 -5 OFFCURVE",
"152 -14 OFFCURVE",
"173 -23 CURVE SMOOTH",
"233 -48 OFFCURVE",
"267 -68 OFFCURVE",
"267 -92 CURVE SMOOTH",
"267 -116 OFFCURVE",
"235 -145 OFFCURVE",
"138 -145 CURVE SMOOTH"
);
},
{
closed = 1;
nodes = (
"125 501 LINE",
"281 579 LINE",
"407 501 LINE",
"429 527 LINE",
"323 661 LINE",
"268 661 LINE",
"107 528 LINE"
);
}
);
width = 450;
}
);
leftKerningGroup = "g";
rightKerningGroup = "g";
unicode = 011D;
},
{
glyphname = "gbreve";
layers = (
{
layerId = "5CB93347-76DB-47FB-8F37-014E89A2A0A0";
name = "Regular";
paths = (
{
closed = 1;
nodes = (
"310 -210 OFFCURVE",
"351 -138 OFFCURVE",
"351 -87 CURVE SMOOTH",
"351 -27 OFFCURVE",
"298 6 OFFCURVE",
"243 30 CURVE SMOOTH",
"188 55 OFFCURVE",
"134 71 OFFCURVE",
"134 96 CURVE SMOOTH",
"134 103 OFFCURVE",
"139 111 OFFCURVE",
"148 120 CURVE",
"165 115 OFFCURVE",
"183 113 OFFCURVE",
"202 113 CURVE SMOOTH",
"319 113 OFFCURVE",
"397 201 OFFCURVE",
"397 297 CURVE SMOOTH",
"397 323 OFFCURVE",
"390 345 OFFCURVE",
"379 363 CURVE",
"454 360 LINE",
"467 428 LINE",
"304 428 LINE",
"284 435 OFFCURVE",
"261 439 OFFCURVE",
"237 439 CURVE SMOOTH",
"120 439 OFFCURVE",
"42 351 OFFCURVE",
"42 255 CURVE SMOOTH",
"42 204 OFFCURVE",
"63 166 OFFCURVE",
"98 142 CURVE",
"76 124 OFFCURVE",
"59 102 OFFCURVE",
"59 74 CURVE SMOOTH",
"59 62 OFFCURVE",
"62 52 OFFCURVE",
"69 43 CURVE",
"17 20 OFFCURVE",
"-70 -23 OFFCURVE",
"-70 -99 CURVE SMOOTH",
"-70 -151 OFFCURVE",
"-28 -210 OFFCURVE",
"133 -210 CURVE SMOOTH"
);
},
{
closed = 1;
nodes = (
"290 377 OFFCURVE",
"317 344 OFFCURVE",
"317 297 CURVE SMOOTH",
"317 233 OFFCURVE",
"271 175 OFFCURVE",
"201 175 CURVE SMOOTH",
"149 175 OFFCURVE",
"122 207 OFFCURVE",
"122 255 CURVE SMOOTH",
"122 318 OFFCURVE",
"167 377 OFFCURVE",
"238 377 CURVE SMOOTH"
);
},
{
closed = 1;
nodes = (
"44 -145 OFFCURVE",
"13 -117 OFFCURVE",
"13 -87 CURVE SMOOTH",
"13 -45 OFFCURVE",
"70 -14 OFFCURVE",
"112 5 CURVE",
"130 -5 OFFCURVE",
"152 -14 OFFCURVE",
"173 -23 CURVE SMOOTH",
"233 -48 OFFCURVE",
"267 -68 OFFCURVE",
"267 -92 CURVE SMOOTH",
"267 -116 OFFCURVE",
"235 -145 OFFCURVE",
"138 -145 CURVE SMOOTH"
);
},
{
closed = 1;
nodes = (
"357 509 OFFCURVE",
"417 565 OFFCURVE",
"435 652 CURVE",
"372 652 LINE",
"356 599 OFFCURVE",
"323 576 OFFCURVE",
"276 576 CURVE SMOOTH",
"225 576 OFFCURVE",
"203 602 OFFCURVE",
"207 652 CURVE",
"144 652 LINE",
"133 573 OFFCURVE",
"175 509 OFFCURVE",
"269 509 CURVE SMOOTH"
);
}
);
width = 450;
}
);
leftKerningGroup = "g";
rightKerningGroup = "g";
unicode = 011F;
},
{
glyphname = "gdotaccent";
layers = (
{
layerId = "5CB93347-76DB-47FB-8F37-014E89A2A0A0";
name = "Regular";
paths = (
{
closed = 1;
nodes = (
"310 -210 OFFCURVE",
"351 -138 OFFCURVE",
"351 -87 CURVE SMOOTH",
"351 -27 OFFCURVE",
"298 6 OFFCURVE",
"243 30 CURVE SMOOTH",
"188 55 OFFCURVE",
"134 71 OFFCURVE",
"134 96 CURVE SMOOTH",
"134 103 OFFCURVE",
"139 111 OFFCURVE",
"148 120 CURVE",
"165 115 OFFCURVE",
"183 113 OFFCURVE",
"202 113 CURVE SMOOTH",
"319 113 OFFCURVE",
"397 201 OFFCURVE",
"397 297 CURVE SMOOTH",
"397 323 OFFCURVE",
"390 345 OFFCURVE",
"379 363 CURVE",
"454 360 LINE",
"467 428 LINE",
"304 428 LINE",
"284 435 OFFCURVE",
"261 439 OFFCURVE",
"237 439 CURVE SMOOTH",
"120 439 OFFCURVE",
"42 351 OFFCURVE",
"42 255 CURVE SMOOTH",
"42 204 OFFCURVE",
"63 166 OFFCURVE",
"98 142 CURVE",
"76 124 OFFCURVE",
"59 102 OFFCURVE",
"59 74 CURVE SMOOTH",
"59 62 OFFCURVE",
"62 52 OFFCURVE",
"69 43 CURVE",
"17 20 OFFCURVE",
"-70 -23 OFFCURVE",
"-70 -99 CURVE SMOOTH",
"-70 -151 OFFCURVE",
"-28 -210 OFFCURVE",
"133 -210 CURVE SMOOTH"
);
},
{
closed = 1;
nodes = (
"290 377 OFFCURVE",
"317 344 OFFCURVE",
"317 297 CURVE SMOOTH",
"317 233 OFFCURVE",
"271 175 OFFCURVE",
"201 175 CURVE SMOOTH",
"149 175 OFFCURVE",
"122 207 OFFCURVE",
"122 255 CURVE SMOOTH",
"122 318 OFFCURVE",
"167 377 OFFCURVE",
"238 377 CURVE SMOOTH"
);
},
{
closed = 1;
nodes = (
"44 -145 OFFCURVE",
"13 -117 OFFCURVE",
"13 -87 CURVE SMOOTH",
"13 -45 OFFCURVE",
"70 -14 OFFCURVE",
"112 5 CURVE",
"130 -5 OFFCURVE",
"152 -14 OFFCURVE",
"173 -23 CURVE SMOOTH",
"233 -48 OFFCURVE",
"267 -68 OFFCURVE",
"267 -92 CURVE SMOOTH",
"267 -116 OFFCURVE",
"235 -145 OFFCURVE",
"138 -145 CURVE SMOOTH"
);
},
{
closed = 1;
nodes = (
"307 509 OFFCURVE",
"333 535 OFFCURVE",
"333 566 CURVE SMOOTH",
"333 598 OFFCURVE",
"307 623 OFFCURVE",
"275 623 CURVE SMOOTH",
"243 623 OFFCURVE",
"218 597 OFFCURVE",
"218 566 CURVE SMOOTH",
"218 535 OFFCURVE",
"244 509 OFFCURVE",
"275 509 CURVE SMOOTH"
);
}
);
width = 450;
}
);
leftKerningGroup = "g";
rightKerningGroup = "g";
unicode = 0121;
},
{
glyphname = "gcommaaccent";
layers = (
{
layerId = "5CB93347-76DB-47FB-8F37-014E89A2A0A0";
name = "Regular";
paths = (
{
closed = 1;
nodes = (
"295 503 OFFCURVE",
"314 510 OFFCURVE",
"333 522 CURVE",
"334 529 LINE",
"318 537 OFFCURVE",
"307 552 OFFCURVE",
"307 577 CURVE SMOOTH",
"307 618 OFFCURVE",
"337 653 OFFCURVE",
"372 689 CURVE",
"340 718 LINE",
"273 671 OFFCURVE",
"225 613 OFFCURVE",
"225 559 CURVE SMOOTH",
"225 528 OFFCURVE",
"241 503 OFFCURVE",
"277 503 CURVE SMOOTH"
);
},
{
closed = 1;
nodes = (
"310 -210 OFFCURVE",
"351 -138 OFFCURVE",
"351 -87 CURVE SMOOTH",
"351 -27 OFFCURVE",
"298 6 OFFCURVE",
"243 30 CURVE SMOOTH",
"188 55 OFFCURVE",
"134 71 OFFCURVE",
"134 96 CURVE SMOOTH",
"134 103 OFFCURVE",
"139 111 OFFCURVE",
"148 120 CURVE",
"165 115 OFFCURVE",
"183 113 OFFCURVE",
"202 113 CURVE SMOOTH",
"319 113 OFFCURVE",
"397 201 OFFCURVE",
"397 297 CURVE SMOOTH",
"397 323 OFFCURVE",
"390 345 OFFCURVE",
"379 363 CURVE",
"454 360 LINE",
"467 428 LINE",
"304 428 LINE",
"284 435 OFFCURVE",
"261 439 OFFCURVE",
"237 439 CURVE SMOOTH",
"120 439 OFFCURVE",
"42 351 OFFCURVE",
"42 255 CURVE SMOOTH",
"42 204 OFFCURVE",
"63 166 OFFCURVE",
"98 142 CURVE",
"76 124 OFFCURVE",
"59 102 OFFCURVE",
"59 74 CURVE SMOOTH",
"59 62 OFFCURVE",
"62 52 OFFCURVE",
"69 43 CURVE",
"17 20 OFFCURVE",
"-70 -23 OFFCURVE",
"-70 -99 CURVE SMOOTH",
"-70 -151 OFFCURVE",
"-28 -210 OFFCURVE",
"133 -210 CURVE SMOOTH"
);
},
{
closed = 1;
nodes = (
"290 377 OFFCURVE",
"317 344 OFFCURVE",
"317 297 CURVE SMOOTH",
"317 233 OFFCURVE",
"271 175 OFFCURVE",
"201 175 CURVE SMOOTH",
"149 175 OFFCURVE",
"122 207 OFFCURVE",
"122 255 CURVE SMOOTH",
"122 318 OFFCURVE",
"167 377 OFFCURVE",
"238 377 CURVE SMOOTH"
);
},
{
closed = 1;
nodes = (
"44 -145 OFFCURVE",
"13 -117 OFFCURVE",
"13 -87 CURVE SMOOTH",
"13 -45 OFFCURVE",
"70 -14 OFFCURVE",
"112 5 CURVE",
"130 -5 OFFCURVE",
"152 -14 OFFCURVE",
"173 -23 CURVE SMOOTH",
"233 -48 OFFCURVE",
"267 -68 OFFCURVE",
"267 -92 CURVE SMOOTH",
"267 -116 OFFCURVE",
"235 -145 OFFCURVE",
"138 -145 CURVE SMOOTH"
);
}
);
width = 450;
}
);
leftKerningGroup = "g";
rightKerningGroup = "g";
unicode = 0123;
},
{
glyphname = "hcircumflex";
layers = (
{
layerId = "5CB93347-76DB-47FB-8F37-014E89A2A0A0";
name = "Regular";
paths = (
{
closed = 1;
nodes = (
"20 0 LINE",
"106 0 LINE",
"157 288 LINE",
"199 326 OFFCURVE",
"257 370 OFFCURVE",
"309 370 CURVE SMOOTH",
"356 370 OFFCURVE",
"366 336 OFFCURVE",
"358 289 CURVE SMOOTH",
"326 107 LINE SMOOTH",
"315 45 OFFCURVE",
"332 -10 OFFCURVE",
"414 -10 CURVE SMOOTH",
"440 -10 OFFCURVE",
"464 -5 OFFCURVE",
"483 1 CURVE",
"495 67 LINE",
"481 62 OFFCURVE",
"461 56 OFFCURVE",
"443 56 CURVE SMOOTH",
"415 56 OFFCURVE",
"404 70 OFFCURVE",
"410 102 CURVE SMOOTH",
"443 294 LINE SMOOTH",
"459 385 OFFCURVE",
"412 439 OFFCURVE",
"337 439 CURVE SMOOTH",
"274 439 OFFCURVE",
"214 400 OFFCURVE",
"170 364 CURVE",
"231 707 LINE",
"69 707 LINE",
"57 639 LINE",
"133 639 LINE"
);
},
{
closed = 1;
nodes = (
"25 761 LINE",
"182 838 LINE",
"307 761 LINE",
"329 787 LINE",
"223 920 LINE",
"168 920 LINE",
"7 787 LINE"
);
}
);
width = 525;
}
);
leftKerningGroup = "h";
rightKerningGroup = "h";
unicode = 0125;
},
{
glyphname = "hbar";
layers = (
{
layerId = "5CB93347-76DB-47FB-8F37-014E89A2A0A0";
name = "Regular";
paths = (
{
closed = 1;
nodes = (
"40 509 LINE",
"109 509 LINE",
"20 0 LINE",
"105 0 LINE",
"156 288 LINE",
"199 326 OFFCURVE",
"257 370 OFFCURVE",
"309 370 CURVE SMOOTH",
"355 370 OFFCURVE",
"366 336 OFFCURVE",
"357 289 CURVE SMOOTH",
"325 107 LINE SMOOTH",
"314 45 OFFCURVE",
"332 -10 OFFCURVE",
"413 -10 CURVE SMOOTH",
"439 -10 OFFCURVE",
"464 -5 OFFCURVE",
"483 1 CURVE",
"494 67 LINE",
"480 62 OFFCURVE",
"460 56 OFFCURVE",
"443 56 CURVE SMOOTH",
"414 56 OFFCURVE",
"403 70 OFFCURVE",
"409 102 CURVE SMOOTH",
"443 294 LINE SMOOTH",
"459 385 OFFCURVE",
"412 439 OFFCURVE",
"336 439 CURVE SMOOTH",
"273 439 OFFCURVE",
"214 400 OFFCURVE",
"170 364 CURVE",
"195 509 LINE",
"336 509 LINE",
"346 567 LINE",
"205 567 LINE",
"230 707 LINE",
"69 707 LINE",
"56 639 LINE",
"132 639 LINE",
"120 567 LINE",
"50 567 LINE"
);
}
);
width = 525;
}
);
leftKerningGroup = "h";
rightKerningGroup = "h";
unicode = 0127;
},
{
glyphname = "dotlessi";
layers = (
{
layerId = "5CB93347-76DB-47FB-8F37-014E89A2A0A0";
name = "Regular";
paths = (
{
closed = 1;
nodes = (
"172 -10 OFFCURVE",
"197 -5 OFFCURVE",
"216 1 CURVE",
"227 67 LINE",
"213 62 OFFCURVE",
"194 56 OFFCURVE",
"175 56 CURVE SMOOTH",
"148 56 OFFCURVE",
"137 70 OFFCURVE",
"142 102 CURVE SMOOTH",
"200 428 LINE",
"39 428 LINE",
"27 359 LINE",
"102 359 LINE",
"58 107 LINE SMOOTH",
"47 44 OFFCURVE",
"65 -10 OFFCURVE",
"147 -10 CURVE SMOOTH"
);
}
);
width = 262;
}
);
leftKerningGroup = "i";
rightKerningGroup = "i";
unicode = 0131;
},
{
glyphname = "igrave";
layers = (
{
layerId = "5CB93347-76DB-47FB-8F37-014E89A2A0A0";
name = "Regular";
paths = (
{
closed = 1;
nodes = (
"172 -10 OFFCURVE",
"197 -5 OFFCURVE",
"216 1 CURVE",
"227 67 LINE",
"213 62 OFFCURVE",
"194 56 OFFCURVE",
"175 56 CURVE SMOOTH",
"148 56 OFFCURVE",
"137 70 OFFCURVE",
"142 102 CURVE SMOOTH",
"200 428 LINE",
"39 428 LINE",
"27 359 LINE",
"102 359 LINE",
"58 107 LINE SMOOTH",
"47 44 OFFCURVE",
"65 -10 OFFCURVE",
"147 -10 CURVE SMOOTH"
);
},
{
closed = 1;
nodes = (
"202 505 LINE",
"234 539 LINE",
"95 696 LINE",
"38 635 LINE"
);
}
);
width = 262;
}
);
leftKerningGroup = "i";
rightKerningGroup = "i";
unicode = 00EC;
},
{
glyphname = "iacute";
layers = (
{
layerId = "5CB93347-76DB-47FB-8F37-014E89A2A0A0";
name = "Regular";
paths = (
{
closed = 1;
nodes = (
"172 -10 OFFCURVE",
"197 -5 OFFCURVE",
"216 1 CURVE",
"227 67 LINE",
"213 62 OFFCURVE",
"194 56 OFFCURVE",
"175 56 CURVE SMOOTH",
"148 56 OFFCURVE",
"137 70 OFFCURVE",
"142 102 CURVE SMOOTH",
"200 428 LINE",
"39 428 LINE",
"27 359 LINE",
"102 359 LINE",
"58 107 LINE SMOOTH",
"47 44 OFFCURVE",
"65 -10 OFFCURVE",
"147 -10 CURVE SMOOTH"
);
},
{
closed = 1;
nodes = (
"104 504 LINE",
"297 632 LINE",
"247 695 LINE",
"77 539 LINE"
);
}
);
width = 262;
}
);
leftKerningGroup = "i";
rightKerningGroup = "i";
unicode = 00ED;
},
{
glyphname = "icircumflex";
layers = (
{
layerId = "5CB93347-76DB-47FB-8F37-014E89A2A0A0";
name = "Regular";
paths = (
{
closed = 1;
nodes = (
"172 -10 OFFCURVE",
"197 -5 OFFCURVE",
"216 1 CURVE",
"227 67 LINE",
"213 62 OFFCURVE",
"194 56 OFFCURVE",
"175 56 CURVE SMOOTH",
"148 56 OFFCURVE",
"137 70 OFFCURVE",
"142 102 CURVE SMOOTH",
"200 428 LINE",
"39 428 LINE",
"27 359 LINE",
"102 359 LINE",
"58 107 LINE SMOOTH",
"47 44 OFFCURVE",
"65 -10 OFFCURVE",
"147 -10 CURVE SMOOTH"
);
},
{
closed = 1;
nodes = (
"1 501 LINE",
"158 579 LINE",
"283 501 LINE",
"305 527 LINE",
"199 661 LINE",
"144 661 LINE",
"-17 528 LINE"
);
}
);
width = 262;
}
);
leftKerningGroup = "i";
rightKerningGroup = "i";
unicode = 00EE;
},
{
glyphname = "idieresis";
layers = (
{
layerId = "5CB93347-76DB-47FB-8F37-014E89A2A0A0";
name = "Regular";
paths = (
{
closed = 1;
nodes = (
"172 -10 OFFCURVE",
"197 -5 OFFCURVE",
"216 1 CURVE",
"227 67 LINE",
"213 62 OFFCURVE",
"194 56 OFFCURVE",
"175 56 CURVE SMOOTH",
"148 56 OFFCURVE",
"137 70 OFFCURVE",
"142 102 CURVE SMOOTH",
"200 428 LINE",
"39 428 LINE",
"27 359 LINE",
"102 359 LINE",
"58 107 LINE SMOOTH",
"47 44 OFFCURVE",
"65 -10 OFFCURVE",
"147 -10 CURVE SMOOTH"
);
},
{
closed = 1;
nodes = (
"94 509 OFFCURVE",
"117 532 OFFCURVE",
"117 562 CURVE SMOOTH",
"117 591 OFFCURVE",
"94 615 OFFCURVE",
"64 615 CURVE SMOOTH",
"35 615 OFFCURVE",
"11 591 OFFCURVE",
"11 562 CURVE SMOOTH",
"11 532 OFFCURVE",
"35 509 OFFCURVE",
"64 509 CURVE SMOOTH"
);
},
{
closed = 1;
nodes = (
"276 509 OFFCURVE",
"299 532 OFFCURVE",
"299 562 CURVE SMOOTH",
"299 591 OFFCURVE",
"276 615 OFFCURVE",
"246 615 CURVE SMOOTH",
"217 615 OFFCURVE",
"194 591 OFFCURVE",
"194 562 CURVE SMOOTH",
"194 532 OFFCURVE",
"217 509 OFFCURVE",
"246 509 CURVE SMOOTH"
);
}
);
width = 262;
}
);
leftKerningGroup = "i";
rightKerningGroup = "i";
unicode = 00EF;
},
{
glyphname = "itilde";
layers = (
{
layerId = "5CB93347-76DB-47FB-8F37-014E89A2A0A0";
name = "Regular";
paths = (
{
closed = 1;
nodes = (
"172 -10 OFFCURVE",
"197 -5 OFFCURVE",
"216 1 CURVE",
"227 67 LINE",
"213 62 OFFCURVE",
"194 56 OFFCURVE",
"175 56 CURVE SMOOTH",
"148 56 OFFCURVE",
"137 70 OFFCURVE",
"142 102 CURVE SMOOTH",
"200 428 LINE",
"39 428 LINE",
"27 359 LINE",
"102 359 LINE",
"58 107 LINE SMOOTH",
"47 44 OFFCURVE",
"65 -10 OFFCURVE",
"147 -10 CURVE SMOOTH"
);
},
{
closed = 1;
nodes = (
"10 508 LINE",
"33 541 OFFCURVE",
"54 561 OFFCURVE",
"80 561 CURVE SMOOTH",
"124 561 OFFCURVE",
"162 509 OFFCURVE",
"211 509 CURVE SMOOTH",
"269 509 OFFCURVE",
"313 579 OFFCURVE",
"332 616 CURVE",
"301 635 LINE",
"282 605 OFFCURVE",
"262 582 OFFCURVE",
"229 582 CURVE SMOOTH",
"182 582 OFFCURVE",
"149 633 OFFCURVE",
"97 633 CURVE SMOOTH",
"37 633 OFFCURVE",
"-4 561 OFFCURVE",
"-21 526 CURVE"
);
}
);
width = 262;
}
);
leftKerningGroup = "i";
rightKerningGroup = "i";
unicode = 0129;
},
{
glyphname = "imacron";
layers = (
{
layerId = "5CB93347-76DB-47FB-8F37-014E89A2A0A0";
name = "Regular";
paths = (
{
closed = 1;
nodes = (
"172 -10 OFFCURVE",
"197 -5 OFFCURVE",
"216 1 CURVE",
"227 67 LINE",
"213 62 OFFCURVE",
"194 56 OFFCURVE",
"175 56 CURVE SMOOTH",
"148 56 OFFCURVE",
"137 70 OFFCURVE",
"142 102 CURVE SMOOTH",
"200 428 LINE",
"39 428 LINE",
"27 359 LINE",
"102 359 LINE",
"58 107 LINE SMOOTH",
"47 44 OFFCURVE",
"65 -10 OFFCURVE",
"147 -10 CURVE SMOOTH"
);
},
{
closed = 1;
nodes = (
"12 522 LINE",
"282 522 LINE",
"294 587 LINE",
"23 587 LINE"
);
}
);
width = 262;
}
);
leftKerningGroup = "i";
rightKerningGroup = "i";
unicode = 012B;
},
{
glyphname = "ibreve";
layers = (
{
layerId = "5CB93347-76DB-47FB-8F37-014E89A2A0A0";
name = "Regular";
paths = (
{
closed = 1;
nodes = (
"173 -10 OFFCURVE",
"198 -5 OFFCURVE",
"217 1 CURVE",
"228 67 LINE",
"214 62 OFFCURVE",
"194 56 OFFCURVE",
"176 56 CURVE SMOOTH",
"148 56 OFFCURVE",
"137 70 OFFCURVE",
"143 102 CURVE SMOOTH",
"201 428 LINE",
"39 428 LINE",
"27 359 LINE",
"103 359 LINE",
"58 107 LINE SMOOTH",
"47 44 OFFCURVE",
"66 -10 OFFCURVE",
"148 -10 CURVE SMOOTH"
);
},
{
closed = 1;
nodes = (
"238 509 OFFCURVE",
"297 565 OFFCURVE",
"316 652 CURVE",
"253 652 LINE",
"237 599 OFFCURVE",
"204 576 OFFCURVE",
"157 576 CURVE SMOOTH",
"106 576 OFFCURVE",
"84 602 OFFCURVE",
"88 652 CURVE",
"24 652 LINE",
"14 573 OFFCURVE",
"55 509 OFFCURVE",
"150 509 CURVE SMOOTH"
);
}
);
width = 262;
}
);
leftKerningGroup = "i";
rightKerningGroup = "i";
unicode = 012D;
},
{
glyphname = "iogonek";
layers = (
{
layerId = "5CB93347-76DB-47FB-8F37-014E89A2A0A0";
name = "Regular";
paths = (
{
closed = 1;
nodes = (
"133 -202 OFFCURVE",
"168 -193 OFFCURVE",
"190 -184 CURVE",
"194 -132 LINE",
"178 -139 OFFCURVE",
"151 -147 OFFCURVE",
"129 -147 CURVE SMOOTH",
"107 -147 OFFCURVE",
"90 -138 OFFCURVE",
"90 -112 CURVE SMOOTH",
"90 -71 OFFCURVE",
"131 -33 OFFCURVE",
"164 -9 CURVE",
"183 -8 OFFCURVE",
"202 -3 OFFCURVE",
"217 1 CURVE",
"228 67 LINE",
"214 62 OFFCURVE",
"194 56 OFFCURVE",
"176 56 CURVE SMOOTH",
"148 56 OFFCURVE",
"137 70 OFFCURVE",
"143 102 CURVE SMOOTH",
"201 428 LINE",
"40 428 LINE",
"27 359 LINE",
"103 359 LINE",
"58 107 LINE SMOOTH",
"49 58 OFFCURVE",
"59 13 OFFCURVE",
"102 -3 CURVE",
"57 -32 OFFCURVE",
"14 -73 OFFCURVE",
"14 -129 CURVE SMOOTH",
"14 -181 OFFCURVE",
"51 -202 OFFCURVE",
"101 -202 CURVE SMOOTH"
);
},
{
closed = 1;
nodes = (
"208 516 OFFCURVE",
"235 543 OFFCURVE",
"235 576 CURVE SMOOTH",
"235 609 OFFCURVE",
"208 636 OFFCURVE",
"175 636 CURVE SMOOTH",
"142 636 OFFCURVE",
"115 609 OFFCURVE",
"115 576 CURVE SMOOTH",
"115 543 OFFCURVE",
"142 516 OFFCURVE",
"175 516 CURVE SMOOTH"
);
}
);
width = 262;
}
);
leftKerningGroup = "i";
rightKerningGroup = "i";
unicode = 012F;
},
{
glyphname = "dotlessj";
layers = (
{
layerId = "5CB93347-76DB-47FB-8F37-014E89A2A0A0";
name = "Regular";
paths = (
{
closed = 1;
nodes = (
"41 -210 OFFCURVE",
"99 -171 OFFCURVE",
"117 -68 CURVE SMOOTH",
"205 428 LINE",
"39 428 LINE",
"26 359 LINE",
"107 359 LINE",
"31 -71 LINE SMOOTH",
"21 -131 OFFCURVE",
"-12 -142 OFFCURVE",
"-43 -142 CURVE SMOOTH",
"-59 -142 OFFCURVE",
"-73 -139 OFFCURVE",
"-87 -134 CURVE",
"-99 -200 LINE",
"-82 -205 OFFCURVE",
"-62 -210 OFFCURVE",
"-36 -210 CURVE SMOOTH"
);
}
);
width = 239;
}
);
leftKerningGroup = "j";
rightKerningGroup = "j";
unicode = 0237;
},
{
glyphname = "jcircumflex";
layers = (
{
layerId = "5CB93347-76DB-47FB-8F37-014E89A2A0A0";
name = "Regular";
paths = (
{
closed = 1;
nodes = (
"41 -210 OFFCURVE",
"99 -171 OFFCURVE",
"117 -68 CURVE SMOOTH",
"205 428 LINE",
"39 428 LINE",
"26 359 LINE",
"107 359 LINE",
"31 -71 LINE SMOOTH",
"21 -131 OFFCURVE",
"-12 -142 OFFCURVE",
"-43 -142 CURVE SMOOTH",
"-59 -142 OFFCURVE",
"-73 -139 OFFCURVE",
"-87 -134 CURVE",
"-99 -200 LINE",
"-82 -205 OFFCURVE",
"-62 -210 OFFCURVE",
"-36 -210 CURVE SMOOTH"
);
},
{
closed = 1;
nodes = (
"3 501 LINE",
"160 579 LINE",
"285 501 LINE",
"307 527 LINE",
"201 661 LINE",
"146 661 LINE",
"-15 528 LINE"
);
}
);
width = 239;
}
);
leftKerningGroup = "j";
rightKerningGroup = "j";
unicode = 0135;
},
{
glyphname = "kcommaaccent";
layers = (
{
layerId = "5CB93347-76DB-47FB-8F37-014E89A2A0A0";
name = "Regular";
paths = (
{
closed = 1;
nodes = (
"184 -67 OFFCURVE",
"165 -73 OFFCURVE",
"146 -85 CURVE",
"145 -92 LINE",
"161 -101 OFFCURVE",
"172 -115 OFFCURVE",
"172 -140 CURVE SMOOTH",
"172 -181 OFFCURVE",
"142 -217 OFFCURVE",
"107 -252 CURVE",
"139 -281 LINE",
"206 -234 OFFCURVE",
"254 -176 OFFCURVE",
"254 -122 CURVE SMOOTH",
"254 -91 OFFCURVE",
"238 -67 OFFCURVE",
"202 -67 CURVE SMOOTH"
);
},
{
closed = 1;
nodes = (
"20 0 LINE",
"106 0 LINE",
"159 302 LINE",
"197 334 OFFCURVE",
"251 371 OFFCURVE",
"302 371 CURVE SMOOTH",
"336 371 OFFCURVE",
"355 354 OFFCURVE",
"355 326 CURVE SMOOTH",
"355 262 OFFCURVE",
"261 225 OFFCURVE",
"191 219 CURVE",
"185 186 LINE",
"254 64 LINE SMOOTH",
"282 15 OFFCURVE",
"316 -11 OFFCURVE",
"365 -11 CURVE SMOOTH",
"392 -11 OFFCURVE",
"413 -3 OFFCURVE",
"432 8 CURVE",
"445 77 LINE",
"428 68 OFFCURVE",
"405 56 OFFCURVE",
"383 56 CURVE SMOOTH",
"353 56 OFFCURVE",
"338 80 OFFCURVE",
"326 99 CURVE SMOOTH",
"277 181 LINE",
"358 200 OFFCURVE",
"439 251 OFFCURVE",
"439 334 CURVE SMOOTH",
"439 400 OFFCURVE",
"390 439 OFFCURVE",
"323 439 CURVE SMOOTH",
"266 439 OFFCURVE",
"215 411 OFFCURVE",
"171 374 CURVE",
"231 707 LINE",
"76 707 LINE",
"63 639 LINE",
"133 639 LINE"
);
}
);
width = 491;
}
);
leftKerningGroup = "h";
rightKerningGroup = "k";
unicode = 0137;
},
{
glyphname = "kgreenlandic";
layers = (
{
layerId = "5CB93347-76DB-47FB-8F37-014E89A2A0A0";
name = "Regular";
paths = (
{
closed = 1;
nodes = (
"42 0 LINE",
"127 0 LINE",
"181 302 LINE",
"219 334 OFFCURVE",
"272 371 OFFCURVE",
"323 371 CURVE SMOOTH",
"358 371 OFFCURVE",
"377 354 OFFCURVE",
"377 326 CURVE SMOOTH",
"377 262 OFFCURVE",
"282 225 OFFCURVE",
"212 219 CURVE",
"206 186 LINE",
"276 64 LINE SMOOTH",
"304 15 OFFCURVE",
"337 -11 OFFCURVE",
"387 -11 CURVE SMOOTH",
"413 -11 OFFCURVE",
"434 -3 OFFCURVE",
"454 8 CURVE",
"466 77 LINE",
"450 68 OFFCURVE",
"426 56 OFFCURVE",
"405 56 CURVE SMOOTH",
"374 56 OFFCURVE",
"359 80 OFFCURVE",
"347 99 CURVE SMOOTH",
"299 181 LINE",
"380 200 OFFCURVE",
"460 251 OFFCURVE",
"460 334 CURVE SMOOTH",
"460 400 OFFCURVE",
"411 439 OFFCURVE",
"344 439 CURVE SMOOTH",
"288 439 OFFCURVE",
"236 411 OFFCURVE",
"193 374 CURVE",
"203 428 LINE",
"48 428 LINE",
"36 359 LINE",
"105 359 LINE"
);
}
);
width = 512;
}
);
rightKerningGroup = "zero";
unicode = 0138;
},
{
glyphname = "lacute";
layers = (
{
layerId = "5CB93347-76DB-47FB-8F37-014E89A2A0A0";
name = "Regular";
paths = (
{
closed = 1;
nodes = (
"149 -10 OFFCURVE",
"174 -5 OFFCURVE",
"193 1 CURVE",
"204 67 LINE",
"190 62 OFFCURVE",
"170 56 OFFCURVE",
"152 56 CURVE SMOOTH",
"124 56 OFFCURVE",
"114 70 OFFCURVE",
"119 102 CURVE SMOOTH",
"226 707 LINE",
"65 707 LINE",
"52 639 LINE",
"128 639 LINE",
"34 107 LINE SMOOTH",
"24 44 OFFCURVE",
"42 -10 OFFCURVE",
"124 -10 CURVE SMOOTH"
);
},
{
closed = 1;
nodes = (
"125 762 LINE",
"318 890 LINE",
"268 953 LINE",
"97 797 LINE"
);
}
);
width = 240;
}
);
leftKerningGroup = "l";
rightKerningGroup = "l";
unicode = 013A;
},
{
glyphname = "lcommaaccent";
layers = (
{
layerId = "5CB93347-76DB-47FB-8F37-014E89A2A0A0";
name = "Regular";
paths = (
{
closed = 1;
nodes = (
"63 -67 OFFCURVE",
"44 -73 OFFCURVE",
"25 -85 CURVE",
"24 -92 LINE",
"40 -101 OFFCURVE",
"51 -115 OFFCURVE",
"51 -140 CURVE SMOOTH",
"51 -181 OFFCURVE",
"21 -217 OFFCURVE",
"-14 -252 CURVE",
"18 -281 LINE",
"85 -234 OFFCURVE",
"133 -176 OFFCURVE",
"133 -122 CURVE SMOOTH",
"133 -91 OFFCURVE",
"117 -67 OFFCURVE",
"81 -67 CURVE SMOOTH"
);
},
{
closed = 1;
nodes = (
"149 -10 OFFCURVE",
"174 -5 OFFCURVE",
"193 1 CURVE",
"204 67 LINE",
"190 62 OFFCURVE",
"170 56 OFFCURVE",
"152 56 CURVE SMOOTH",
"124 56 OFFCURVE",
"114 70 OFFCURVE",
"119 102 CURVE SMOOTH",
"226 707 LINE",
"65 707 LINE",
"52 639 LINE",
"128 639 LINE",
"34 107 LINE SMOOTH",
"24 44 OFFCURVE",
"42 -10 OFFCURVE",
"124 -10 CURVE SMOOTH"
);
}
);
width = 240;
}
);
leftKerningGroup = "l";
rightKerningGroup = "l";
unicode = 013C;
},
{
glyphname = "lcaron";
layers = (
{
layerId = "5CB93347-76DB-47FB-8F37-014E89A2A0A0";
name = "Regular";
paths = (
{
closed = 1;
nodes = (
"317 715 OFFCURVE",
"298 708 OFFCURVE",
"279 696 CURVE",
"278 689 LINE",
"294 681 OFFCURVE",
"305 666 OFFCURVE",
"305 641 CURVE SMOOTH",
"305 600 OFFCURVE",
"275 565 OFFCURVE",
"240 529 CURVE",
"272 500 LINE",
"338 547 OFFCURVE",
"387 605 OFFCURVE",
"387 659 CURVE SMOOTH",
"387 690 OFFCURVE",
"371 715 OFFCURVE",
"335 715 CURVE SMOOTH"
);
},
{
closed = 1;
nodes = (
"149 -10 OFFCURVE",
"174 -5 OFFCURVE",
"193 1 CURVE",
"204 67 LINE",
"190 62 OFFCURVE",
"170 56 OFFCURVE",
"152 56 CURVE SMOOTH",
"124 56 OFFCURVE",
"114 70 OFFCURVE",
"119 102 CURVE SMOOTH",
"226 707 LINE",
"65 707 LINE",
"52 639 LINE",
"128 639 LINE",
"34 107 LINE SMOOTH",
"24 44 OFFCURVE",
"42 -10 OFFCURVE",
"124 -10 CURVE SMOOTH"
);
}
);
width = 240;
}
);
leftKerningGroup = "l";
rightKerningGroup = "l";
unicode = 013E;
},
{
glyphname = "ldot";
layers = (
{
layerId = "5CB93347-76DB-47FB-8F37-014E89A2A0A0";
name = "Regular";
paths = (
{
closed = 1;
nodes = (
"149 -10 OFFCURVE",
"174 -5 OFFCURVE",
"193 1 CURVE",
"204 67 LINE",
"190 62 OFFCURVE",
"170 56 OFFCURVE",
"152 56 CURVE SMOOTH",
"124 56 OFFCURVE",
"114 70 OFFCURVE",
"119 102 CURVE SMOOTH",
"226 707 LINE",
"65 707 LINE",
"52 639 LINE",
"128 639 LINE",
"34 107 LINE SMOOTH",
"24 44 OFFCURVE",
"42 -10 OFFCURVE",
"124 -10 CURVE SMOOTH"
);
},
{
closed = 1;
nodes = (
"316 278 OFFCURVE",
"341 304 OFFCURVE",
"341 335 CURVE SMOOTH",
"341 367 OFFCURVE",
"315 393 OFFCURVE",
"284 393 CURVE SMOOTH",
"252 393 OFFCURVE",
"227 366 OFFCURVE",
"227 335 CURVE SMOOTH",
"227 304 OFFCURVE",
"253 278 OFFCURVE",
"284 278 CURVE SMOOTH"
);
}
);
width = 332;
}
);
leftKerningGroup = "l";
rightKerningGroup = "zero";
unicode = 0140;
},
{
glyphname = "lslash";
layers = (
{
layerId = "5CB93347-76DB-47FB-8F37-014E89A2A0A0";
name = "Regular";
paths = (
{
closed = 1;
nodes = (
"10 246 LINE",
"89 285 LINE",
"57 107 LINE SMOOTH",
"46 44 OFFCURVE",
"65 -10 OFFCURVE",
"147 -10 CURVE SMOOTH",
"172 -10 OFFCURVE",
"197 -5 OFFCURVE",
"216 1 CURVE",
"227 67 LINE",
"213 62 OFFCURVE",
"193 56 OFFCURVE",
"175 56 CURVE SMOOTH",
"147 56 OFFCURVE",
"136 70 OFFCURVE",
"142 102 CURVE SMOOTH",
"183 331 LINE",
"314 397 LINE",
"296 445 LINE",
"194 394 LINE",
"249 707 LINE",
"88 707 LINE",
"75 639 LINE",
"151 639 LINE",
"100 348 LINE",
"-8 295 LINE"
);
}
);
width = 283;
}
);
leftKerningGroup = "l";
rightKerningGroup = "l";
unicode = 0142;
},
{
glyphname = "ntilde";
layers = (
{
layerId = "5CB93347-76DB-47FB-8F37-014E89A2A0A0";
name = "Regular";
paths = (
{
closed = 1;
nodes = (
"43 0 LINE",
"129 0 LINE",
"180 288 LINE",
"222 326 OFFCURVE",
"279 370 OFFCURVE",
"331 370 CURVE SMOOTH",
"378 370 OFFCURVE",
"389 336 OFFCURVE",
"380 289 CURVE SMOOTH",
"348 107 LINE SMOOTH",
"337 45 OFFCURVE",
"355 -10 OFFCURVE",
"436 -10 CURVE SMOOTH",
"462 -10 OFFCURVE",
"487 -5 OFFCURVE",
"506 1 CURVE",
"517 67 LINE",
"503 62 OFFCURVE",
"483 56 OFFCURVE",
"465 56 CURVE SMOOTH",
"437 56 OFFCURVE",
"426 70 OFFCURVE",
"432 102 CURVE SMOOTH",
"466 294 LINE SMOOTH",
"482 385 OFFCURVE",
"434 439 OFFCURVE",
"359 439 CURVE SMOOTH",
"295 439 OFFCURVE",
"234 399 OFFCURVE",
"190 362 CURVE",
"202 428 LINE",
"45 428 LINE",
"33 359 LINE",
"107 359 LINE"
);
},
{
closed = 1;
nodes = (
"168 508 LINE",
"191 541 OFFCURVE",
"212 561 OFFCURVE",
"238 561 CURVE SMOOTH",
"283 561 OFFCURVE",
"320 509 OFFCURVE",
"370 509 CURVE SMOOTH",
"427 509 OFFCURVE",
"471 579 OFFCURVE",
"490 616 CURVE",
"459 635 LINE",
"440 605 OFFCURVE",
"420 582 OFFCURVE",
"388 582 CURVE SMOOTH",
"340 582 OFFCURVE",
"307 633 OFFCURVE",
"256 633 CURVE SMOOTH",
"195 633 OFFCURVE",
"155 561 OFFCURVE",
"137 526 CURVE"
);
}
);
width = 548;
}
);
leftKerningGroup = "m";
rightKerningGroup = "h";
unicode = 00F1;
},
{
glyphname = "nacute";
layers = (
{
layerId = "5CB93347-76DB-47FB-8F37-014E89A2A0A0";
name = "Regular";
paths = (
{
closed = 1;
nodes = (
"43 0 LINE",
"129 0 LINE",
"180 288 LINE",
"222 326 OFFCURVE",
"279 370 OFFCURVE",
"331 370 CURVE SMOOTH",
"378 370 OFFCURVE",
"389 336 OFFCURVE",
"380 289 CURVE SMOOTH",
"348 107 LINE SMOOTH",
"337 45 OFFCURVE",
"355 -10 OFFCURVE",
"436 -10 CURVE SMOOTH",
"462 -10 OFFCURVE",
"487 -5 OFFCURVE",
"506 1 CURVE",
"517 67 LINE",
"503 62 OFFCURVE",
"483 56 OFFCURVE",
"465 56 CURVE SMOOTH",
"437 56 OFFCURVE",
"426 70 OFFCURVE",
"432 102 CURVE SMOOTH",
"466 294 LINE SMOOTH",
"482 385 OFFCURVE",
"434 439 OFFCURVE",
"359 439 CURVE SMOOTH",
"295 439 OFFCURVE",
"234 399 OFFCURVE",
"190 362 CURVE",
"202 428 LINE",
"45 428 LINE",
"33 359 LINE",
"107 359 LINE"
);
},
{
closed = 1;
nodes = (
"261 504 LINE",
"454 632 LINE",
"404 695 LINE",
"234 539 LINE"
);
}
);
width = 548;
}
);
leftKerningGroup = "m";
rightKerningGroup = "h";
unicode = 0144;
},
{
glyphname = "ncommaaccent";
layers = (
{
layerId = "5CB93347-76DB-47FB-8F37-014E89A2A0A0";
name = "Regular";
paths = (
{
closed = 1;
nodes = (
"228 -67 OFFCURVE",
"209 -73 OFFCURVE",
"190 -85 CURVE",
"189 -92 LINE",
"205 -101 OFFCURVE",
"216 -115 OFFCURVE",
"216 -140 CURVE SMOOTH",
"216 -181 OFFCURVE",
"186 -217 OFFCURVE",
"151 -252 CURVE",
"183 -281 LINE",
"250 -234 OFFCURVE",
"298 -176 OFFCURVE",
"298 -122 CURVE SMOOTH",
"298 -91 OFFCURVE",
"282 -67 OFFCURVE",
"246 -67 CURVE SMOOTH"
);
},
{
closed = 1;
nodes = (
"43 0 LINE",
"129 0 LINE",
"180 288 LINE",
"222 326 OFFCURVE",
"279 370 OFFCURVE",
"331 370 CURVE SMOOTH",
"378 370 OFFCURVE",
"389 336 OFFCURVE",
"380 289 CURVE SMOOTH",
"348 107 LINE SMOOTH",
"337 45 OFFCURVE",
"355 -10 OFFCURVE",
"436 -10 CURVE SMOOTH",
"462 -10 OFFCURVE",
"487 -5 OFFCURVE",
"506 1 CURVE",
"517 67 LINE",
"503 62 OFFCURVE",
"483 56 OFFCURVE",
"465 56 CURVE SMOOTH",
"437 56 OFFCURVE",
"426 70 OFFCURVE",
"432 102 CURVE SMOOTH",
"466 294 LINE SMOOTH",
"482 385 OFFCURVE",
"434 439 OFFCURVE",
"359 439 CURVE SMOOTH",
"295 439 OFFCURVE",
"234 399 OFFCURVE",
"190 362 CURVE",
"202 428 LINE",
"45 428 LINE",
"33 359 LINE",
"107 359 LINE"
);
}
);
width = 548;
}
);
leftKerningGroup = "m";
rightKerningGroup = "h";
unicode = 0146;
},
{
glyphname = "ncaron";
layers = (
{
layerId = "5CB93347-76DB-47FB-8F37-014E89A2A0A0";
name = "Regular";
paths = (
{
closed = 1;
nodes = (
"43 0 LINE",
"129 0 LINE",
"180 288 LINE",
"222 326 OFFCURVE",
"279 370 OFFCURVE",
"331 370 CURVE SMOOTH",
"378 370 OFFCURVE",
"389 336 OFFCURVE",
"380 289 CURVE SMOOTH",
"348 107 LINE SMOOTH",
"337 45 OFFCURVE",
"355 -10 OFFCURVE",
"436 -10 CURVE SMOOTH",
"462 -10 OFFCURVE",
"487 -5 OFFCURVE",
"506 1 CURVE",
"517 67 LINE",
"503 62 OFFCURVE",
"483 56 OFFCURVE",
"465 56 CURVE SMOOTH",
"437 56 OFFCURVE",
"426 70 OFFCURVE",
"432 102 CURVE SMOOTH",
"466 294 LINE SMOOTH",
"482 385 OFFCURVE",
"434 439 OFFCURVE",
"359 439 CURVE SMOOTH",
"295 439 OFFCURVE",
"234 399 OFFCURVE",
"190 362 CURVE",
"202 428 LINE",
"45 428 LINE",
"33 359 LINE",
"107 359 LINE"
);
},
{
closed = 1;
nodes = (
"270 507 LINE",
"325 507 LINE",
"486 641 LINE",
"467 667 LINE",
"311 589 LINE",
"185 667 LINE",
"162 641 LINE"
);
}
);
width = 548;
}
);
leftKerningGroup = "m";
rightKerningGroup = "h";
unicode = 0148;
},
{
glyphname = "napostrophe";
layers = (
{
layerId = "5CB93347-76DB-47FB-8F37-014E89A2A0A0";
name = "Regular";
paths = (
{
closed = 1;
nodes = (
"148 694 OFFCURVE",
"129 687 OFFCURVE",
"111 675 CURVE",
"110 668 LINE",
"126 660 OFFCURVE",
"137 645 OFFCURVE",
"137 620 CURVE SMOOTH",
"137 579 OFFCURVE",
"107 544 OFFCURVE",
"71 508 CURVE",
"104 479 LINE",
"170 526 OFFCURVE",
"219 584 OFFCURVE",
"219 638 CURVE SMOOTH",
"219 669 OFFCURVE",
"202 694 OFFCURVE",
"167 694 CURVE SMOOTH"
);
},
{
closed = 1;
nodes = (
"43 0 LINE",
"129 0 LINE",
"180 288 LINE",
"222 326 OFFCURVE",
"279 370 OFFCURVE",
"331 370 CURVE SMOOTH",
"378 370 OFFCURVE",
"389 336 OFFCURVE",
"380 289 CURVE SMOOTH",
"348 107 LINE SMOOTH",
"337 45 OFFCURVE",
"355 -10 OFFCURVE",
"436 -10 CURVE SMOOTH",
"462 -10 OFFCURVE",
"487 -5 OFFCURVE",
"506 1 CURVE",
"517 67 LINE",
"503 62 OFFCURVE",
"483 56 OFFCURVE",
"465 56 CURVE SMOOTH",
"437 56 OFFCURVE",
"426 70 OFFCURVE",
"432 102 CURVE SMOOTH",
"466 294 LINE SMOOTH",
"482 385 OFFCURVE",
"434 439 OFFCURVE",
"359 439 CURVE SMOOTH",
"295 439 OFFCURVE",
"234 399 OFFCURVE",
"190 362 CURVE",
"202 428 LINE",
"45 428 LINE",
"33 359 LINE",
"107 359 LINE"
);
}
);
width = 548;
}
);
rightKerningGroup = "zero";
unicode = 0149;
},
{
glyphname = "eng";
layers = (
{
layerId = "5CB93347-76DB-47FB-8F37-014E89A2A0A0";
name = "Regular";
paths = (
{
closed = 1;
nodes = (
"43 0 LINE",
"129 0 LINE",
"180 288 LINE",
"222 326 OFFCURVE",
"279 370 OFFCURVE",
"331 370 CURVE SMOOTH",
"378 370 OFFCURVE",
"389 336 OFFCURVE",
"380 289 CURVE SMOOTH",
"316 -71 LINE SMOOTH",
"305 -131 OFFCURVE",
"273 -142 OFFCURVE",
"241 -142 CURVE SMOOTH",
"225 -142 OFFCURVE",
"211 -139 OFFCURVE",
"198 -134 CURVE",
"186 -200 LINE",
"203 -205 OFFCURVE",
"223 -210 OFFCURVE",
"248 -210 CURVE SMOOTH",
"325 -210 OFFCURVE",
"384 -171 OFFCURVE",
"402 -68 CURVE SMOOTH",
"466 294 LINE SMOOTH",
"482 385 OFFCURVE",
"434 439 OFFCURVE",
"359 439 CURVE SMOOTH",
"295 439 OFFCURVE",
"234 399 OFFCURVE",
"190 362 CURVE",
"202 428 LINE",
"45 428 LINE",
"33 359 LINE",
"107 359 LINE"
);
}
);
width = 515;
}
);
leftKerningGroup = "m";
rightKerningGroup = "eng";
unicode = 014B;
},
{
glyphname = "ograve";
layers = (
{
layerId = "5CB93347-76DB-47FB-8F37-014E89A2A0A0";
name = "Regular";
paths = (
{
closed = 1;
nodes = (
"367 -11 OFFCURVE",
"460 107 OFFCURVE",
"460 246 CURVE SMOOTH",
"460 371 OFFCURVE",
"384 439 OFFCURVE",
"269 439 CURVE SMOOTH",
"116 439 OFFCURVE",
"24 320 OFFCURVE",
"24 182 CURVE SMOOTH",
"24 57 OFFCURVE",
"100 -11 OFFCURVE",
"215 -11 CURVE SMOOTH"
);
},
{
closed = 1;
nodes = (
"147 55 OFFCURVE",
"113 106 OFFCURVE",
"113 182 CURVE SMOOTH",
"113 281 OFFCURVE",
"174 372 OFFCURVE",
"267 372 CURVE SMOOTH",
"337 372 OFFCURVE",
"371 321 OFFCURVE",
"371 246 CURVE SMOOTH",
"371 147 OFFCURVE",
"310 55 OFFCURVE",
"217 55 CURVE SMOOTH"
);
},
{
closed = 1;
nodes = (
"333 505 LINE",
"365 539 LINE",
"226 696 LINE",
"170 635 LINE"
);
}
);
width = 499;
}
);
leftKerningGroup = "c";
rightKerningGroup = "o";
unicode = 00F2;
},
{
glyphname = "oacute";
layers = (
{
layerId = "5CB93347-76DB-47FB-8F37-014E89A2A0A0";
name = "Regular";
paths = (
{
closed = 1;
nodes = (
"367 -11 OFFCURVE",
"460 107 OFFCURVE",
"460 246 CURVE SMOOTH",
"460 371 OFFCURVE",
"384 439 OFFCURVE",
"269 439 CURVE SMOOTH",
"116 439 OFFCURVE",
"24 320 OFFCURVE",
"24 182 CURVE SMOOTH",
"24 57 OFFCURVE",
"100 -11 OFFCURVE",
"215 -11 CURVE SMOOTH"
);
},
{
closed = 1;
nodes = (
"147 55 OFFCURVE",
"113 106 OFFCURVE",
"113 182 CURVE SMOOTH",
"113 281 OFFCURVE",
"174 372 OFFCURVE",
"267 372 CURVE SMOOTH",
"337 372 OFFCURVE",
"371 321 OFFCURVE",
"371 246 CURVE SMOOTH",
"371 147 OFFCURVE",
"310 55 OFFCURVE",
"217 55 CURVE SMOOTH"
);
},
{
closed = 1;
nodes = (
"258 504 LINE",
"451 632 LINE",
"401 695 LINE",
"231 539 LINE"
);
}
);
width = 499;
}
);
leftKerningGroup = "c";
rightKerningGroup = "o";
unicode = 00F3;
},
{
glyphname = "ocircumflex";
layers = (
{
layerId = "5CB93347-76DB-47FB-8F37-014E89A2A0A0";
name = "Regular";
paths = (
{
closed = 1;
nodes = (
"367 -11 OFFCURVE",
"460 107 OFFCURVE",
"460 246 CURVE SMOOTH",
"460 371 OFFCURVE",
"384 439 OFFCURVE",
"269 439 CURVE SMOOTH",
"116 439 OFFCURVE",
"24 320 OFFCURVE",
"24 182 CURVE SMOOTH",
"24 57 OFFCURVE",
"100 -11 OFFCURVE",
"215 -11 CURVE SMOOTH"
);
},
{
closed = 1;
nodes = (
"147 55 OFFCURVE",
"113 106 OFFCURVE",
"113 182 CURVE SMOOTH",
"113 281 OFFCURVE",
"174 372 OFFCURVE",
"267 372 CURVE SMOOTH",
"337 372 OFFCURVE",
"371 321 OFFCURVE",
"371 246 CURVE SMOOTH",
"371 147 OFFCURVE",
"310 55 OFFCURVE",
"217 55 CURVE SMOOTH"
);
},
{
closed = 1;
nodes = (
"147 501 LINE",
"304 579 LINE",
"429 501 LINE",
"451 527 LINE",
"345 661 LINE",
"290 661 LINE",
"129 528 LINE"
);
}
);
width = 499;
}
);
leftKerningGroup = "c";
rightKerningGroup = "o";
unicode = 00F4;
},
{
glyphname = "otilde";
layers = (
{
layerId = "5CB93347-76DB-47FB-8F37-014E89A2A0A0";
name = "Regular";
paths = (
{
closed = 1;
nodes = (
"367 -11 OFFCURVE",
"460 107 OFFCURVE",
"460 246 CURVE SMOOTH",
"460 371 OFFCURVE",
"384 439 OFFCURVE",
"269 439 CURVE SMOOTH",
"116 439 OFFCURVE",
"24 320 OFFCURVE",
"24 182 CURVE SMOOTH",
"24 57 OFFCURVE",
"100 -11 OFFCURVE",
"215 -11 CURVE SMOOTH"
);
},
{
closed = 1;
nodes = (
"147 55 OFFCURVE",
"113 106 OFFCURVE",
"113 182 CURVE SMOOTH",
"113 281 OFFCURVE",
"174 372 OFFCURVE",
"267 372 CURVE SMOOTH",
"337 372 OFFCURVE",
"371 321 OFFCURVE",
"371 246 CURVE SMOOTH",
"371 147 OFFCURVE",
"310 55 OFFCURVE",
"217 55 CURVE SMOOTH"
);
},
{
closed = 1;
nodes = (
"154 508 LINE",
"176 541 OFFCURVE",
"198 561 OFFCURVE",
"224 561 CURVE SMOOTH",
"268 561 OFFCURVE",
"305 509 OFFCURVE",
"355 509 CURVE SMOOTH",
"413 509 OFFCURVE",
"456 579 OFFCURVE",
"476 616 CURVE",
"445 635 LINE",
"426 605 OFFCURVE",
"406 582 OFFCURVE",
"373 582 CURVE SMOOTH",
"326 582 OFFCURVE",
"293 633 OFFCURVE",
"241 633 CURVE SMOOTH",
"181 633 OFFCURVE",
"140 561 OFFCURVE",
"123 526 CURVE"
);
}
);
width = 499;
}
);
leftKerningGroup = "c";
rightKerningGroup = "o";
unicode = 00F5;
},
{
glyphname = "odieresis";
layers = (
{
layerId = "5CB93347-76DB-47FB-8F37-014E89A2A0A0";
name = "Regular";
paths = (
{
closed = 1;
nodes = (
"367 -11 OFFCURVE",
"460 107 OFFCURVE",
"460 246 CURVE SMOOTH",
"460 371 OFFCURVE",
"384 439 OFFCURVE",
"269 439 CURVE SMOOTH",
"116 439 OFFCURVE",
"24 320 OFFCURVE",
"24 182 CURVE SMOOTH",
"24 57 OFFCURVE",
"100 -11 OFFCURVE",
"215 -11 CURVE SMOOTH"
);
},
{
closed = 1;
nodes = (
"147 55 OFFCURVE",
"113 106 OFFCURVE",
"113 182 CURVE SMOOTH",
"113 281 OFFCURVE",
"174 372 OFFCURVE",
"267 372 CURVE SMOOTH",
"337 372 OFFCURVE",
"371 321 OFFCURVE",
"371 246 CURVE SMOOTH",
"371 147 OFFCURVE",
"310 55 OFFCURVE",
"217 55 CURVE SMOOTH"
);
},
{
closed = 1;
nodes = (
"240 509 OFFCURVE",
"264 532 OFFCURVE",
"264 562 CURVE SMOOTH",
"264 591 OFFCURVE",
"240 615 OFFCURVE",
"211 615 CURVE SMOOTH",
"182 615 OFFCURVE",
"158 591 OFFCURVE",
"158 562 CURVE SMOOTH",
"158 532 OFFCURVE",
"182 509 OFFCURVE",
"211 509 CURVE SMOOTH"
);
},
{
closed = 1;
nodes = (
"423 509 OFFCURVE",
"446 532 OFFCURVE",
"446 562 CURVE SMOOTH",
"446 591 OFFCURVE",
"423 615 OFFCURVE",
"393 615 CURVE SMOOTH",
"364 615 OFFCURVE",
"340 591 OFFCURVE",
"340 562 CURVE SMOOTH",
"340 532 OFFCURVE",
"364 509 OFFCURVE",
"393 509 CURVE SMOOTH"
);
}
);
width = 499;
}
);
leftKerningGroup = "c";
rightKerningGroup = "o";
unicode = 00F6;
},
{
glyphname = "omacron";
layers = (
{
layerId = "5CB93347-76DB-47FB-8F37-014E89A2A0A0";
name = "Regular";
paths = (
{
closed = 1;
nodes = (
"367 -11 OFFCURVE",
"460 107 OFFCURVE",
"460 246 CURVE SMOOTH",
"460 371 OFFCURVE",
"384 439 OFFCURVE",
"269 439 CURVE SMOOTH",
"116 439 OFFCURVE",
"24 320 OFFCURVE",
"24 182 CURVE SMOOTH",
"24 57 OFFCURVE",
"100 -11 OFFCURVE",
"215 -11 CURVE SMOOTH"
);
},
{
closed = 1;
nodes = (
"147 55 OFFCURVE",
"113 106 OFFCURVE",
"113 182 CURVE SMOOTH",
"113 281 OFFCURVE",
"174 372 OFFCURVE",
"267 372 CURVE SMOOTH",
"337 372 OFFCURVE",
"371 321 OFFCURVE",
"371 246 CURVE SMOOTH",
"371 147 OFFCURVE",
"310 55 OFFCURVE",
"217 55 CURVE SMOOTH"
);
},
{
closed = 1;
nodes = (
"161 522 LINE",
"432 522 LINE",
"443 587 LINE",
"173 587 LINE"
);
}
);
width = 499;
}
);
leftKerningGroup = "c";
rightKerningGroup = "o";
unicode = 014D;
},
{
glyphname = "obreve";
layers = (
{
layerId = "5CB93347-76DB-47FB-8F37-014E89A2A0A0";
name = "Regular";
paths = (
{
closed = 1;
nodes = (
"367 -11 OFFCURVE",
"460 107 OFFCURVE",
"460 246 CURVE SMOOTH",
"460 371 OFFCURVE",
"384 439 OFFCURVE",
"269 439 CURVE SMOOTH",
"116 439 OFFCURVE",
"24 320 OFFCURVE",
"24 182 CURVE SMOOTH",
"24 57 OFFCURVE",
"100 -11 OFFCURVE",
"215 -11 CURVE SMOOTH"
);
},
{
closed = 1;
nodes = (
"147 55 OFFCURVE",
"113 106 OFFCURVE",
"113 182 CURVE SMOOTH",
"113 281 OFFCURVE",
"174 372 OFFCURVE",
"267 372 CURVE SMOOTH",
"337 372 OFFCURVE",
"371 321 OFFCURVE",
"371 246 CURVE SMOOTH",
"371 147 OFFCURVE",
"310 55 OFFCURVE",
"217 55 CURVE SMOOTH"
);
},
{
closed = 1;
nodes = (
"385 509 OFFCURVE",
"444 565 OFFCURVE",
"463 652 CURVE",
"400 652 LINE",
"384 599 OFFCURVE",
"351 576 OFFCURVE",
"303 576 CURVE SMOOTH",
"253 576 OFFCURVE",
"231 602 OFFCURVE",
"234 652 CURVE",
"171 652 LINE",
"161 573 OFFCURVE",
"202 509 OFFCURVE",
"297 509 CURVE SMOOTH"
);
}
);
width = 499;
}
);
leftKerningGroup = "c";
rightKerningGroup = "o";
unicode = 014F;
},
{
glyphname = "ohungarumlaut";
layers = (
{
layerId = "5CB93347-76DB-47FB-8F37-014E89A2A0A0";
name = "Regular";
paths = (
{
closed = 1;
nodes = (
"367 -11 OFFCURVE",
"460 107 OFFCURVE",
"460 246 CURVE SMOOTH",
"460 371 OFFCURVE",
"384 439 OFFCURVE",
"269 439 CURVE SMOOTH",
"116 439 OFFCURVE",
"24 320 OFFCURVE",
"24 182 CURVE SMOOTH",
"24 57 OFFCURVE",
"100 -11 OFFCURVE",
"215 -11 CURVE SMOOTH"
);
},
{
closed = 1;
nodes = (
"147 55 OFFCURVE",
"113 106 OFFCURVE",
"113 182 CURVE SMOOTH",
"113 281 OFFCURVE",
"174 372 OFFCURVE",
"267 372 CURVE SMOOTH",
"337 372 OFFCURVE",
"371 321 OFFCURVE",
"371 246 CURVE SMOOTH",
"371 147 OFFCURVE",
"310 55 OFFCURVE",
"217 55 CURVE SMOOTH"
);
},
{
closed = 1;
nodes = (
"205 504 LINE",
"378 643 LINE",
"325 701 LINE",
"179 531 LINE"
);
},
{
closed = 1;
nodes = (
"366 504 LINE",
"540 643 LINE",
"487 701 LINE",
"340 531 LINE"
);
}
);
width = 499;
}
);
leftKerningGroup = "c";
rightKerningGroup = "o";
unicode = 0151;
},
{
glyphname = "oslash";
layers = (
{
layerId = "5CB93347-76DB-47FB-8F37-014E89A2A0A0";
name = "Regular";
paths = (
{
closed = 1;
nodes = (
"367 -11 OFFCURVE",
"461 107 OFFCURVE",
"461 246 CURVE SMOOTH",
"461 295 OFFCURVE",
"449 335 OFFCURVE",
"428 366 CURVE",
"484 420 LINE",
"461 443 LINE",
"407 391 LINE",
"373 422 OFFCURVE",
"326 439 OFFCURVE",
"270 439 CURVE SMOOTH",
"117 439 OFFCURVE",
"24 320 OFFCURVE",
"24 182 CURVE SMOOTH",
"24 130 OFFCURVE",
"36 88 OFFCURVE",
"60 56 CURVE",
"1 0 LINE",
"25 -23 LINE",
"83 32 LINE",
"116 3 OFFCURVE",
"161 -11 OFFCURVE",
"215 -11 CURVE SMOOTH"
);
},
{
closed = 1;
nodes = (
"184 55 OFFCURVE",
"158 67 OFFCURVE",
"140 88 CURVE",
"363 302 LINE",
"369 286 OFFCURVE",
"372 267 OFFCURVE",
"372 246 CURVE SMOOTH",
"372 147 OFFCURVE",
"311 55 OFFCURVE",
"218 55 CURVE SMOOTH"
);
},
{
closed = 1;
nodes = (
"303 372 OFFCURVE",
"330 358 OFFCURVE",
"348 334 CURVE",
"124 118 LINE",
"116 136 OFFCURVE",
"112 157 OFFCURVE",
"112 182 CURVE SMOOTH",
"112 281 OFFCURVE",
"174 372 OFFCURVE",
"267 372 CURVE SMOOTH"
);
}
);
width = 499;
}
);
leftKerningGroup = "c";
rightKerningGroup = "o";
unicode = 00F8;
},
